%TF.GenerationSoftware,KiCad,Pcbnew,(5.1.10)-1*%
%TF.CreationDate,2023-03-23T11:32:48+01:00*%
%TF.ProjectId,PCB_BATO,5043425f-4241-4544-9f2e-6b696361645f,rev?*%
%TF.SameCoordinates,Original*%
%TF.FileFunction,Legend,Top*%
%TF.FilePolarity,Positive*%
%FSLAX46Y46*%
G04 Gerber Fmt 4.6, Leading zero omitted, Abs format (unit mm)*
G04 Created by KiCad (PCBNEW (5.1.10)-1) date 2023-03-23 11:32:48*
%MOMM*%
%LPD*%
G01*
G04 APERTURE LIST*
%ADD10C,0.150000*%
%ADD11C,0.100000*%
%ADD12C,0.120000*%
%ADD13C,0.127000*%
%ADD14C,0.200000*%
G04 APERTURE END LIST*
D10*
X95366666Y-55250000D02*
X95366666Y-54916666D01*
X95566666Y-55316666D02*
X94866666Y-55083333D01*
X95566666Y-54850000D01*
X95566666Y-54250000D02*
X95566666Y-54650000D01*
X95566666Y-54450000D02*
X94866666Y-54450000D01*
X94966666Y-54516666D01*
X95033333Y-54583333D01*
X95066666Y-54650000D01*
X95366666Y-60500000D02*
X95366666Y-60166666D01*
X95566666Y-60566666D02*
X94866666Y-60333333D01*
X95566666Y-60100000D01*
X94933333Y-59900000D02*
X94900000Y-59866666D01*
X94866666Y-59800000D01*
X94866666Y-59633333D01*
X94900000Y-59566666D01*
X94933333Y-59533333D01*
X95000000Y-59500000D01*
X95066666Y-59500000D01*
X95166666Y-59533333D01*
X95566666Y-59933333D01*
X95566666Y-59500000D01*
X95316666Y-70566666D02*
X94616666Y-70566666D01*
X95116666Y-70333333D01*
X94616666Y-70100000D01*
X95316666Y-70100000D01*
X94683333Y-69800000D02*
X94650000Y-69766666D01*
X94616666Y-69700000D01*
X94616666Y-69533333D01*
X94650000Y-69466666D01*
X94683333Y-69433333D01*
X94750000Y-69400000D01*
X94816666Y-69400000D01*
X94916666Y-69433333D01*
X95316666Y-69833333D01*
X95316666Y-69400000D01*
X95283333Y-76300000D02*
X95316666Y-76200000D01*
X95316666Y-76033333D01*
X95283333Y-75966666D01*
X95250000Y-75933333D01*
X95183333Y-75900000D01*
X95116666Y-75900000D01*
X95050000Y-75933333D01*
X95016666Y-75966666D01*
X94983333Y-76033333D01*
X94950000Y-76166666D01*
X94916666Y-76233333D01*
X94883333Y-76266666D01*
X94816666Y-76300000D01*
X94750000Y-76300000D01*
X94683333Y-76266666D01*
X94650000Y-76233333D01*
X94616666Y-76166666D01*
X94616666Y-76000000D01*
X94650000Y-75900000D01*
X94850000Y-75666666D02*
X95316666Y-75533333D01*
X94983333Y-75400000D01*
X95316666Y-75266666D01*
X94850000Y-75133333D01*
X95316666Y-74866666D02*
X94850000Y-74866666D01*
X94616666Y-74866666D02*
X94650000Y-74900000D01*
X94683333Y-74866666D01*
X94650000Y-74833333D01*
X94616666Y-74866666D01*
X94683333Y-74866666D01*
X94850000Y-74633333D02*
X94850000Y-74366666D01*
X94616666Y-74533333D02*
X95216666Y-74533333D01*
X95283333Y-74500000D01*
X95316666Y-74433333D01*
X95316666Y-74366666D01*
X95283333Y-73833333D02*
X95316666Y-73900000D01*
X95316666Y-74033333D01*
X95283333Y-74100000D01*
X95250000Y-74133333D01*
X95183333Y-74166666D01*
X94983333Y-74166666D01*
X94916666Y-74133333D01*
X94883333Y-74100000D01*
X94850000Y-74033333D01*
X94850000Y-73900000D01*
X94883333Y-73833333D01*
X95316666Y-73533333D02*
X94616666Y-73533333D01*
X95316666Y-73233333D02*
X94950000Y-73233333D01*
X94883333Y-73266666D01*
X94850000Y-73333333D01*
X94850000Y-73433333D01*
X94883333Y-73500000D01*
X94916666Y-73533333D01*
X95566666Y-65566666D02*
X94866666Y-65566666D01*
X95366666Y-65333333D01*
X94866666Y-65100000D01*
X95566666Y-65100000D01*
X95566666Y-64400000D02*
X95566666Y-64800000D01*
X95566666Y-64600000D02*
X94866666Y-64600000D01*
X94966666Y-64666666D01*
X95033333Y-64733333D01*
X95066666Y-64800000D01*
X94616666Y-48133333D02*
X94616666Y-48466666D01*
X94950000Y-48500000D01*
X94916666Y-48466666D01*
X94883333Y-48400000D01*
X94883333Y-48233333D01*
X94916666Y-48166666D01*
X94950000Y-48133333D01*
X95016666Y-48100000D01*
X95183333Y-48100000D01*
X95250000Y-48133333D01*
X95283333Y-48166666D01*
X95316666Y-48233333D01*
X95316666Y-48400000D01*
X95283333Y-48466666D01*
X95250000Y-48500000D01*
X94616666Y-47900000D02*
X95316666Y-47666666D01*
X94616666Y-47433333D01*
X94650000Y-43783333D02*
X94616666Y-43850000D01*
X94616666Y-43950000D01*
X94650000Y-44050000D01*
X94716666Y-44116666D01*
X94783333Y-44150000D01*
X94916666Y-44183333D01*
X95016666Y-44183333D01*
X95150000Y-44150000D01*
X95216666Y-44116666D01*
X95283333Y-44050000D01*
X95316666Y-43950000D01*
X95316666Y-43883333D01*
X95283333Y-43783333D01*
X95250000Y-43750000D01*
X95016666Y-43750000D01*
X95016666Y-43883333D01*
X95316666Y-43450000D02*
X94616666Y-43450000D01*
X95316666Y-43050000D01*
X94616666Y-43050000D01*
X95316666Y-42716666D02*
X94616666Y-42716666D01*
X94616666Y-42550000D01*
X94650000Y-42450000D01*
X94716666Y-42383333D01*
X94783333Y-42350000D01*
X94916666Y-42316666D01*
X95016666Y-42316666D01*
X95150000Y-42350000D01*
X95216666Y-42383333D01*
X95283333Y-42450000D01*
X95316666Y-42550000D01*
X95316666Y-42716666D01*
X162366666Y-48633333D02*
X162366666Y-48966666D01*
X162700000Y-49000000D01*
X162666666Y-48966666D01*
X162633333Y-48900000D01*
X162633333Y-48733333D01*
X162666666Y-48666666D01*
X162700000Y-48633333D01*
X162766666Y-48600000D01*
X162933333Y-48600000D01*
X163000000Y-48633333D01*
X163033333Y-48666666D01*
X163066666Y-48733333D01*
X163066666Y-48900000D01*
X163033333Y-48966666D01*
X163000000Y-49000000D01*
X162366666Y-48400000D02*
X163066666Y-48166666D01*
X162366666Y-47933333D01*
X163066666Y-55833333D02*
X162366666Y-55833333D01*
X162366666Y-55566666D01*
X162400000Y-55500000D01*
X162433333Y-55466666D01*
X162500000Y-55433333D01*
X162600000Y-55433333D01*
X162666666Y-55466666D01*
X162700000Y-55500000D01*
X162733333Y-55566666D01*
X162733333Y-55833333D01*
X162366666Y-55200000D02*
X163066666Y-55033333D01*
X162566666Y-54900000D01*
X163066666Y-54766666D01*
X162366666Y-54600000D01*
X163066666Y-54333333D02*
X162366666Y-54333333D01*
X162866666Y-54100000D01*
X162366666Y-53866666D01*
X163066666Y-53866666D01*
X163133333Y-53700000D02*
X163133333Y-53166666D01*
X163066666Y-52633333D02*
X163066666Y-53033333D01*
X163066666Y-52833333D02*
X162366666Y-52833333D01*
X162466666Y-52900000D01*
X162533333Y-52966666D01*
X162566666Y-53033333D01*
X162400000Y-44283333D02*
X162366666Y-44350000D01*
X162366666Y-44450000D01*
X162400000Y-44550000D01*
X162466666Y-44616666D01*
X162533333Y-44650000D01*
X162666666Y-44683333D01*
X162766666Y-44683333D01*
X162900000Y-44650000D01*
X162966666Y-44616666D01*
X163033333Y-44550000D01*
X163066666Y-44450000D01*
X163066666Y-44383333D01*
X163033333Y-44283333D01*
X163000000Y-44250000D01*
X162766666Y-44250000D01*
X162766666Y-44383333D01*
X163066666Y-43950000D02*
X162366666Y-43950000D01*
X163066666Y-43550000D01*
X162366666Y-43550000D01*
X163066666Y-43216666D02*
X162366666Y-43216666D01*
X162366666Y-43050000D01*
X162400000Y-42950000D01*
X162466666Y-42883333D01*
X162533333Y-42850000D01*
X162666666Y-42816666D01*
X162766666Y-42816666D01*
X162900000Y-42850000D01*
X162966666Y-42883333D01*
X163033333Y-42950000D01*
X163066666Y-43050000D01*
X163066666Y-43216666D01*
X163066666Y-75583333D02*
X162366666Y-75583333D01*
X162366666Y-75316666D01*
X162400000Y-75250000D01*
X162433333Y-75216666D01*
X162500000Y-75183333D01*
X162600000Y-75183333D01*
X162666666Y-75216666D01*
X162700000Y-75250000D01*
X162733333Y-75316666D01*
X162733333Y-75583333D01*
X162366666Y-74950000D02*
X163066666Y-74783333D01*
X162566666Y-74650000D01*
X163066666Y-74516666D01*
X162366666Y-74350000D01*
X163066666Y-74083333D02*
X162366666Y-74083333D01*
X162866666Y-73850000D01*
X162366666Y-73616666D01*
X163066666Y-73616666D01*
X163133333Y-73450000D02*
X163133333Y-72916666D01*
X162433333Y-72783333D02*
X162400000Y-72750000D01*
X162366666Y-72683333D01*
X162366666Y-72516666D01*
X162400000Y-72450000D01*
X162433333Y-72416666D01*
X162500000Y-72383333D01*
X162566666Y-72383333D01*
X162666666Y-72416666D01*
X163066666Y-72816666D01*
X163066666Y-72383333D01*
X162366666Y-68383333D02*
X162366666Y-68716666D01*
X162700000Y-68750000D01*
X162666666Y-68716666D01*
X162633333Y-68650000D01*
X162633333Y-68483333D01*
X162666666Y-68416666D01*
X162700000Y-68383333D01*
X162766666Y-68350000D01*
X162933333Y-68350000D01*
X163000000Y-68383333D01*
X163033333Y-68416666D01*
X163066666Y-68483333D01*
X163066666Y-68650000D01*
X163033333Y-68716666D01*
X163000000Y-68750000D01*
X162366666Y-68150000D02*
X163066666Y-67916666D01*
X162366666Y-67683333D01*
X162400000Y-64033333D02*
X162366666Y-64100000D01*
X162366666Y-64200000D01*
X162400000Y-64300000D01*
X162466666Y-64366666D01*
X162533333Y-64400000D01*
X162666666Y-64433333D01*
X162766666Y-64433333D01*
X162900000Y-64400000D01*
X162966666Y-64366666D01*
X163033333Y-64300000D01*
X163066666Y-64200000D01*
X163066666Y-64133333D01*
X163033333Y-64033333D01*
X163000000Y-64000000D01*
X162766666Y-64000000D01*
X162766666Y-64133333D01*
X163066666Y-63700000D02*
X162366666Y-63700000D01*
X163066666Y-63300000D01*
X162366666Y-63300000D01*
X163066666Y-62966666D02*
X162366666Y-62966666D01*
X162366666Y-62800000D01*
X162400000Y-62700000D01*
X162466666Y-62633333D01*
X162533333Y-62600000D01*
X162666666Y-62566666D01*
X162766666Y-62566666D01*
X162900000Y-62600000D01*
X162966666Y-62633333D01*
X163033333Y-62700000D01*
X163066666Y-62800000D01*
X163066666Y-62966666D01*
X112000000Y-60892857D02*
X112214285Y-60964285D01*
X112285714Y-61035714D01*
X112357142Y-61178571D01*
X112357142Y-61392857D01*
X112285714Y-61535714D01*
X112214285Y-61607142D01*
X112071428Y-61678571D01*
X111500000Y-61678571D01*
X111500000Y-60178571D01*
X112000000Y-60178571D01*
X112142857Y-60250000D01*
X112214285Y-60321428D01*
X112285714Y-60464285D01*
X112285714Y-60607142D01*
X112214285Y-60750000D01*
X112142857Y-60821428D01*
X112000000Y-60892857D01*
X111500000Y-60892857D01*
X112928571Y-61250000D02*
X113642857Y-61250000D01*
X112785714Y-61678571D02*
X113285714Y-60178571D01*
X113785714Y-61678571D01*
X114071428Y-60178571D02*
X114928571Y-60178571D01*
X114500000Y-61678571D02*
X114500000Y-60178571D01*
X115714285Y-60178571D02*
X116000000Y-60178571D01*
X116142857Y-60250000D01*
X116285714Y-60392857D01*
X116357142Y-60678571D01*
X116357142Y-61178571D01*
X116285714Y-61464285D01*
X116142857Y-61607142D01*
X116000000Y-61678571D01*
X115714285Y-61678571D01*
X115571428Y-61607142D01*
X115428571Y-61464285D01*
X115357142Y-61178571D01*
X115357142Y-60678571D01*
X115428571Y-60392857D01*
X115571428Y-60250000D01*
X115714285Y-60178571D01*
X117000000Y-61678571D02*
X117000000Y-60178571D01*
X117857142Y-61678571D01*
X117857142Y-60178571D01*
X118857142Y-60178571D02*
X119142857Y-60178571D01*
X119285714Y-60250000D01*
X119428571Y-60392857D01*
X119500000Y-60678571D01*
X119500000Y-61178571D01*
X119428571Y-61464285D01*
X119285714Y-61607142D01*
X119142857Y-61678571D01*
X118857142Y-61678571D01*
X118714285Y-61607142D01*
X118571428Y-61464285D01*
X118500000Y-61178571D01*
X118500000Y-60678571D01*
X118571428Y-60392857D01*
X118714285Y-60250000D01*
X118857142Y-60178571D01*
X120142857Y-61678571D02*
X120142857Y-60178571D01*
X120642857Y-61250000D01*
X121142857Y-60178571D01*
X121142857Y-61678571D01*
X121857142Y-60892857D02*
X122357142Y-60892857D01*
X122571428Y-61678571D02*
X121857142Y-61678571D01*
X121857142Y-60178571D01*
X122571428Y-60178571D01*
D11*
X133023809Y-66392857D02*
X133119047Y-66726190D01*
X133214285Y-66488095D01*
X133309523Y-66726190D01*
X133404761Y-66392857D01*
X133547619Y-66392857D02*
X133642857Y-66726190D01*
X133738095Y-66488095D01*
X133833333Y-66726190D01*
X133928571Y-66392857D01*
X134071428Y-66392857D02*
X134166666Y-66726190D01*
X134261904Y-66488095D01*
X134357142Y-66726190D01*
X134452380Y-66392857D01*
X134642857Y-66678571D02*
X134666666Y-66702380D01*
X134642857Y-66726190D01*
X134619047Y-66702380D01*
X134642857Y-66678571D01*
X134642857Y-66726190D01*
X134880952Y-66726190D02*
X134880952Y-66226190D01*
X134880952Y-66416666D02*
X134928571Y-66392857D01*
X135023809Y-66392857D01*
X135071428Y-66416666D01*
X135095238Y-66440476D01*
X135119047Y-66488095D01*
X135119047Y-66630952D01*
X135095238Y-66678571D01*
X135071428Y-66702380D01*
X135023809Y-66726190D01*
X134928571Y-66726190D01*
X134880952Y-66702380D01*
X135404761Y-66726190D02*
X135357142Y-66702380D01*
X135333333Y-66654761D01*
X135333333Y-66226190D01*
X135809523Y-66726190D02*
X135809523Y-66464285D01*
X135785714Y-66416666D01*
X135738095Y-66392857D01*
X135642857Y-66392857D01*
X135595238Y-66416666D01*
X135809523Y-66702380D02*
X135761904Y-66726190D01*
X135642857Y-66726190D01*
X135595238Y-66702380D01*
X135571428Y-66654761D01*
X135571428Y-66607142D01*
X135595238Y-66559523D01*
X135642857Y-66535714D01*
X135761904Y-66535714D01*
X135809523Y-66511904D01*
X136023809Y-66702380D02*
X136071428Y-66726190D01*
X136166666Y-66726190D01*
X136214285Y-66702380D01*
X136238095Y-66654761D01*
X136238095Y-66630952D01*
X136214285Y-66583333D01*
X136166666Y-66559523D01*
X136095238Y-66559523D01*
X136047619Y-66535714D01*
X136023809Y-66488095D01*
X136023809Y-66464285D01*
X136047619Y-66416666D01*
X136095238Y-66392857D01*
X136166666Y-66392857D01*
X136214285Y-66416666D01*
X136380952Y-66392857D02*
X136571428Y-66392857D01*
X136452380Y-66226190D02*
X136452380Y-66654761D01*
X136476190Y-66702380D01*
X136523809Y-66726190D01*
X136571428Y-66726190D01*
X136928571Y-66702380D02*
X136880952Y-66726190D01*
X136785714Y-66726190D01*
X136738095Y-66702380D01*
X136714285Y-66654761D01*
X136714285Y-66464285D01*
X136738095Y-66416666D01*
X136785714Y-66392857D01*
X136880952Y-66392857D01*
X136928571Y-66416666D01*
X136952380Y-66464285D01*
X136952380Y-66511904D01*
X136714285Y-66559523D01*
X137380952Y-66726190D02*
X137380952Y-66226190D01*
X137380952Y-66702380D02*
X137333333Y-66726190D01*
X137238095Y-66726190D01*
X137190476Y-66702380D01*
X137166666Y-66678571D01*
X137142857Y-66630952D01*
X137142857Y-66488095D01*
X137166666Y-66440476D01*
X137190476Y-66416666D01*
X137238095Y-66392857D01*
X137333333Y-66392857D01*
X137380952Y-66416666D01*
X137595238Y-66702380D02*
X137642857Y-66726190D01*
X137738095Y-66726190D01*
X137785714Y-66702380D01*
X137809523Y-66654761D01*
X137809523Y-66630952D01*
X137785714Y-66583333D01*
X137738095Y-66559523D01*
X137666666Y-66559523D01*
X137619047Y-66535714D01*
X137595238Y-66488095D01*
X137595238Y-66464285D01*
X137619047Y-66416666D01*
X137666666Y-66392857D01*
X137738095Y-66392857D01*
X137785714Y-66416666D01*
X138023809Y-66726190D02*
X138023809Y-66226190D01*
X138238095Y-66726190D02*
X138238095Y-66464285D01*
X138214285Y-66416666D01*
X138166666Y-66392857D01*
X138095238Y-66392857D01*
X138047619Y-66416666D01*
X138023809Y-66440476D01*
X138547619Y-66726190D02*
X138500000Y-66702380D01*
X138476190Y-66678571D01*
X138452380Y-66630952D01*
X138452380Y-66488095D01*
X138476190Y-66440476D01*
X138500000Y-66416666D01*
X138547619Y-66392857D01*
X138619047Y-66392857D01*
X138666666Y-66416666D01*
X138690476Y-66440476D01*
X138714285Y-66488095D01*
X138714285Y-66630952D01*
X138690476Y-66678571D01*
X138666666Y-66702380D01*
X138619047Y-66726190D01*
X138547619Y-66726190D01*
X138928571Y-66392857D02*
X138928571Y-66892857D01*
X138928571Y-66416666D02*
X138976190Y-66392857D01*
X139071428Y-66392857D01*
X139119047Y-66416666D01*
X139142857Y-66440476D01*
X139166666Y-66488095D01*
X139166666Y-66630952D01*
X139142857Y-66678571D01*
X139119047Y-66702380D01*
X139071428Y-66726190D01*
X138976190Y-66726190D01*
X138928571Y-66702380D01*
X139380952Y-66678571D02*
X139404761Y-66702380D01*
X139380952Y-66726190D01*
X139357142Y-66702380D01*
X139380952Y-66678571D01*
X139380952Y-66726190D01*
X139833333Y-66702380D02*
X139785714Y-66726190D01*
X139690476Y-66726190D01*
X139642857Y-66702380D01*
X139619047Y-66678571D01*
X139595238Y-66630952D01*
X139595238Y-66488095D01*
X139619047Y-66440476D01*
X139642857Y-66416666D01*
X139690476Y-66392857D01*
X139785714Y-66392857D01*
X139833333Y-66416666D01*
X140119047Y-66726190D02*
X140071428Y-66702380D01*
X140047619Y-66678571D01*
X140023809Y-66630952D01*
X140023809Y-66488095D01*
X140047619Y-66440476D01*
X140071428Y-66416666D01*
X140119047Y-66392857D01*
X140190476Y-66392857D01*
X140238095Y-66416666D01*
X140261904Y-66440476D01*
X140285714Y-66488095D01*
X140285714Y-66630952D01*
X140261904Y-66678571D01*
X140238095Y-66702380D01*
X140190476Y-66726190D01*
X140119047Y-66726190D01*
X140500000Y-66726190D02*
X140500000Y-66392857D01*
X140500000Y-66440476D02*
X140523809Y-66416666D01*
X140571428Y-66392857D01*
X140642857Y-66392857D01*
X140690476Y-66416666D01*
X140714285Y-66464285D01*
X140714285Y-66726190D01*
X140714285Y-66464285D02*
X140738095Y-66416666D01*
X140785714Y-66392857D01*
X140857142Y-66392857D01*
X140904761Y-66416666D01*
X140928571Y-66464285D01*
X140928571Y-66726190D01*
D10*
X130214285Y-65535714D02*
X130142857Y-65607142D01*
X129928571Y-65678571D01*
X129785714Y-65678571D01*
X129571428Y-65607142D01*
X129428571Y-65464285D01*
X129357142Y-65321428D01*
X129285714Y-65035714D01*
X129285714Y-64821428D01*
X129357142Y-64535714D01*
X129428571Y-64392857D01*
X129571428Y-64250000D01*
X129785714Y-64178571D01*
X129928571Y-64178571D01*
X130142857Y-64250000D01*
X130214285Y-64321428D01*
X130785714Y-65250000D02*
X131500000Y-65250000D01*
X130642857Y-65678571D02*
X131142857Y-64178571D01*
X131642857Y-65678571D01*
X133000000Y-65678571D02*
X132500000Y-64964285D01*
X132142857Y-65678571D02*
X132142857Y-64178571D01*
X132714285Y-64178571D01*
X132857142Y-64250000D01*
X132928571Y-64321428D01*
X133000000Y-64464285D01*
X133000000Y-64678571D01*
X132928571Y-64821428D01*
X132857142Y-64892857D01*
X132714285Y-64964285D01*
X132142857Y-64964285D01*
X133428571Y-64178571D02*
X134285714Y-64178571D01*
X133857142Y-65678571D02*
X133857142Y-64178571D01*
X134785714Y-64892857D02*
X135285714Y-64892857D01*
X135500000Y-65678571D02*
X134785714Y-65678571D01*
X134785714Y-64178571D01*
X135500000Y-64178571D01*
X137214285Y-65607142D02*
X137428571Y-65678571D01*
X137785714Y-65678571D01*
X137928571Y-65607142D01*
X138000000Y-65535714D01*
X138071428Y-65392857D01*
X138071428Y-65250000D01*
X138000000Y-65107142D01*
X137928571Y-65035714D01*
X137785714Y-64964285D01*
X137500000Y-64892857D01*
X137357142Y-64821428D01*
X137285714Y-64750000D01*
X137214285Y-64607142D01*
X137214285Y-64464285D01*
X137285714Y-64321428D01*
X137357142Y-64250000D01*
X137500000Y-64178571D01*
X137857142Y-64178571D01*
X138071428Y-64250000D01*
X138571428Y-64178571D02*
X138928571Y-65678571D01*
X139214285Y-64607142D01*
X139500000Y-65678571D01*
X139857142Y-64178571D01*
X140428571Y-65678571D02*
X140428571Y-64178571D01*
X140928571Y-64178571D02*
X141785714Y-64178571D01*
X141357142Y-65678571D02*
X141357142Y-64178571D01*
X143142857Y-65535714D02*
X143071428Y-65607142D01*
X142857142Y-65678571D01*
X142714285Y-65678571D01*
X142500000Y-65607142D01*
X142357142Y-65464285D01*
X142285714Y-65321428D01*
X142214285Y-65035714D01*
X142214285Y-64821428D01*
X142285714Y-64535714D01*
X142357142Y-64392857D01*
X142500000Y-64250000D01*
X142714285Y-64178571D01*
X142857142Y-64178571D01*
X143071428Y-64250000D01*
X143142857Y-64321428D01*
X143785714Y-65678571D02*
X143785714Y-64178571D01*
X143785714Y-64892857D02*
X144642857Y-64892857D01*
X144642857Y-65678571D02*
X144642857Y-64178571D01*
D12*
%TO.C,J2*%
X161700000Y-76540000D02*
X161700000Y-76040000D01*
X160960000Y-76540000D02*
X161700000Y-76540000D01*
X157823000Y-64767000D02*
X157869000Y-64814000D01*
X155525000Y-62470000D02*
X155561000Y-62505000D01*
X158039000Y-64574000D02*
X158074000Y-64609000D01*
X155731000Y-62265000D02*
X155777000Y-62312000D01*
X157823000Y-69847000D02*
X157869000Y-69894000D01*
X155525000Y-67550000D02*
X155561000Y-67585000D01*
X158039000Y-69654000D02*
X158074000Y-69689000D01*
X155731000Y-67345000D02*
X155777000Y-67392000D01*
X151539000Y-60940000D02*
X161460000Y-60940000D01*
X151539000Y-76300000D02*
X161460000Y-76300000D01*
X161460000Y-76300000D02*
X161460000Y-60940000D01*
X151539000Y-76300000D02*
X151539000Y-60940000D01*
X154499000Y-76300000D02*
X154499000Y-60940000D01*
X159400000Y-76300000D02*
X159400000Y-60940000D01*
X160900000Y-76300000D02*
X160900000Y-60940000D01*
X158480000Y-63540000D02*
G75*
G03*
X158480000Y-63540000I-1680000J0D01*
G01*
X158480000Y-68620000D02*
G75*
G03*
X158480000Y-68620000I-1680000J0D01*
G01*
X158480253Y-73671195D02*
G75*
G02*
X158335000Y-74384000I-1680253J-28805D01*
G01*
X157483042Y-75235426D02*
G75*
G02*
X156116000Y-75235000I-683042J1535426D01*
G01*
X155264574Y-74383042D02*
G75*
G02*
X155265000Y-73016000I1535426J683042D01*
G01*
X156116958Y-72164574D02*
G75*
G02*
X157484000Y-72165000I683042J-1535426D01*
G01*
X158334756Y-73016682D02*
G75*
G02*
X158480000Y-73700000I-1534756J-683318D01*
G01*
D13*
%TO.C,U1*%
X117620000Y-47600000D02*
X123980000Y-47600000D01*
X123980000Y-57200000D02*
X117620000Y-57200000D01*
D14*
X116050000Y-47550000D02*
G75*
G03*
X116050000Y-47550000I-100000J0D01*
G01*
D12*
%TO.C,C4*%
X148670000Y-46670000D02*
X145930000Y-46670000D01*
X148670000Y-41430000D02*
X145930000Y-41430000D01*
X145930000Y-41430000D02*
X145930000Y-46670000D01*
X148670000Y-41430000D02*
X148670000Y-46670000D01*
%TO.C,C3*%
X145630000Y-58830000D02*
X148370000Y-58830000D01*
X145630000Y-64070000D02*
X148370000Y-64070000D01*
X148370000Y-64070000D02*
X148370000Y-58830000D01*
X145630000Y-64070000D02*
X145630000Y-58830000D01*
%TO.C,C2*%
X131670000Y-56070000D02*
X128930000Y-56070000D01*
X131670000Y-50830000D02*
X128930000Y-50830000D01*
X128930000Y-50830000D02*
X128930000Y-56070000D01*
X131670000Y-50830000D02*
X131670000Y-56070000D01*
D14*
%TO.C,U3*%
X148590000Y-67165000D02*
G75*
G03*
X148590000Y-67165000I-100000J0D01*
G01*
D13*
X149375000Y-69025000D02*
X149375000Y-75375000D01*
X129825000Y-69025000D02*
X129825000Y-75375000D01*
D14*
%TO.C,U2*%
X134265000Y-42410000D02*
G75*
G03*
X134265000Y-42410000I-100000J0D01*
G01*
D13*
X136025000Y-41525000D02*
X142375000Y-41525000D01*
X136025000Y-61075000D02*
X142375000Y-61075000D01*
D12*
%TO.C,R5*%
X126250000Y-43970000D02*
X126250000Y-41230000D01*
X126250000Y-41230000D02*
X119710000Y-41230000D01*
X119710000Y-41230000D02*
X119710000Y-43970000D01*
X119710000Y-43970000D02*
X126250000Y-43970000D01*
X129560000Y-42600000D02*
X126250000Y-42600000D01*
X116400000Y-42600000D02*
X119710000Y-42600000D01*
%TO.C,R4*%
X112070000Y-46550000D02*
X109330000Y-46550000D01*
X109330000Y-46550000D02*
X109330000Y-53090000D01*
X109330000Y-53090000D02*
X112070000Y-53090000D01*
X112070000Y-53090000D02*
X112070000Y-46550000D01*
X110700000Y-43240000D02*
X110700000Y-46550000D01*
X110700000Y-56400000D02*
X110700000Y-53090000D01*
%TO.C,R3*%
X121250000Y-66570000D02*
X121250000Y-63830000D01*
X121250000Y-63830000D02*
X114710000Y-63830000D01*
X114710000Y-63830000D02*
X114710000Y-66570000D01*
X114710000Y-66570000D02*
X121250000Y-66570000D01*
X124560000Y-65200000D02*
X121250000Y-65200000D01*
X111400000Y-65200000D02*
X114710000Y-65200000D01*
%TO.C,R2*%
X121350000Y-77170000D02*
X121350000Y-74430000D01*
X121350000Y-74430000D02*
X114810000Y-74430000D01*
X114810000Y-74430000D02*
X114810000Y-77170000D01*
X114810000Y-77170000D02*
X121350000Y-77170000D01*
X124660000Y-75800000D02*
X121350000Y-75800000D01*
X111500000Y-75800000D02*
X114810000Y-75800000D01*
%TO.C,R1*%
X114850000Y-69230000D02*
X114850000Y-71970000D01*
X114850000Y-71970000D02*
X121390000Y-71970000D01*
X121390000Y-71970000D02*
X121390000Y-69230000D01*
X121390000Y-69230000D02*
X114850000Y-69230000D01*
X111540000Y-70600000D02*
X114850000Y-70600000D01*
X124700000Y-70600000D02*
X121390000Y-70600000D01*
%TO.C,C1*%
X133620000Y-60350000D02*
G75*
G03*
X133620000Y-60350000I-3270000J0D01*
G01*
%TO.C,J3*%
X96200000Y-52060000D02*
X96200000Y-52560000D01*
X96940000Y-52060000D02*
X96200000Y-52060000D01*
X100077000Y-73993000D02*
X100031000Y-73946000D01*
X102375000Y-76290000D02*
X102339000Y-76255000D01*
X99861000Y-74186000D02*
X99826000Y-74151000D01*
X102169000Y-76495000D02*
X102123000Y-76448000D01*
X100077000Y-68913000D02*
X100031000Y-68866000D01*
X102375000Y-71210000D02*
X102339000Y-71175000D01*
X99861000Y-69106000D02*
X99826000Y-69071000D01*
X102169000Y-71415000D02*
X102123000Y-71368000D01*
X100077000Y-63833000D02*
X100031000Y-63786000D01*
X102375000Y-66130000D02*
X102339000Y-66095000D01*
X99861000Y-64026000D02*
X99826000Y-63991000D01*
X102169000Y-66335000D02*
X102123000Y-66288000D01*
X100077000Y-58753000D02*
X100031000Y-58706000D01*
X102375000Y-61050000D02*
X102339000Y-61015000D01*
X99861000Y-58946000D02*
X99826000Y-58911000D01*
X102169000Y-61255000D02*
X102123000Y-61208000D01*
X106361000Y-77820000D02*
X96440000Y-77820000D01*
X106361000Y-52300000D02*
X96440000Y-52300000D01*
X96440000Y-52300000D02*
X96440000Y-77820000D01*
X106361000Y-52300000D02*
X106361000Y-77820000D01*
X103401000Y-52300000D02*
X103401000Y-77820000D01*
X98500000Y-52300000D02*
X98500000Y-77820000D01*
X97000000Y-52300000D02*
X97000000Y-77820000D01*
X102780000Y-75220000D02*
G75*
G03*
X102780000Y-75220000I-1680000J0D01*
G01*
X102780000Y-70140000D02*
G75*
G03*
X102780000Y-70140000I-1680000J0D01*
G01*
X102780000Y-65060000D02*
G75*
G03*
X102780000Y-65060000I-1680000J0D01*
G01*
X102780000Y-59980000D02*
G75*
G03*
X102780000Y-59980000I-1680000J0D01*
G01*
X99565244Y-55583318D02*
G75*
G02*
X99420000Y-54900000I1534756J683318D01*
G01*
X101783042Y-56435426D02*
G75*
G02*
X100416000Y-56435000I-683042J1535426D01*
G01*
X102635426Y-54216958D02*
G75*
G02*
X102635000Y-55584000I-1535426J-683042D01*
G01*
X100416958Y-53364574D02*
G75*
G02*
X101784000Y-53365000I683042J-1535426D01*
G01*
X99419747Y-54928805D02*
G75*
G02*
X99565000Y-54216000I1680253J28805D01*
G01*
%TO.C,J4*%
X96200000Y-40060000D02*
X96200000Y-40560000D01*
X96940000Y-40060000D02*
X96200000Y-40060000D01*
X100077000Y-46753000D02*
X100031000Y-46706000D01*
X102375000Y-49050000D02*
X102339000Y-49015000D01*
X99861000Y-46946000D02*
X99826000Y-46911000D01*
X102169000Y-49255000D02*
X102123000Y-49208000D01*
X106361000Y-50580000D02*
X96440000Y-50580000D01*
X106361000Y-40300000D02*
X96440000Y-40300000D01*
X96440000Y-40300000D02*
X96440000Y-50580000D01*
X106361000Y-40300000D02*
X106361000Y-50580000D01*
X103401000Y-40300000D02*
X103401000Y-50580000D01*
X98500000Y-40300000D02*
X98500000Y-50580000D01*
X97000000Y-40300000D02*
X97000000Y-50580000D01*
X102780000Y-47980000D02*
G75*
G03*
X102780000Y-47980000I-1680000J0D01*
G01*
X99565244Y-43583318D02*
G75*
G02*
X99420000Y-42900000I1534756J683318D01*
G01*
X101783042Y-44435426D02*
G75*
G02*
X100416000Y-44435000I-683042J1535426D01*
G01*
X102635426Y-42216958D02*
G75*
G02*
X102635000Y-43584000I-1535426J-683042D01*
G01*
X100416958Y-41364574D02*
G75*
G02*
X101784000Y-41365000I683042J-1535426D01*
G01*
X99419747Y-42928805D02*
G75*
G02*
X99565000Y-42216000I1680253J28805D01*
G01*
%TO.C,J1*%
X161800000Y-56940000D02*
X161800000Y-56440000D01*
X161060000Y-56940000D02*
X161800000Y-56940000D01*
X157923000Y-45167000D02*
X157969000Y-45214000D01*
X155625000Y-42870000D02*
X155661000Y-42905000D01*
X158139000Y-44974000D02*
X158174000Y-45009000D01*
X155831000Y-42665000D02*
X155877000Y-42712000D01*
X157923000Y-50247000D02*
X157969000Y-50294000D01*
X155625000Y-47950000D02*
X155661000Y-47985000D01*
X158139000Y-50054000D02*
X158174000Y-50089000D01*
X155831000Y-47745000D02*
X155877000Y-47792000D01*
X151639000Y-41340000D02*
X161560000Y-41340000D01*
X151639000Y-56700000D02*
X161560000Y-56700000D01*
X161560000Y-56700000D02*
X161560000Y-41340000D01*
X151639000Y-56700000D02*
X151639000Y-41340000D01*
X154599000Y-56700000D02*
X154599000Y-41340000D01*
X159500000Y-56700000D02*
X159500000Y-41340000D01*
X161000000Y-56700000D02*
X161000000Y-41340000D01*
X158580000Y-43940000D02*
G75*
G03*
X158580000Y-43940000I-1680000J0D01*
G01*
X158580000Y-49020000D02*
G75*
G03*
X158580000Y-49020000I-1680000J0D01*
G01*
X158434756Y-53416682D02*
G75*
G02*
X158580000Y-54100000I-1534756J-683318D01*
G01*
X156216958Y-52564574D02*
G75*
G02*
X157584000Y-52565000I683042J-1535426D01*
G01*
X155364574Y-54783042D02*
G75*
G02*
X155365000Y-53416000I1535426J683042D01*
G01*
X157583042Y-55635426D02*
G75*
G02*
X156216000Y-55635000I-683042J1535426D01*
G01*
X158580253Y-54071195D02*
G75*
G02*
X158435000Y-54784000I-1680253J-28805D01*
G01*
%TO.C,J2*%
D10*
X149992380Y-68953333D02*
X150706666Y-68953333D01*
X150849523Y-69000952D01*
X150944761Y-69096190D01*
X150992380Y-69239047D01*
X150992380Y-69334285D01*
X150087619Y-68524761D02*
X150040000Y-68477142D01*
X149992380Y-68381904D01*
X149992380Y-68143809D01*
X150040000Y-68048571D01*
X150087619Y-68000952D01*
X150182857Y-67953333D01*
X150278095Y-67953333D01*
X150420952Y-68000952D01*
X150992380Y-68572380D01*
X150992380Y-67953333D01*
%TO.C,U1*%
X118800208Y-50690775D02*
X118800208Y-52921803D01*
X118931445Y-53184277D01*
X119062682Y-53315514D01*
X119325156Y-53446751D01*
X119850104Y-53446751D01*
X120112578Y-53315514D01*
X120243815Y-53184277D01*
X120375052Y-52921803D01*
X120375052Y-50690775D01*
X123131028Y-53446751D02*
X121556184Y-53446751D01*
X122343606Y-53446751D02*
X122343606Y-50690775D01*
X122081132Y-51084485D01*
X121818658Y-51346959D01*
X121556184Y-51478196D01*
%TO.C,C4*%
X145657142Y-46316666D02*
X145704761Y-46364285D01*
X145752380Y-46507142D01*
X145752380Y-46602380D01*
X145704761Y-46745238D01*
X145609523Y-46840476D01*
X145514285Y-46888095D01*
X145323809Y-46935714D01*
X145180952Y-46935714D01*
X144990476Y-46888095D01*
X144895238Y-46840476D01*
X144800000Y-46745238D01*
X144752380Y-46602380D01*
X144752380Y-46507142D01*
X144800000Y-46364285D01*
X144847619Y-46316666D01*
X145085714Y-45459523D02*
X145752380Y-45459523D01*
X144704761Y-45697619D02*
X145419047Y-45935714D01*
X145419047Y-45316666D01*
%TO.C,C3*%
X144857142Y-61616666D02*
X144904761Y-61664285D01*
X144952380Y-61807142D01*
X144952380Y-61902380D01*
X144904761Y-62045238D01*
X144809523Y-62140476D01*
X144714285Y-62188095D01*
X144523809Y-62235714D01*
X144380952Y-62235714D01*
X144190476Y-62188095D01*
X144095238Y-62140476D01*
X144000000Y-62045238D01*
X143952380Y-61902380D01*
X143952380Y-61807142D01*
X144000000Y-61664285D01*
X144047619Y-61616666D01*
X143952380Y-61283333D02*
X143952380Y-60664285D01*
X144333333Y-60997619D01*
X144333333Y-60854761D01*
X144380952Y-60759523D01*
X144428571Y-60711904D01*
X144523809Y-60664285D01*
X144761904Y-60664285D01*
X144857142Y-60711904D01*
X144904761Y-60759523D01*
X144952380Y-60854761D01*
X144952380Y-61140476D01*
X144904761Y-61235714D01*
X144857142Y-61283333D01*
%TO.C,C2*%
X133157142Y-53616666D02*
X133204761Y-53664285D01*
X133252380Y-53807142D01*
X133252380Y-53902380D01*
X133204761Y-54045238D01*
X133109523Y-54140476D01*
X133014285Y-54188095D01*
X132823809Y-54235714D01*
X132680952Y-54235714D01*
X132490476Y-54188095D01*
X132395238Y-54140476D01*
X132300000Y-54045238D01*
X132252380Y-53902380D01*
X132252380Y-53807142D01*
X132300000Y-53664285D01*
X132347619Y-53616666D01*
X132347619Y-53235714D02*
X132300000Y-53188095D01*
X132252380Y-53092857D01*
X132252380Y-52854761D01*
X132300000Y-52759523D01*
X132347619Y-52711904D01*
X132442857Y-52664285D01*
X132538095Y-52664285D01*
X132680952Y-52711904D01*
X133252380Y-53283333D01*
X133252380Y-52664285D01*
%TO.C,U3*%
X137576190Y-71104761D02*
X137576190Y-72723809D01*
X137671428Y-72914285D01*
X137766666Y-73009523D01*
X137957142Y-73104761D01*
X138338095Y-73104761D01*
X138528571Y-73009523D01*
X138623809Y-72914285D01*
X138719047Y-72723809D01*
X138719047Y-71104761D01*
X139480952Y-71104761D02*
X140719047Y-71104761D01*
X140052380Y-71866666D01*
X140338095Y-71866666D01*
X140528571Y-71961904D01*
X140623809Y-72057142D01*
X140719047Y-72247619D01*
X140719047Y-72723809D01*
X140623809Y-72914285D01*
X140528571Y-73009523D01*
X140338095Y-73104761D01*
X139766666Y-73104761D01*
X139576190Y-73009523D01*
X139480952Y-72914285D01*
%TO.C,U2*%
X137276190Y-48004761D02*
X137276190Y-49623809D01*
X137371428Y-49814285D01*
X137466666Y-49909523D01*
X137657142Y-50004761D01*
X138038095Y-50004761D01*
X138228571Y-49909523D01*
X138323809Y-49814285D01*
X138419047Y-49623809D01*
X138419047Y-48004761D01*
X139276190Y-48195238D02*
X139371428Y-48100000D01*
X139561904Y-48004761D01*
X140038095Y-48004761D01*
X140228571Y-48100000D01*
X140323809Y-48195238D01*
X140419047Y-48385714D01*
X140419047Y-48576190D01*
X140323809Y-48861904D01*
X139180952Y-50004761D01*
X140419047Y-50004761D01*
%TO.C,R5*%
X122813333Y-45422380D02*
X122480000Y-44946190D01*
X122241904Y-45422380D02*
X122241904Y-44422380D01*
X122622857Y-44422380D01*
X122718095Y-44470000D01*
X122765714Y-44517619D01*
X122813333Y-44612857D01*
X122813333Y-44755714D01*
X122765714Y-44850952D01*
X122718095Y-44898571D01*
X122622857Y-44946190D01*
X122241904Y-44946190D01*
X123718095Y-44422380D02*
X123241904Y-44422380D01*
X123194285Y-44898571D01*
X123241904Y-44850952D01*
X123337142Y-44803333D01*
X123575238Y-44803333D01*
X123670476Y-44850952D01*
X123718095Y-44898571D01*
X123765714Y-44993809D01*
X123765714Y-45231904D01*
X123718095Y-45327142D01*
X123670476Y-45374761D01*
X123575238Y-45422380D01*
X123337142Y-45422380D01*
X123241904Y-45374761D01*
X123194285Y-45327142D01*
%TO.C,R4*%
X113522380Y-49986666D02*
X113046190Y-50320000D01*
X113522380Y-50558095D02*
X112522380Y-50558095D01*
X112522380Y-50177142D01*
X112570000Y-50081904D01*
X112617619Y-50034285D01*
X112712857Y-49986666D01*
X112855714Y-49986666D01*
X112950952Y-50034285D01*
X112998571Y-50081904D01*
X113046190Y-50177142D01*
X113046190Y-50558095D01*
X112855714Y-49129523D02*
X113522380Y-49129523D01*
X112474761Y-49367619D02*
X113189047Y-49605714D01*
X113189047Y-48986666D01*
%TO.C,R3*%
X117783333Y-67952380D02*
X117450000Y-67476190D01*
X117211904Y-67952380D02*
X117211904Y-66952380D01*
X117592857Y-66952380D01*
X117688095Y-67000000D01*
X117735714Y-67047619D01*
X117783333Y-67142857D01*
X117783333Y-67285714D01*
X117735714Y-67380952D01*
X117688095Y-67428571D01*
X117592857Y-67476190D01*
X117211904Y-67476190D01*
X118116666Y-66952380D02*
X118735714Y-66952380D01*
X118402380Y-67333333D01*
X118545238Y-67333333D01*
X118640476Y-67380952D01*
X118688095Y-67428571D01*
X118735714Y-67523809D01*
X118735714Y-67761904D01*
X118688095Y-67857142D01*
X118640476Y-67904761D01*
X118545238Y-67952380D01*
X118259523Y-67952380D01*
X118164285Y-67904761D01*
X118116666Y-67857142D01*
%TO.C,R2*%
X127883333Y-77102380D02*
X127550000Y-76626190D01*
X127311904Y-77102380D02*
X127311904Y-76102380D01*
X127692857Y-76102380D01*
X127788095Y-76150000D01*
X127835714Y-76197619D01*
X127883333Y-76292857D01*
X127883333Y-76435714D01*
X127835714Y-76530952D01*
X127788095Y-76578571D01*
X127692857Y-76626190D01*
X127311904Y-76626190D01*
X128264285Y-76197619D02*
X128311904Y-76150000D01*
X128407142Y-76102380D01*
X128645238Y-76102380D01*
X128740476Y-76150000D01*
X128788095Y-76197619D01*
X128835714Y-76292857D01*
X128835714Y-76388095D01*
X128788095Y-76530952D01*
X128216666Y-77102380D01*
X128835714Y-77102380D01*
%TO.C,R1*%
X117883333Y-73402380D02*
X117550000Y-72926190D01*
X117311904Y-73402380D02*
X117311904Y-72402380D01*
X117692857Y-72402380D01*
X117788095Y-72450000D01*
X117835714Y-72497619D01*
X117883333Y-72592857D01*
X117883333Y-72735714D01*
X117835714Y-72830952D01*
X117788095Y-72878571D01*
X117692857Y-72926190D01*
X117311904Y-72926190D01*
X118835714Y-73402380D02*
X118264285Y-73402380D01*
X118550000Y-73402380D02*
X118550000Y-72402380D01*
X118454761Y-72545238D01*
X118359523Y-72640476D01*
X118264285Y-72688095D01*
%TO.C,C1*%
X126307142Y-60516666D02*
X126354761Y-60564285D01*
X126402380Y-60707142D01*
X126402380Y-60802380D01*
X126354761Y-60945238D01*
X126259523Y-61040476D01*
X126164285Y-61088095D01*
X125973809Y-61135714D01*
X125830952Y-61135714D01*
X125640476Y-61088095D01*
X125545238Y-61040476D01*
X125450000Y-60945238D01*
X125402380Y-60802380D01*
X125402380Y-60707142D01*
X125450000Y-60564285D01*
X125497619Y-60516666D01*
X126402380Y-59564285D02*
X126402380Y-60135714D01*
X126402380Y-59850000D02*
X125402380Y-59850000D01*
X125545238Y-59945238D01*
X125640476Y-60040476D01*
X125688095Y-60135714D01*
%TO.C,J3*%
X106812380Y-65393333D02*
X107526666Y-65393333D01*
X107669523Y-65440952D01*
X107764761Y-65536190D01*
X107812380Y-65679047D01*
X107812380Y-65774285D01*
X106812380Y-65012380D02*
X106812380Y-64393333D01*
X107193333Y-64726666D01*
X107193333Y-64583809D01*
X107240952Y-64488571D01*
X107288571Y-64440952D01*
X107383809Y-64393333D01*
X107621904Y-64393333D01*
X107717142Y-64440952D01*
X107764761Y-64488571D01*
X107812380Y-64583809D01*
X107812380Y-64869523D01*
X107764761Y-64964761D01*
X107717142Y-65012380D01*
%TO.C,J4*%
X106812380Y-45773333D02*
X107526666Y-45773333D01*
X107669523Y-45820952D01*
X107764761Y-45916190D01*
X107812380Y-46059047D01*
X107812380Y-46154285D01*
X107145714Y-44868571D02*
X107812380Y-44868571D01*
X106764761Y-45106666D02*
X107479047Y-45344761D01*
X107479047Y-44725714D01*
%TO.C,J1*%
X150092380Y-49353333D02*
X150806666Y-49353333D01*
X150949523Y-49400952D01*
X151044761Y-49496190D01*
X151092380Y-49639047D01*
X151092380Y-49734285D01*
X151092380Y-48353333D02*
X151092380Y-48924761D01*
X151092380Y-48639047D02*
X150092380Y-48639047D01*
X150235238Y-48734285D01*
X150330476Y-48829523D01*
X150378095Y-48924761D01*
%TD*%
M02*
