%TF.GenerationSoftware,KiCad,Pcbnew,(5.1.10)-1*%
%TF.CreationDate,2023-03-23T11:32:48+01:00*%
%TF.ProjectId,PCB_BATO,5043425f-4241-4544-9f2e-6b696361645f,rev?*%
%TF.SameCoordinates,Original*%
%TF.FileFunction,Copper,L2,Bot*%
%TF.FilePolarity,Positive*%
%FSLAX46Y46*%
G04 Gerber Fmt 4.6, Leading zero omitted, Abs format (unit mm)*
G04 Created by KiCad (PCBNEW (5.1.10)-1) date 2023-03-23 11:32:48*
%MOMM*%
%LPD*%
G01*
G04 APERTURE LIST*
%TA.AperFunction,ComponentPad*%
%ADD10C,2.600000*%
%TD*%
%TA.AperFunction,ComponentPad*%
%ADD11R,2.600000X2.600000*%
%TD*%
%TA.AperFunction,ComponentPad*%
%ADD12C,1.308000*%
%TD*%
%TA.AperFunction,ComponentPad*%
%ADD13R,1.308000X1.308000*%
%TD*%
%TA.AperFunction,ComponentPad*%
%ADD14C,1.600000*%
%TD*%
%TA.AperFunction,ComponentPad*%
%ADD15C,1.130000*%
%TD*%
%TA.AperFunction,ComponentPad*%
%ADD16R,1.130000X1.130000*%
%TD*%
%TA.AperFunction,ComponentPad*%
%ADD17O,1.600000X1.600000*%
%TD*%
%TA.AperFunction,ViaPad*%
%ADD18C,0.800000*%
%TD*%
%TA.AperFunction,Conductor*%
%ADD19C,0.500000*%
%TD*%
G04 APERTURE END LIST*
D10*
%TO.P,J2,3*%
%TO.N,GND*%
X156800000Y-63540000D03*
%TO.P,J2,2*%
%TO.N,+5V*%
X156800000Y-68620000D03*
D11*
%TO.P,J2,1*%
%TO.N,PWM_2*%
X156800000Y-73700000D03*
%TD*%
D12*
%TO.P,U1,7*%
%TO.N,Net-(U1-Pad7)*%
X124735000Y-51130000D03*
%TO.P,U1,6*%
%TO.N,Vref*%
X124735000Y-53670000D03*
%TO.P,U1,8*%
%TO.N,+5V*%
X124735000Y-48590000D03*
%TO.P,U1,5*%
%TO.N,Vboost*%
X124735000Y-56210000D03*
D13*
%TO.P,U1,1*%
X116865000Y-48590000D03*
D12*
%TO.P,U1,4*%
%TO.N,GND*%
X116865000Y-56210000D03*
%TO.P,U1,2*%
%TO.N,Net-(R4-Pad1)*%
X116865000Y-51130000D03*
%TO.P,U1,3*%
%TO.N,Net-(C1-Pad1)*%
X116865000Y-53670000D03*
%TD*%
D14*
%TO.P,C4,2*%
%TO.N,GND*%
X147300000Y-45300000D03*
%TO.P,C4,1*%
%TO.N,+5V*%
X147300000Y-42800000D03*
%TD*%
%TO.P,C3,2*%
%TO.N,GND*%
X147000000Y-60200000D03*
%TO.P,C3,1*%
%TO.N,+5V*%
X147000000Y-62700000D03*
%TD*%
%TO.P,C2,2*%
%TO.N,GND*%
X130300000Y-54700000D03*
%TO.P,C2,1*%
%TO.N,+5V*%
X130300000Y-52200000D03*
%TD*%
D15*
%TO.P,U3,16*%
%TO.N,+5V*%
X148490000Y-76170000D03*
%TO.P,U3,15*%
%TO.N,PWM_A_2*%
X145950000Y-76170000D03*
%TO.P,U3,14*%
%TO.N,Net-(U3-Pad14)*%
X143410000Y-76170000D03*
%TO.P,U3,13*%
%TO.N,PWM_M_2*%
X140870000Y-76170000D03*
%TO.P,U3,12*%
%TO.N,Net-(U3-Pad12)*%
X138330000Y-76170000D03*
%TO.P,U3,11*%
%TO.N,GND*%
X135790000Y-76170000D03*
%TO.P,U3,10*%
%TO.N,Net-(U1-Pad7)*%
X133250000Y-76170000D03*
%TO.P,U3,9*%
%TO.N,GND*%
X130710000Y-76170000D03*
%TO.P,U3,8*%
X130710000Y-68230000D03*
%TO.P,U3,7*%
X133250000Y-68230000D03*
%TO.P,U3,6*%
X135790000Y-68230000D03*
%TO.P,U3,5*%
%TO.N,Net-(U3-Pad5)*%
X138330000Y-68230000D03*
%TO.P,U3,4*%
%TO.N,Net-(U3-Pad4)*%
X140870000Y-68230000D03*
%TO.P,U3,3*%
%TO.N,PWM_2*%
X143410000Y-68230000D03*
%TO.P,U3,2*%
%TO.N,Net-(U3-Pad2)*%
X145950000Y-68230000D03*
D16*
%TO.P,U3,1*%
%TO.N,Net-(U3-Pad1)*%
X148490000Y-68230000D03*
%TD*%
D15*
%TO.P,U2,16*%
%TO.N,+5V*%
X143170000Y-42410000D03*
%TO.P,U2,15*%
%TO.N,PWM_A_1*%
X143170000Y-44950000D03*
%TO.P,U2,14*%
%TO.N,Net-(U2-Pad14)*%
X143170000Y-47490000D03*
%TO.P,U2,13*%
%TO.N,PWM_M_1*%
X143170000Y-50030000D03*
%TO.P,U2,12*%
%TO.N,Net-(U2-Pad12)*%
X143170000Y-52570000D03*
%TO.P,U2,11*%
%TO.N,GND*%
X143170000Y-55110000D03*
%TO.P,U2,10*%
%TO.N,Net-(U1-Pad7)*%
X143170000Y-57650000D03*
%TO.P,U2,9*%
%TO.N,GND*%
X143170000Y-60190000D03*
%TO.P,U2,8*%
X135230000Y-60190000D03*
%TO.P,U2,7*%
X135230000Y-57650000D03*
%TO.P,U2,6*%
X135230000Y-55110000D03*
%TO.P,U2,5*%
%TO.N,Net-(U2-Pad5)*%
X135230000Y-52570000D03*
%TO.P,U2,4*%
%TO.N,Net-(U2-Pad4)*%
X135230000Y-50030000D03*
%TO.P,U2,3*%
%TO.N,PWM_1*%
X135230000Y-47490000D03*
%TO.P,U2,2*%
%TO.N,Net-(U2-Pad2)*%
X135230000Y-44950000D03*
D16*
%TO.P,U2,1*%
%TO.N,Net-(U2-Pad1)*%
X135230000Y-42410000D03*
%TD*%
D17*
%TO.P,R5,2*%
%TO.N,Net-(R4-Pad1)*%
X115360000Y-42600000D03*
D14*
%TO.P,R5,1*%
%TO.N,Vboost*%
X130600000Y-42600000D03*
%TD*%
D17*
%TO.P,R4,2*%
%TO.N,GND*%
X110700000Y-57440000D03*
D14*
%TO.P,R4,1*%
%TO.N,Net-(R4-Pad1)*%
X110700000Y-42200000D03*
%TD*%
D17*
%TO.P,R3,2*%
%TO.N,SWITCH*%
X110360000Y-65200000D03*
D14*
%TO.P,R3,1*%
%TO.N,Net-(C1-Pad1)*%
X125600000Y-65200000D03*
%TD*%
D17*
%TO.P,R2,2*%
%TO.N,GND*%
X110460000Y-75800000D03*
D14*
%TO.P,R2,1*%
%TO.N,Vref*%
X125700000Y-75800000D03*
%TD*%
D17*
%TO.P,R1,2*%
%TO.N,Vref*%
X125740000Y-70600000D03*
D14*
%TO.P,R1,1*%
%TO.N,+5V*%
X110500000Y-70600000D03*
%TD*%
%TO.P,C1,2*%
%TO.N,GND*%
X130350000Y-59100000D03*
%TO.P,C1,1*%
%TO.N,Net-(C1-Pad1)*%
X130350000Y-61600000D03*
%TD*%
D11*
%TO.P,J3,1*%
%TO.N,PWM_A_1*%
X101100000Y-54900000D03*
D10*
%TO.P,J3,2*%
%TO.N,PWM_A_2*%
X101100000Y-59980000D03*
%TO.P,J3,3*%
%TO.N,PWM_M_1*%
X101100000Y-65060000D03*
%TO.P,J3,4*%
%TO.N,PWM_M_2*%
X101100000Y-70140000D03*
%TO.P,J3,5*%
%TO.N,SWITCH*%
X101100000Y-75220000D03*
%TD*%
D11*
%TO.P,J4,1*%
%TO.N,GND*%
X101100000Y-42900000D03*
D10*
%TO.P,J4,2*%
%TO.N,+5V*%
X101100000Y-47980000D03*
%TD*%
D11*
%TO.P,J1,1*%
%TO.N,PWM_1*%
X156900000Y-54100000D03*
D10*
%TO.P,J1,2*%
%TO.N,+5V*%
X156900000Y-49020000D03*
%TO.P,J1,3*%
%TO.N,GND*%
X156900000Y-43940000D03*
%TD*%
D18*
%TO.N,PWM_A_1*%
X108300000Y-45300000D03*
%TO.N,Net-(C1-Pad1)*%
X119000000Y-58600000D03*
%TD*%
D19*
%TO.N,GND*%
X130710000Y-68230000D02*
X130710000Y-76170000D01*
%TO.N,Vref*%
X125740000Y-75760000D02*
X125700000Y-75800000D01*
X125740000Y-70600000D02*
X125740000Y-75760000D01*
%TO.N,PWM_M_2*%
X139294999Y-77745001D02*
X140870000Y-76170000D01*
X128200000Y-68700000D02*
X128745001Y-69245001D01*
X125200000Y-68700000D02*
X128200000Y-68700000D01*
X120700000Y-73200000D02*
X125200000Y-68700000D01*
X108500000Y-73200000D02*
X120700000Y-73200000D01*
X107150001Y-71850001D02*
X108500000Y-73200000D01*
X102810001Y-71850001D02*
X107150001Y-71850001D01*
X101100000Y-70140000D02*
X102810001Y-71850001D01*
X139294999Y-77745001D02*
X129745001Y-77745001D01*
X128745001Y-76745001D02*
X128745001Y-69245001D01*
X129745001Y-77745001D02*
X128745001Y-76745001D01*
%TO.N,PWM_M_1*%
X137074999Y-56125001D02*
X143170000Y-50030000D01*
X134774999Y-56125001D02*
X137074999Y-56125001D01*
X133585999Y-57314001D02*
X134774999Y-56125001D01*
X116395997Y-57314001D02*
X133585999Y-57314001D01*
X108649998Y-65060000D02*
X116395997Y-57314001D01*
X101100000Y-65060000D02*
X108649998Y-65060000D01*
%TO.N,PWM_A_1*%
X142154999Y-43934999D02*
X143170000Y-44950000D01*
X109665001Y-43934999D02*
X142154999Y-43934999D01*
X108300000Y-45300000D02*
X109665001Y-43934999D01*
%TO.N,+5V*%
X101100000Y-47980000D02*
X106500000Y-53380000D01*
X150680000Y-42800000D02*
X156900000Y-49020000D01*
X147300000Y-42800000D02*
X150680000Y-42800000D01*
X147000000Y-62700000D02*
X153400000Y-56300000D01*
X153400000Y-52520000D02*
X156900000Y-49020000D01*
X153400000Y-56300000D02*
X153400000Y-52520000D01*
X152920000Y-68620000D02*
X147000000Y-62700000D01*
X156800000Y-68620000D02*
X152920000Y-68620000D01*
X148490000Y-73050000D02*
X152920000Y-68620000D01*
X148490000Y-76170000D02*
X148490000Y-73050000D01*
X128345000Y-52200000D02*
X124735000Y-48590000D01*
X130300000Y-52200000D02*
X128345000Y-52200000D01*
X146910000Y-42410000D02*
X147300000Y-42800000D01*
X106500000Y-53380000D02*
X114320000Y-53380000D01*
X114320000Y-53380000D02*
X115134001Y-52565999D01*
X124510000Y-48590000D02*
X124735000Y-48590000D01*
X120925000Y-52400000D02*
X124735000Y-48590000D01*
X115134001Y-52400000D02*
X120925000Y-52400000D01*
X144810000Y-44812202D02*
X144810000Y-42410000D01*
X143522202Y-46100000D02*
X144810000Y-44812202D01*
X134400000Y-46100000D02*
X143522202Y-46100000D01*
X144810000Y-42410000D02*
X146910000Y-42410000D01*
X143170000Y-42410000D02*
X144810000Y-42410000D01*
X130300000Y-50200000D02*
X133900000Y-46600000D01*
X130300000Y-52200000D02*
X130300000Y-50200000D01*
X133900000Y-46600000D02*
X134400000Y-46100000D01*
X133500000Y-47000000D02*
X133900000Y-46600000D01*
X110500000Y-70600000D02*
X106400000Y-70600000D01*
X106400000Y-70600000D02*
X103400000Y-67600000D01*
X103400000Y-67600000D02*
X98700000Y-67600000D01*
X98700000Y-67600000D02*
X97800000Y-66700000D01*
X97800000Y-51280000D02*
X101100000Y-47980000D01*
X97800000Y-66700000D02*
X97800000Y-51280000D01*
%TO.N,Net-(C1-Pad1)*%
X125600000Y-65200000D02*
X119000000Y-58600000D01*
X119000000Y-58600000D02*
X119000000Y-58600000D01*
%TD*%
M02*
