%TF.GenerationSoftware,KiCad,Pcbnew,(5.1.10)-1*%
%TF.CreationDate,2023-03-23T11:32:48+01:00*%
%TF.ProjectId,PCB_BATO,5043425f-4241-4544-9f2e-6b696361645f,rev?*%
%TF.SameCoordinates,Original*%
%TF.FileFunction,Soldermask,Bot*%
%TF.FilePolarity,Negative*%
%FSLAX46Y46*%
G04 Gerber Fmt 4.6, Leading zero omitted, Abs format (unit mm)*
G04 Created by KiCad (PCBNEW (5.1.10)-1) date 2023-03-23 11:32:48*
%MOMM*%
%LPD*%
G01*
G04 APERTURE LIST*
%ADD10C,2.600000*%
%ADD11R,2.600000X2.600000*%
%ADD12C,1.308000*%
%ADD13R,1.308000X1.308000*%
%ADD14C,1.600000*%
%ADD15C,1.130000*%
%ADD16R,1.130000X1.130000*%
%ADD17O,1.600000X1.600000*%
G04 APERTURE END LIST*
D10*
%TO.C,J2*%
X156800000Y-63540000D03*
X156800000Y-68620000D03*
D11*
X156800000Y-73700000D03*
%TD*%
D12*
%TO.C,U1*%
X124735000Y-51130000D03*
X124735000Y-53670000D03*
X124735000Y-48590000D03*
X124735000Y-56210000D03*
D13*
X116865000Y-48590000D03*
D12*
X116865000Y-56210000D03*
X116865000Y-51130000D03*
X116865000Y-53670000D03*
%TD*%
D14*
%TO.C,C4*%
X147300000Y-45300000D03*
X147300000Y-42800000D03*
%TD*%
%TO.C,C3*%
X147000000Y-60200000D03*
X147000000Y-62700000D03*
%TD*%
%TO.C,C2*%
X130300000Y-54700000D03*
X130300000Y-52200000D03*
%TD*%
D15*
%TO.C,U3*%
X148490000Y-76170000D03*
X145950000Y-76170000D03*
X143410000Y-76170000D03*
X140870000Y-76170000D03*
X138330000Y-76170000D03*
X135790000Y-76170000D03*
X133250000Y-76170000D03*
X130710000Y-76170000D03*
X130710000Y-68230000D03*
X133250000Y-68230000D03*
X135790000Y-68230000D03*
X138330000Y-68230000D03*
X140870000Y-68230000D03*
X143410000Y-68230000D03*
X145950000Y-68230000D03*
D16*
X148490000Y-68230000D03*
%TD*%
D15*
%TO.C,U2*%
X143170000Y-42410000D03*
X143170000Y-44950000D03*
X143170000Y-47490000D03*
X143170000Y-50030000D03*
X143170000Y-52570000D03*
X143170000Y-55110000D03*
X143170000Y-57650000D03*
X143170000Y-60190000D03*
X135230000Y-60190000D03*
X135230000Y-57650000D03*
X135230000Y-55110000D03*
X135230000Y-52570000D03*
X135230000Y-50030000D03*
X135230000Y-47490000D03*
X135230000Y-44950000D03*
D16*
X135230000Y-42410000D03*
%TD*%
D17*
%TO.C,R5*%
X115360000Y-42600000D03*
D14*
X130600000Y-42600000D03*
%TD*%
D17*
%TO.C,R4*%
X110700000Y-57440000D03*
D14*
X110700000Y-42200000D03*
%TD*%
D17*
%TO.C,R3*%
X110360000Y-65200000D03*
D14*
X125600000Y-65200000D03*
%TD*%
D17*
%TO.C,R2*%
X110460000Y-75800000D03*
D14*
X125700000Y-75800000D03*
%TD*%
D17*
%TO.C,R1*%
X125740000Y-70600000D03*
D14*
X110500000Y-70600000D03*
%TD*%
%TO.C,C1*%
X130350000Y-59100000D03*
X130350000Y-61600000D03*
%TD*%
D11*
%TO.C,J3*%
X101100000Y-54900000D03*
D10*
X101100000Y-59980000D03*
X101100000Y-65060000D03*
X101100000Y-70140000D03*
X101100000Y-75220000D03*
%TD*%
D11*
%TO.C,J4*%
X101100000Y-42900000D03*
D10*
X101100000Y-47980000D03*
%TD*%
D11*
%TO.C,J1*%
X156900000Y-54100000D03*
D10*
X156900000Y-49020000D03*
X156900000Y-43940000D03*
%TD*%
M02*
