%TF.GenerationSoftware,KiCad,Pcbnew,(5.1.10)-1*%
%TF.CreationDate,2023-03-23T11:32:48+01:00*%
%TF.ProjectId,PCB_BATO,5043425f-4241-4544-9f2e-6b696361645f,rev?*%
%TF.SameCoordinates,Original*%
%TF.FileFunction,Copper,L1,Top*%
%TF.FilePolarity,Positive*%
%FSLAX46Y46*%
G04 Gerber Fmt 4.6, Leading zero omitted, Abs format (unit mm)*
G04 Created by KiCad (PCBNEW (5.1.10)-1) date 2023-03-23 11:32:48*
%MOMM*%
%LPD*%
G01*
G04 APERTURE LIST*
%TA.AperFunction,ComponentPad*%
%ADD10C,2.600000*%
%TD*%
%TA.AperFunction,ComponentPad*%
%ADD11R,2.600000X2.600000*%
%TD*%
%TA.AperFunction,ComponentPad*%
%ADD12C,1.308000*%
%TD*%
%TA.AperFunction,ComponentPad*%
%ADD13R,1.308000X1.308000*%
%TD*%
%TA.AperFunction,ComponentPad*%
%ADD14C,1.600000*%
%TD*%
%TA.AperFunction,ComponentPad*%
%ADD15C,1.130000*%
%TD*%
%TA.AperFunction,ComponentPad*%
%ADD16R,1.130000X1.130000*%
%TD*%
%TA.AperFunction,ComponentPad*%
%ADD17O,1.600000X1.600000*%
%TD*%
%TA.AperFunction,ViaPad*%
%ADD18C,0.800000*%
%TD*%
%TA.AperFunction,Conductor*%
%ADD19C,0.500000*%
%TD*%
%TA.AperFunction,Conductor*%
%ADD20C,0.254000*%
%TD*%
%TA.AperFunction,Conductor*%
%ADD21C,0.100000*%
%TD*%
G04 APERTURE END LIST*
D10*
%TO.P,J2,3*%
%TO.N,GND*%
X156800000Y-63540000D03*
%TO.P,J2,2*%
%TO.N,+5V*%
X156800000Y-68620000D03*
D11*
%TO.P,J2,1*%
%TO.N,PWM_2*%
X156800000Y-73700000D03*
%TD*%
D12*
%TO.P,U1,7*%
%TO.N,Net-(U1-Pad7)*%
X124735000Y-51130000D03*
%TO.P,U1,6*%
%TO.N,Vref*%
X124735000Y-53670000D03*
%TO.P,U1,8*%
%TO.N,+5V*%
X124735000Y-48590000D03*
%TO.P,U1,5*%
%TO.N,Vboost*%
X124735000Y-56210000D03*
D13*
%TO.P,U1,1*%
X116865000Y-48590000D03*
D12*
%TO.P,U1,4*%
%TO.N,GND*%
X116865000Y-56210000D03*
%TO.P,U1,2*%
%TO.N,Net-(R4-Pad1)*%
X116865000Y-51130000D03*
%TO.P,U1,3*%
%TO.N,Net-(C1-Pad1)*%
X116865000Y-53670000D03*
%TD*%
D14*
%TO.P,C4,2*%
%TO.N,GND*%
X147300000Y-45300000D03*
%TO.P,C4,1*%
%TO.N,+5V*%
X147300000Y-42800000D03*
%TD*%
%TO.P,C3,2*%
%TO.N,GND*%
X147000000Y-60200000D03*
%TO.P,C3,1*%
%TO.N,+5V*%
X147000000Y-62700000D03*
%TD*%
%TO.P,C2,2*%
%TO.N,GND*%
X130300000Y-54700000D03*
%TO.P,C2,1*%
%TO.N,+5V*%
X130300000Y-52200000D03*
%TD*%
D15*
%TO.P,U3,16*%
%TO.N,+5V*%
X148490000Y-76170000D03*
%TO.P,U3,15*%
%TO.N,PWM_A_2*%
X145950000Y-76170000D03*
%TO.P,U3,14*%
%TO.N,Net-(U3-Pad14)*%
X143410000Y-76170000D03*
%TO.P,U3,13*%
%TO.N,PWM_M_2*%
X140870000Y-76170000D03*
%TO.P,U3,12*%
%TO.N,Net-(U3-Pad12)*%
X138330000Y-76170000D03*
%TO.P,U3,11*%
%TO.N,GND*%
X135790000Y-76170000D03*
%TO.P,U3,10*%
%TO.N,Net-(U1-Pad7)*%
X133250000Y-76170000D03*
%TO.P,U3,9*%
%TO.N,GND*%
X130710000Y-76170000D03*
%TO.P,U3,8*%
X130710000Y-68230000D03*
%TO.P,U3,7*%
X133250000Y-68230000D03*
%TO.P,U3,6*%
X135790000Y-68230000D03*
%TO.P,U3,5*%
%TO.N,Net-(U3-Pad5)*%
X138330000Y-68230000D03*
%TO.P,U3,4*%
%TO.N,Net-(U3-Pad4)*%
X140870000Y-68230000D03*
%TO.P,U3,3*%
%TO.N,PWM_2*%
X143410000Y-68230000D03*
%TO.P,U3,2*%
%TO.N,Net-(U3-Pad2)*%
X145950000Y-68230000D03*
D16*
%TO.P,U3,1*%
%TO.N,Net-(U3-Pad1)*%
X148490000Y-68230000D03*
%TD*%
D15*
%TO.P,U2,16*%
%TO.N,+5V*%
X143170000Y-42410000D03*
%TO.P,U2,15*%
%TO.N,PWM_A_1*%
X143170000Y-44950000D03*
%TO.P,U2,14*%
%TO.N,Net-(U2-Pad14)*%
X143170000Y-47490000D03*
%TO.P,U2,13*%
%TO.N,PWM_M_1*%
X143170000Y-50030000D03*
%TO.P,U2,12*%
%TO.N,Net-(U2-Pad12)*%
X143170000Y-52570000D03*
%TO.P,U2,11*%
%TO.N,GND*%
X143170000Y-55110000D03*
%TO.P,U2,10*%
%TO.N,Net-(U1-Pad7)*%
X143170000Y-57650000D03*
%TO.P,U2,9*%
%TO.N,GND*%
X143170000Y-60190000D03*
%TO.P,U2,8*%
X135230000Y-60190000D03*
%TO.P,U2,7*%
X135230000Y-57650000D03*
%TO.P,U2,6*%
X135230000Y-55110000D03*
%TO.P,U2,5*%
%TO.N,Net-(U2-Pad5)*%
X135230000Y-52570000D03*
%TO.P,U2,4*%
%TO.N,Net-(U2-Pad4)*%
X135230000Y-50030000D03*
%TO.P,U2,3*%
%TO.N,PWM_1*%
X135230000Y-47490000D03*
%TO.P,U2,2*%
%TO.N,Net-(U2-Pad2)*%
X135230000Y-44950000D03*
D16*
%TO.P,U2,1*%
%TO.N,Net-(U2-Pad1)*%
X135230000Y-42410000D03*
%TD*%
D17*
%TO.P,R5,2*%
%TO.N,Net-(R4-Pad1)*%
X115360000Y-42600000D03*
D14*
%TO.P,R5,1*%
%TO.N,Vboost*%
X130600000Y-42600000D03*
%TD*%
D17*
%TO.P,R4,2*%
%TO.N,GND*%
X110700000Y-57440000D03*
D14*
%TO.P,R4,1*%
%TO.N,Net-(R4-Pad1)*%
X110700000Y-42200000D03*
%TD*%
D17*
%TO.P,R3,2*%
%TO.N,SWITCH*%
X110360000Y-65200000D03*
D14*
%TO.P,R3,1*%
%TO.N,Net-(C1-Pad1)*%
X125600000Y-65200000D03*
%TD*%
D17*
%TO.P,R2,2*%
%TO.N,GND*%
X110460000Y-75800000D03*
D14*
%TO.P,R2,1*%
%TO.N,Vref*%
X125700000Y-75800000D03*
%TD*%
D17*
%TO.P,R1,2*%
%TO.N,Vref*%
X125740000Y-70600000D03*
D14*
%TO.P,R1,1*%
%TO.N,+5V*%
X110500000Y-70600000D03*
%TD*%
%TO.P,C1,2*%
%TO.N,GND*%
X130350000Y-59100000D03*
%TO.P,C1,1*%
%TO.N,Net-(C1-Pad1)*%
X130350000Y-61600000D03*
%TD*%
D11*
%TO.P,J3,1*%
%TO.N,PWM_A_1*%
X101100000Y-54900000D03*
D10*
%TO.P,J3,2*%
%TO.N,PWM_A_2*%
X101100000Y-59980000D03*
%TO.P,J3,3*%
%TO.N,PWM_M_1*%
X101100000Y-65060000D03*
%TO.P,J3,4*%
%TO.N,PWM_M_2*%
X101100000Y-70140000D03*
%TO.P,J3,5*%
%TO.N,SWITCH*%
X101100000Y-75220000D03*
%TD*%
D11*
%TO.P,J4,1*%
%TO.N,GND*%
X101100000Y-42900000D03*
D10*
%TO.P,J4,2*%
%TO.N,+5V*%
X101100000Y-47980000D03*
%TD*%
D11*
%TO.P,J1,1*%
%TO.N,PWM_1*%
X156900000Y-54100000D03*
D10*
%TO.P,J1,2*%
%TO.N,+5V*%
X156900000Y-49020000D03*
%TO.P,J1,3*%
%TO.N,GND*%
X156900000Y-43940000D03*
%TD*%
D18*
%TO.N,PWM_A_1*%
X108300000Y-45300000D03*
%TO.N,Net-(C1-Pad1)*%
X119000000Y-58600000D03*
%TD*%
D19*
%TO.N,GND*%
X134774999Y-75154999D02*
X135790000Y-76170000D01*
X131725001Y-75154999D02*
X134774999Y-75154999D01*
X130710000Y-76170000D02*
X131725001Y-75154999D01*
%TO.N,Vref*%
X125740000Y-75760000D02*
X125700000Y-75800000D01*
X125740000Y-70600000D02*
X122500000Y-67360000D01*
X122500000Y-67360000D02*
X122500000Y-61400000D01*
X125839001Y-54774001D02*
X124735000Y-53670000D01*
X125839001Y-58060999D02*
X125839001Y-54774001D01*
X122500000Y-61400000D02*
X125839001Y-58060999D01*
%TO.N,PWM_A_2*%
X143180000Y-73400000D02*
X145950000Y-76170000D01*
X125400000Y-73400000D02*
X143180000Y-73400000D01*
X111980000Y-59980000D02*
X125400000Y-73400000D01*
X101100000Y-59980000D02*
X111980000Y-59980000D01*
%TO.N,PWM_A_1*%
X101100000Y-54900000D02*
X101100000Y-52500000D01*
X101100000Y-52500000D02*
X108300000Y-45300000D01*
X108300000Y-45300000D02*
X108300000Y-45300000D01*
%TO.N,PWM_2*%
X143410000Y-68230000D02*
X145440000Y-66200000D01*
X149300000Y-66200000D02*
X156800000Y-73700000D01*
X145440000Y-66200000D02*
X149300000Y-66200000D01*
%TO.N,PWM_1*%
X135230000Y-47490000D02*
X139890000Y-47490000D01*
X139890000Y-47490000D02*
X141200000Y-48800000D01*
X151600000Y-48800000D02*
X156900000Y-54100000D01*
X141200000Y-48800000D02*
X151600000Y-48800000D01*
%TO.N,Net-(R4-Pad1)*%
X114960000Y-42200000D02*
X115360000Y-42600000D01*
X110700000Y-42200000D02*
X114960000Y-42200000D01*
X115360000Y-49625000D02*
X116865000Y-51130000D01*
X115360000Y-42600000D02*
X115360000Y-49625000D01*
%TO.N,Vboost*%
X117115000Y-48590000D02*
X124735000Y-56210000D01*
X116865000Y-48590000D02*
X117115000Y-48590000D01*
X122855000Y-42600000D02*
X130600000Y-42600000D01*
X116865000Y-48590000D02*
X122855000Y-42600000D01*
%TO.N,Net-(U1-Pad7)*%
X125565000Y-50300000D02*
X124735000Y-51130000D01*
X131457798Y-50300000D02*
X125565000Y-50300000D01*
X134957798Y-53800000D02*
X131457798Y-50300000D01*
X137300000Y-53800000D02*
X134957798Y-53800000D01*
X141150000Y-57650000D02*
X137300000Y-53800000D01*
X133250000Y-76170000D02*
X134480000Y-77400000D01*
X146732200Y-77400000D02*
X147000000Y-77132200D01*
X134480000Y-77400000D02*
X146732200Y-77400000D01*
X147000000Y-77132200D02*
X147000000Y-75300000D01*
X141885001Y-58085001D02*
X141450000Y-57650000D01*
X141885001Y-70185001D02*
X141885001Y-58085001D01*
X147000000Y-75300000D02*
X141885001Y-70185001D01*
X141450000Y-57650000D02*
X141150000Y-57650000D01*
X143170000Y-57650000D02*
X141450000Y-57650000D01*
%TO.N,Net-(C1-Pad1)*%
X126750000Y-65200000D02*
X130350000Y-61600000D01*
X125600000Y-65200000D02*
X126750000Y-65200000D01*
X119000000Y-55805000D02*
X116865000Y-53670000D01*
X119000000Y-58600000D02*
X119000000Y-55805000D01*
%TO.N,SWITCH*%
X110360000Y-65960000D02*
X110360000Y-65200000D01*
X101100000Y-75220000D02*
X110360000Y-65960000D01*
%TD*%
D20*
%TO.N,GND*%
X163340001Y-77967572D02*
X163340000Y-77967582D01*
X163340000Y-78340000D01*
X94660000Y-78340000D01*
X94660000Y-75029419D01*
X99165000Y-75029419D01*
X99165000Y-75410581D01*
X99239361Y-75784419D01*
X99385225Y-76136566D01*
X99596987Y-76453491D01*
X99866509Y-76723013D01*
X100183434Y-76934775D01*
X100535581Y-77080639D01*
X100909419Y-77155000D01*
X101290581Y-77155000D01*
X101664419Y-77080639D01*
X102016566Y-76934775D01*
X102333491Y-76723013D01*
X102603013Y-76453491D01*
X102806440Y-76149039D01*
X109068096Y-76149039D01*
X109108754Y-76283087D01*
X109228963Y-76537420D01*
X109396481Y-76763414D01*
X109604869Y-76952385D01*
X109846119Y-77097070D01*
X110110960Y-77191909D01*
X110333000Y-77070624D01*
X110333000Y-75927000D01*
X110587000Y-75927000D01*
X110587000Y-77070624D01*
X110809040Y-77191909D01*
X111073881Y-77097070D01*
X111315131Y-76952385D01*
X111523519Y-76763414D01*
X111691037Y-76537420D01*
X111811246Y-76283087D01*
X111851904Y-76149039D01*
X111729915Y-75927000D01*
X110587000Y-75927000D01*
X110333000Y-75927000D01*
X109190085Y-75927000D01*
X109068096Y-76149039D01*
X102806440Y-76149039D01*
X102814775Y-76136566D01*
X102960639Y-75784419D01*
X103026967Y-75450961D01*
X109068096Y-75450961D01*
X109190085Y-75673000D01*
X110333000Y-75673000D01*
X110333000Y-74529376D01*
X110587000Y-74529376D01*
X110587000Y-75673000D01*
X111729915Y-75673000D01*
X111737790Y-75658665D01*
X124265000Y-75658665D01*
X124265000Y-75941335D01*
X124320147Y-76218574D01*
X124428320Y-76479727D01*
X124585363Y-76714759D01*
X124785241Y-76914637D01*
X125020273Y-77071680D01*
X125281426Y-77179853D01*
X125558665Y-77235000D01*
X125841335Y-77235000D01*
X126118574Y-77179853D01*
X126379727Y-77071680D01*
X126494912Y-76994716D01*
X130064889Y-76994716D01*
X130107933Y-77214740D01*
X130323320Y-77312123D01*
X130553567Y-77365615D01*
X130789826Y-77373160D01*
X131023017Y-77334468D01*
X131244179Y-77251027D01*
X131312067Y-77214740D01*
X131355111Y-76994716D01*
X130710000Y-76349605D01*
X130064889Y-76994716D01*
X126494912Y-76994716D01*
X126614759Y-76914637D01*
X126814637Y-76714759D01*
X126971680Y-76479727D01*
X127066908Y-76249826D01*
X129506840Y-76249826D01*
X129545532Y-76483017D01*
X129628973Y-76704179D01*
X129665260Y-76772067D01*
X129885284Y-76815111D01*
X130530395Y-76170000D01*
X130889605Y-76170000D01*
X131534716Y-76815111D01*
X131754740Y-76772067D01*
X131852123Y-76556680D01*
X131905615Y-76326433D01*
X131913160Y-76090174D01*
X131874468Y-75856983D01*
X131791027Y-75635821D01*
X131754740Y-75567933D01*
X131534716Y-75524889D01*
X130889605Y-76170000D01*
X130530395Y-76170000D01*
X129885284Y-75524889D01*
X129665260Y-75567933D01*
X129567877Y-75783320D01*
X129514385Y-76013567D01*
X129506840Y-76249826D01*
X127066908Y-76249826D01*
X127079853Y-76218574D01*
X127135000Y-75941335D01*
X127135000Y-75658665D01*
X127079853Y-75381426D01*
X127064883Y-75345284D01*
X130064889Y-75345284D01*
X130710000Y-75990395D01*
X131355111Y-75345284D01*
X131312067Y-75125260D01*
X131096680Y-75027877D01*
X130866433Y-74974385D01*
X130630174Y-74966840D01*
X130396983Y-75005532D01*
X130175821Y-75088973D01*
X130107933Y-75125260D01*
X130064889Y-75345284D01*
X127064883Y-75345284D01*
X126971680Y-75120273D01*
X126814637Y-74885241D01*
X126614759Y-74685363D01*
X126379727Y-74528320D01*
X126118574Y-74420147D01*
X125841335Y-74365000D01*
X125558665Y-74365000D01*
X125281426Y-74420147D01*
X125020273Y-74528320D01*
X124785241Y-74685363D01*
X124585363Y-74885241D01*
X124428320Y-75120273D01*
X124320147Y-75381426D01*
X124265000Y-75658665D01*
X111737790Y-75658665D01*
X111851904Y-75450961D01*
X111811246Y-75316913D01*
X111691037Y-75062580D01*
X111523519Y-74836586D01*
X111315131Y-74647615D01*
X111073881Y-74502930D01*
X110809040Y-74408091D01*
X110587000Y-74529376D01*
X110333000Y-74529376D01*
X110110960Y-74408091D01*
X109846119Y-74502930D01*
X109604869Y-74647615D01*
X109396481Y-74836586D01*
X109228963Y-75062580D01*
X109108754Y-75316913D01*
X109068096Y-75450961D01*
X103026967Y-75450961D01*
X103035000Y-75410581D01*
X103035000Y-75029419D01*
X102960639Y-74655581D01*
X102947564Y-74624014D01*
X107112913Y-70458665D01*
X109065000Y-70458665D01*
X109065000Y-70741335D01*
X109120147Y-71018574D01*
X109228320Y-71279727D01*
X109385363Y-71514759D01*
X109585241Y-71714637D01*
X109820273Y-71871680D01*
X110081426Y-71979853D01*
X110358665Y-72035000D01*
X110641335Y-72035000D01*
X110918574Y-71979853D01*
X111179727Y-71871680D01*
X111414759Y-71714637D01*
X111614637Y-71514759D01*
X111771680Y-71279727D01*
X111879853Y-71018574D01*
X111935000Y-70741335D01*
X111935000Y-70458665D01*
X111879853Y-70181426D01*
X111771680Y-69920273D01*
X111614637Y-69685241D01*
X111414759Y-69485363D01*
X111179727Y-69328320D01*
X110918574Y-69220147D01*
X110641335Y-69165000D01*
X110358665Y-69165000D01*
X110081426Y-69220147D01*
X109820273Y-69328320D01*
X109585241Y-69485363D01*
X109385363Y-69685241D01*
X109228320Y-69920273D01*
X109120147Y-70181426D01*
X109065000Y-70458665D01*
X107112913Y-70458665D01*
X110955051Y-66616528D01*
X110988817Y-66588817D01*
X111099411Y-66454059D01*
X111117918Y-66419435D01*
X111274759Y-66314637D01*
X111474637Y-66114759D01*
X111631680Y-65879727D01*
X111739853Y-65618574D01*
X111795000Y-65341335D01*
X111795000Y-65058665D01*
X111739853Y-64781426D01*
X111631680Y-64520273D01*
X111474637Y-64285241D01*
X111274759Y-64085363D01*
X111039727Y-63928320D01*
X110778574Y-63820147D01*
X110501335Y-63765000D01*
X110218665Y-63765000D01*
X109941426Y-63820147D01*
X109680273Y-63928320D01*
X109445241Y-64085363D01*
X109245363Y-64285241D01*
X109088320Y-64520273D01*
X108980147Y-64781426D01*
X108925000Y-65058665D01*
X108925000Y-65341335D01*
X108980147Y-65618574D01*
X109088320Y-65879727D01*
X109128524Y-65939897D01*
X101695986Y-73372436D01*
X101664419Y-73359361D01*
X101290581Y-73285000D01*
X100909419Y-73285000D01*
X100535581Y-73359361D01*
X100183434Y-73505225D01*
X99866509Y-73716987D01*
X99596987Y-73986509D01*
X99385225Y-74303434D01*
X99239361Y-74655581D01*
X99165000Y-75029419D01*
X94660000Y-75029419D01*
X94660000Y-69949419D01*
X99165000Y-69949419D01*
X99165000Y-70330581D01*
X99239361Y-70704419D01*
X99385225Y-71056566D01*
X99596987Y-71373491D01*
X99866509Y-71643013D01*
X100183434Y-71854775D01*
X100535581Y-72000639D01*
X100909419Y-72075000D01*
X101290581Y-72075000D01*
X101664419Y-72000639D01*
X102016566Y-71854775D01*
X102333491Y-71643013D01*
X102603013Y-71373491D01*
X102814775Y-71056566D01*
X102960639Y-70704419D01*
X103035000Y-70330581D01*
X103035000Y-69949419D01*
X102960639Y-69575581D01*
X102814775Y-69223434D01*
X102603013Y-68906509D01*
X102333491Y-68636987D01*
X102016566Y-68425225D01*
X101664419Y-68279361D01*
X101290581Y-68205000D01*
X100909419Y-68205000D01*
X100535581Y-68279361D01*
X100183434Y-68425225D01*
X99866509Y-68636987D01*
X99596987Y-68906509D01*
X99385225Y-69223434D01*
X99239361Y-69575581D01*
X99165000Y-69949419D01*
X94660000Y-69949419D01*
X94660000Y-64869419D01*
X99165000Y-64869419D01*
X99165000Y-65250581D01*
X99239361Y-65624419D01*
X99385225Y-65976566D01*
X99596987Y-66293491D01*
X99866509Y-66563013D01*
X100183434Y-66774775D01*
X100535581Y-66920639D01*
X100909419Y-66995000D01*
X101290581Y-66995000D01*
X101664419Y-66920639D01*
X102016566Y-66774775D01*
X102333491Y-66563013D01*
X102603013Y-66293491D01*
X102814775Y-65976566D01*
X102960639Y-65624419D01*
X103035000Y-65250581D01*
X103035000Y-64869419D01*
X102960639Y-64495581D01*
X102814775Y-64143434D01*
X102603013Y-63826509D01*
X102333491Y-63556987D01*
X102016566Y-63345225D01*
X101664419Y-63199361D01*
X101290581Y-63125000D01*
X100909419Y-63125000D01*
X100535581Y-63199361D01*
X100183434Y-63345225D01*
X99866509Y-63556987D01*
X99596987Y-63826509D01*
X99385225Y-64143434D01*
X99239361Y-64495581D01*
X99165000Y-64869419D01*
X94660000Y-64869419D01*
X94660000Y-59789419D01*
X99165000Y-59789419D01*
X99165000Y-60170581D01*
X99239361Y-60544419D01*
X99385225Y-60896566D01*
X99596987Y-61213491D01*
X99866509Y-61483013D01*
X100183434Y-61694775D01*
X100535581Y-61840639D01*
X100909419Y-61915000D01*
X101290581Y-61915000D01*
X101664419Y-61840639D01*
X102016566Y-61694775D01*
X102333491Y-61483013D01*
X102603013Y-61213491D01*
X102814775Y-60896566D01*
X102827850Y-60865000D01*
X111613422Y-60865000D01*
X124743470Y-73995049D01*
X124771183Y-74028817D01*
X124804951Y-74056530D01*
X124804953Y-74056532D01*
X124876452Y-74115210D01*
X124905941Y-74139411D01*
X125059687Y-74221589D01*
X125226510Y-74272195D01*
X125356523Y-74285000D01*
X125356533Y-74285000D01*
X125399999Y-74289281D01*
X125443466Y-74285000D01*
X142813422Y-74285000D01*
X143498422Y-74970000D01*
X143291810Y-74970000D01*
X143059973Y-75016116D01*
X142841587Y-75106574D01*
X142645045Y-75237899D01*
X142477899Y-75405045D01*
X142346574Y-75601587D01*
X142256116Y-75819973D01*
X142210000Y-76051810D01*
X142210000Y-76288190D01*
X142255116Y-76515000D01*
X142024884Y-76515000D01*
X142070000Y-76288190D01*
X142070000Y-76051810D01*
X142023884Y-75819973D01*
X141933426Y-75601587D01*
X141802101Y-75405045D01*
X141634955Y-75237899D01*
X141438413Y-75106574D01*
X141220027Y-75016116D01*
X140988190Y-74970000D01*
X140751810Y-74970000D01*
X140519973Y-75016116D01*
X140301587Y-75106574D01*
X140105045Y-75237899D01*
X139937899Y-75405045D01*
X139806574Y-75601587D01*
X139716116Y-75819973D01*
X139670000Y-76051810D01*
X139670000Y-76288190D01*
X139715116Y-76515000D01*
X139484884Y-76515000D01*
X139530000Y-76288190D01*
X139530000Y-76051810D01*
X139483884Y-75819973D01*
X139393426Y-75601587D01*
X139262101Y-75405045D01*
X139094955Y-75237899D01*
X138898413Y-75106574D01*
X138680027Y-75016116D01*
X138448190Y-74970000D01*
X138211810Y-74970000D01*
X137979973Y-75016116D01*
X137761587Y-75106574D01*
X137565045Y-75237899D01*
X137397899Y-75405045D01*
X137266574Y-75601587D01*
X137176116Y-75819973D01*
X137130000Y-76051810D01*
X137130000Y-76288190D01*
X137175116Y-76515000D01*
X136941806Y-76515000D01*
X136985615Y-76326433D01*
X136993160Y-76090174D01*
X136954468Y-75856983D01*
X136871027Y-75635821D01*
X136834740Y-75567933D01*
X136614716Y-75524889D01*
X135969605Y-76170000D01*
X135983748Y-76184143D01*
X135804143Y-76363748D01*
X135790000Y-76349605D01*
X135775858Y-76363748D01*
X135596253Y-76184143D01*
X135610395Y-76170000D01*
X134965284Y-75524889D01*
X134745260Y-75567933D01*
X134647877Y-75783320D01*
X134594385Y-76013567D01*
X134586840Y-76249826D01*
X134587921Y-76256343D01*
X134450000Y-76118422D01*
X134450000Y-76051810D01*
X134403884Y-75819973D01*
X134313426Y-75601587D01*
X134182101Y-75405045D01*
X134122340Y-75345284D01*
X135144889Y-75345284D01*
X135790000Y-75990395D01*
X136435111Y-75345284D01*
X136392067Y-75125260D01*
X136176680Y-75027877D01*
X135946433Y-74974385D01*
X135710174Y-74966840D01*
X135476983Y-75005532D01*
X135255821Y-75088973D01*
X135187933Y-75125260D01*
X135144889Y-75345284D01*
X134122340Y-75345284D01*
X134014955Y-75237899D01*
X133818413Y-75106574D01*
X133600027Y-75016116D01*
X133368190Y-74970000D01*
X133131810Y-74970000D01*
X132899973Y-75016116D01*
X132681587Y-75106574D01*
X132485045Y-75237899D01*
X132317899Y-75405045D01*
X132186574Y-75601587D01*
X132096116Y-75819973D01*
X132050000Y-76051810D01*
X132050000Y-76288190D01*
X132096116Y-76520027D01*
X132186574Y-76738413D01*
X132317899Y-76934955D01*
X132485045Y-77102101D01*
X132681587Y-77233426D01*
X132899973Y-77323884D01*
X133131810Y-77370000D01*
X133198422Y-77370000D01*
X133823470Y-77995049D01*
X133851183Y-78028817D01*
X133884951Y-78056530D01*
X133884953Y-78056532D01*
X133985941Y-78139411D01*
X134139686Y-78221589D01*
X134306510Y-78272195D01*
X134436523Y-78285000D01*
X134436531Y-78285000D01*
X134480000Y-78289281D01*
X134523469Y-78285000D01*
X146688731Y-78285000D01*
X146732200Y-78289281D01*
X146775669Y-78285000D01*
X146775677Y-78285000D01*
X146905690Y-78272195D01*
X147072513Y-78221589D01*
X147226259Y-78139411D01*
X147361017Y-78028817D01*
X147388734Y-77995044D01*
X147595045Y-77788733D01*
X147628817Y-77761017D01*
X147739411Y-77626259D01*
X147821589Y-77472513D01*
X147872195Y-77305690D01*
X147881923Y-77206923D01*
X147921587Y-77233426D01*
X148139973Y-77323884D01*
X148371810Y-77370000D01*
X148608190Y-77370000D01*
X148840027Y-77323884D01*
X149058413Y-77233426D01*
X149254955Y-77102101D01*
X149422101Y-76934955D01*
X149553426Y-76738413D01*
X149643884Y-76520027D01*
X149690000Y-76288190D01*
X149690000Y-76051810D01*
X149643884Y-75819973D01*
X149553426Y-75601587D01*
X149422101Y-75405045D01*
X149254955Y-75237899D01*
X149058413Y-75106574D01*
X148840027Y-75016116D01*
X148608190Y-74970000D01*
X148371810Y-74970000D01*
X148139973Y-75016116D01*
X147921587Y-75106574D01*
X147873402Y-75138770D01*
X147872195Y-75126510D01*
X147866148Y-75106574D01*
X147842742Y-75029419D01*
X147821589Y-74959687D01*
X147739411Y-74805941D01*
X147628817Y-74671183D01*
X147595049Y-74643470D01*
X142770001Y-69818423D01*
X142770001Y-69245594D01*
X142841587Y-69293426D01*
X143059973Y-69383884D01*
X143291810Y-69430000D01*
X143528190Y-69430000D01*
X143760027Y-69383884D01*
X143978413Y-69293426D01*
X144174955Y-69162101D01*
X144342101Y-68994955D01*
X144473426Y-68798413D01*
X144563884Y-68580027D01*
X144610000Y-68348190D01*
X144610000Y-68281578D01*
X144750000Y-68141578D01*
X144750000Y-68348190D01*
X144796116Y-68580027D01*
X144886574Y-68798413D01*
X145017899Y-68994955D01*
X145185045Y-69162101D01*
X145381587Y-69293426D01*
X145599973Y-69383884D01*
X145831810Y-69430000D01*
X146068190Y-69430000D01*
X146300027Y-69383884D01*
X146518413Y-69293426D01*
X146714955Y-69162101D01*
X146882101Y-68994955D01*
X147013426Y-68798413D01*
X147103884Y-68580027D01*
X147150000Y-68348190D01*
X147150000Y-68111810D01*
X147103884Y-67879973D01*
X147013426Y-67661587D01*
X146882101Y-67465045D01*
X146714955Y-67297899D01*
X146518413Y-67166574D01*
X146321475Y-67085000D01*
X147663043Y-67085000D01*
X147570506Y-67134463D01*
X147473815Y-67213815D01*
X147394463Y-67310506D01*
X147335498Y-67420820D01*
X147299188Y-67540518D01*
X147286928Y-67665000D01*
X147286928Y-68795000D01*
X147299188Y-68919482D01*
X147335498Y-69039180D01*
X147394463Y-69149494D01*
X147473815Y-69246185D01*
X147570506Y-69325537D01*
X147680820Y-69384502D01*
X147800518Y-69420812D01*
X147925000Y-69433072D01*
X149055000Y-69433072D01*
X149179482Y-69420812D01*
X149299180Y-69384502D01*
X149409494Y-69325537D01*
X149506185Y-69246185D01*
X149585537Y-69149494D01*
X149644502Y-69039180D01*
X149680812Y-68919482D01*
X149693072Y-68795000D01*
X149693072Y-67844650D01*
X154861928Y-73013507D01*
X154861928Y-75000000D01*
X154874188Y-75124482D01*
X154910498Y-75244180D01*
X154969463Y-75354494D01*
X155048815Y-75451185D01*
X155145506Y-75530537D01*
X155255820Y-75589502D01*
X155375518Y-75625812D01*
X155500000Y-75638072D01*
X158100000Y-75638072D01*
X158224482Y-75625812D01*
X158344180Y-75589502D01*
X158454494Y-75530537D01*
X158551185Y-75451185D01*
X158630537Y-75354494D01*
X158689502Y-75244180D01*
X158725812Y-75124482D01*
X158738072Y-75000000D01*
X158738072Y-72400000D01*
X158725812Y-72275518D01*
X158689502Y-72155820D01*
X158630537Y-72045506D01*
X158551185Y-71948815D01*
X158454494Y-71869463D01*
X158344180Y-71810498D01*
X158224482Y-71774188D01*
X158100000Y-71761928D01*
X156113507Y-71761928D01*
X152780998Y-68429419D01*
X154865000Y-68429419D01*
X154865000Y-68810581D01*
X154939361Y-69184419D01*
X155085225Y-69536566D01*
X155296987Y-69853491D01*
X155566509Y-70123013D01*
X155883434Y-70334775D01*
X156235581Y-70480639D01*
X156609419Y-70555000D01*
X156990581Y-70555000D01*
X157364419Y-70480639D01*
X157716566Y-70334775D01*
X158033491Y-70123013D01*
X158303013Y-69853491D01*
X158514775Y-69536566D01*
X158660639Y-69184419D01*
X158735000Y-68810581D01*
X158735000Y-68429419D01*
X158660639Y-68055581D01*
X158514775Y-67703434D01*
X158303013Y-67386509D01*
X158033491Y-67116987D01*
X157716566Y-66905225D01*
X157364419Y-66759361D01*
X156990581Y-66685000D01*
X156609419Y-66685000D01*
X156235581Y-66759361D01*
X155883434Y-66905225D01*
X155566509Y-67116987D01*
X155296987Y-67386509D01*
X155085225Y-67703434D01*
X154939361Y-68055581D01*
X154865000Y-68429419D01*
X152780998Y-68429419D01*
X149956534Y-65604956D01*
X149928817Y-65571183D01*
X149794059Y-65460589D01*
X149640313Y-65378411D01*
X149473490Y-65327805D01*
X149343477Y-65315000D01*
X149343469Y-65315000D01*
X149300000Y-65310719D01*
X149256531Y-65315000D01*
X145483469Y-65315000D01*
X145440000Y-65310719D01*
X145396531Y-65315000D01*
X145396523Y-65315000D01*
X145266510Y-65327805D01*
X145099686Y-65378411D01*
X144945941Y-65460589D01*
X144844953Y-65543468D01*
X144844951Y-65543470D01*
X144811183Y-65571183D01*
X144783470Y-65604951D01*
X143358422Y-67030000D01*
X143291810Y-67030000D01*
X143059973Y-67076116D01*
X142841587Y-67166574D01*
X142770001Y-67214406D01*
X142770001Y-64889224D01*
X155630381Y-64889224D01*
X155762317Y-65184312D01*
X156103045Y-65355159D01*
X156470557Y-65456250D01*
X156850729Y-65483701D01*
X157228951Y-65436457D01*
X157590690Y-65316333D01*
X157837683Y-65184312D01*
X157969619Y-64889224D01*
X156800000Y-63719605D01*
X155630381Y-64889224D01*
X142770001Y-64889224D01*
X142770001Y-62558665D01*
X145565000Y-62558665D01*
X145565000Y-62841335D01*
X145620147Y-63118574D01*
X145728320Y-63379727D01*
X145885363Y-63614759D01*
X146085241Y-63814637D01*
X146320273Y-63971680D01*
X146581426Y-64079853D01*
X146858665Y-64135000D01*
X147141335Y-64135000D01*
X147418574Y-64079853D01*
X147679727Y-63971680D01*
X147914759Y-63814637D01*
X148114637Y-63614759D01*
X148130693Y-63590729D01*
X154856299Y-63590729D01*
X154903543Y-63968951D01*
X155023667Y-64330690D01*
X155155688Y-64577683D01*
X155450776Y-64709619D01*
X156620395Y-63540000D01*
X156979605Y-63540000D01*
X158149224Y-64709619D01*
X158444312Y-64577683D01*
X158615159Y-64236955D01*
X158716250Y-63869443D01*
X158743701Y-63489271D01*
X158696457Y-63111049D01*
X158576333Y-62749310D01*
X158444312Y-62502317D01*
X158149224Y-62370381D01*
X156979605Y-63540000D01*
X156620395Y-63540000D01*
X155450776Y-62370381D01*
X155155688Y-62502317D01*
X154984841Y-62843045D01*
X154883750Y-63210557D01*
X154856299Y-63590729D01*
X148130693Y-63590729D01*
X148271680Y-63379727D01*
X148379853Y-63118574D01*
X148435000Y-62841335D01*
X148435000Y-62558665D01*
X148379853Y-62281426D01*
X148342305Y-62190776D01*
X155630381Y-62190776D01*
X156800000Y-63360395D01*
X157969619Y-62190776D01*
X157837683Y-61895688D01*
X157496955Y-61724841D01*
X157129443Y-61623750D01*
X156749271Y-61596299D01*
X156371049Y-61643543D01*
X156009310Y-61763667D01*
X155762317Y-61895688D01*
X155630381Y-62190776D01*
X148342305Y-62190776D01*
X148271680Y-62020273D01*
X148114637Y-61785241D01*
X147914759Y-61585363D01*
X147714131Y-61451308D01*
X147741514Y-61436671D01*
X147813097Y-61192702D01*
X147000000Y-60379605D01*
X146186903Y-61192702D01*
X146258486Y-61436671D01*
X146287341Y-61450324D01*
X146085241Y-61585363D01*
X145885363Y-61785241D01*
X145728320Y-62020273D01*
X145620147Y-62281426D01*
X145565000Y-62558665D01*
X142770001Y-62558665D01*
X142770001Y-61326101D01*
X142783320Y-61332123D01*
X143013567Y-61385615D01*
X143249826Y-61393160D01*
X143483017Y-61354468D01*
X143704179Y-61271027D01*
X143772067Y-61234740D01*
X143815111Y-61014716D01*
X143170000Y-60369605D01*
X143155858Y-60383748D01*
X142976253Y-60204143D01*
X142990395Y-60190000D01*
X143349605Y-60190000D01*
X143994716Y-60835111D01*
X144214740Y-60792067D01*
X144312123Y-60576680D01*
X144365615Y-60346433D01*
X144368039Y-60270512D01*
X145559783Y-60270512D01*
X145601213Y-60550130D01*
X145696397Y-60816292D01*
X145763329Y-60941514D01*
X146007298Y-61013097D01*
X146820395Y-60200000D01*
X147179605Y-60200000D01*
X147992702Y-61013097D01*
X148236671Y-60941514D01*
X148357571Y-60686004D01*
X148426300Y-60411816D01*
X148440217Y-60129488D01*
X148398787Y-59849870D01*
X148303603Y-59583708D01*
X148236671Y-59458486D01*
X147992702Y-59386903D01*
X147179605Y-60200000D01*
X146820395Y-60200000D01*
X146007298Y-59386903D01*
X145763329Y-59458486D01*
X145642429Y-59713996D01*
X145573700Y-59988184D01*
X145559783Y-60270512D01*
X144368039Y-60270512D01*
X144373160Y-60110174D01*
X144334468Y-59876983D01*
X144251027Y-59655821D01*
X144214740Y-59587933D01*
X143994716Y-59544889D01*
X143349605Y-60190000D01*
X142990395Y-60190000D01*
X142976253Y-60175858D01*
X143155858Y-59996253D01*
X143170000Y-60010395D01*
X143815111Y-59365284D01*
X143784204Y-59207298D01*
X146186903Y-59207298D01*
X147000000Y-60020395D01*
X147813097Y-59207298D01*
X147741514Y-58963329D01*
X147486004Y-58842429D01*
X147211816Y-58773700D01*
X146929488Y-58759783D01*
X146649870Y-58801213D01*
X146383708Y-58896397D01*
X146258486Y-58963329D01*
X146186903Y-59207298D01*
X143784204Y-59207298D01*
X143772067Y-59145260D01*
X143556680Y-59047877D01*
X143326433Y-58994385D01*
X143090174Y-58986840D01*
X142856983Y-59025532D01*
X142770001Y-59058349D01*
X142770001Y-58783185D01*
X142819973Y-58803884D01*
X143051810Y-58850000D01*
X143288190Y-58850000D01*
X143520027Y-58803884D01*
X143738413Y-58713426D01*
X143934955Y-58582101D01*
X144102101Y-58414955D01*
X144233426Y-58218413D01*
X144323884Y-58000027D01*
X144370000Y-57768190D01*
X144370000Y-57531810D01*
X144323884Y-57299973D01*
X144233426Y-57081587D01*
X144102101Y-56885045D01*
X143934955Y-56717899D01*
X143738413Y-56586574D01*
X143520027Y-56496116D01*
X143288190Y-56450000D01*
X143051810Y-56450000D01*
X142819973Y-56496116D01*
X142601587Y-56586574D01*
X142405045Y-56717899D01*
X142357944Y-56765000D01*
X141516579Y-56765000D01*
X140686295Y-55934716D01*
X142524889Y-55934716D01*
X142567933Y-56154740D01*
X142783320Y-56252123D01*
X143013567Y-56305615D01*
X143249826Y-56313160D01*
X143483017Y-56274468D01*
X143704179Y-56191027D01*
X143772067Y-56154740D01*
X143815111Y-55934716D01*
X143170000Y-55289605D01*
X142524889Y-55934716D01*
X140686295Y-55934716D01*
X139941405Y-55189826D01*
X141966840Y-55189826D01*
X142005532Y-55423017D01*
X142088973Y-55644179D01*
X142125260Y-55712067D01*
X142345284Y-55755111D01*
X142990395Y-55110000D01*
X143349605Y-55110000D01*
X143994716Y-55755111D01*
X144214740Y-55712067D01*
X144312123Y-55496680D01*
X144365615Y-55266433D01*
X144373160Y-55030174D01*
X144334468Y-54796983D01*
X144251027Y-54575821D01*
X144214740Y-54507933D01*
X143994716Y-54464889D01*
X143349605Y-55110000D01*
X142990395Y-55110000D01*
X142345284Y-54464889D01*
X142125260Y-54507933D01*
X142027877Y-54723320D01*
X141974385Y-54953567D01*
X141966840Y-55189826D01*
X139941405Y-55189826D01*
X139036863Y-54285284D01*
X142524889Y-54285284D01*
X143170000Y-54930395D01*
X143815111Y-54285284D01*
X143772067Y-54065260D01*
X143556680Y-53967877D01*
X143326433Y-53914385D01*
X143090174Y-53906840D01*
X142856983Y-53945532D01*
X142635821Y-54028973D01*
X142567933Y-54065260D01*
X142524889Y-54285284D01*
X139036863Y-54285284D01*
X137956534Y-53204956D01*
X137928817Y-53171183D01*
X137794059Y-53060589D01*
X137640313Y-52978411D01*
X137473490Y-52927805D01*
X137343477Y-52915000D01*
X137343469Y-52915000D01*
X137300000Y-52910719D01*
X137256531Y-52915000D01*
X136384884Y-52915000D01*
X136430000Y-52688190D01*
X136430000Y-52451810D01*
X141970000Y-52451810D01*
X141970000Y-52688190D01*
X142016116Y-52920027D01*
X142106574Y-53138413D01*
X142237899Y-53334955D01*
X142405045Y-53502101D01*
X142601587Y-53633426D01*
X142819973Y-53723884D01*
X143051810Y-53770000D01*
X143288190Y-53770000D01*
X143520027Y-53723884D01*
X143738413Y-53633426D01*
X143934955Y-53502101D01*
X144102101Y-53334955D01*
X144233426Y-53138413D01*
X144323884Y-52920027D01*
X144370000Y-52688190D01*
X144370000Y-52451810D01*
X144323884Y-52219973D01*
X144233426Y-52001587D01*
X144102101Y-51805045D01*
X143934955Y-51637899D01*
X143738413Y-51506574D01*
X143520027Y-51416116D01*
X143288190Y-51370000D01*
X143051810Y-51370000D01*
X142819973Y-51416116D01*
X142601587Y-51506574D01*
X142405045Y-51637899D01*
X142237899Y-51805045D01*
X142106574Y-52001587D01*
X142016116Y-52219973D01*
X141970000Y-52451810D01*
X136430000Y-52451810D01*
X136383884Y-52219973D01*
X136293426Y-52001587D01*
X136162101Y-51805045D01*
X135994955Y-51637899D01*
X135798413Y-51506574D01*
X135580027Y-51416116D01*
X135348190Y-51370000D01*
X135111810Y-51370000D01*
X134879973Y-51416116D01*
X134661587Y-51506574D01*
X134465045Y-51637899D01*
X134297899Y-51805045D01*
X134264463Y-51855086D01*
X132321187Y-49911810D01*
X134030000Y-49911810D01*
X134030000Y-50148190D01*
X134076116Y-50380027D01*
X134166574Y-50598413D01*
X134297899Y-50794955D01*
X134465045Y-50962101D01*
X134661587Y-51093426D01*
X134879973Y-51183884D01*
X135111810Y-51230000D01*
X135348190Y-51230000D01*
X135580027Y-51183884D01*
X135798413Y-51093426D01*
X135994955Y-50962101D01*
X136162101Y-50794955D01*
X136293426Y-50598413D01*
X136383884Y-50380027D01*
X136430000Y-50148190D01*
X136430000Y-49911810D01*
X136383884Y-49679973D01*
X136293426Y-49461587D01*
X136162101Y-49265045D01*
X135994955Y-49097899D01*
X135798413Y-48966574D01*
X135580027Y-48876116D01*
X135348190Y-48830000D01*
X135111810Y-48830000D01*
X134879973Y-48876116D01*
X134661587Y-48966574D01*
X134465045Y-49097899D01*
X134297899Y-49265045D01*
X134166574Y-49461587D01*
X134076116Y-49679973D01*
X134030000Y-49911810D01*
X132321187Y-49911810D01*
X132114332Y-49704956D01*
X132086615Y-49671183D01*
X131951857Y-49560589D01*
X131798111Y-49478411D01*
X131631288Y-49427805D01*
X131501275Y-49415000D01*
X131501267Y-49415000D01*
X131457798Y-49410719D01*
X131414329Y-49415000D01*
X125732922Y-49415000D01*
X125736232Y-49411690D01*
X125877297Y-49200570D01*
X125974465Y-48965987D01*
X126024000Y-48716955D01*
X126024000Y-48463045D01*
X125974465Y-48214013D01*
X125877297Y-47979430D01*
X125736232Y-47768310D01*
X125556690Y-47588768D01*
X125345570Y-47447703D01*
X125162350Y-47371810D01*
X134030000Y-47371810D01*
X134030000Y-47608190D01*
X134076116Y-47840027D01*
X134166574Y-48058413D01*
X134297899Y-48254955D01*
X134465045Y-48422101D01*
X134661587Y-48553426D01*
X134879973Y-48643884D01*
X135111810Y-48690000D01*
X135348190Y-48690000D01*
X135580027Y-48643884D01*
X135798413Y-48553426D01*
X135994955Y-48422101D01*
X136042056Y-48375000D01*
X139523422Y-48375000D01*
X140543470Y-49395049D01*
X140571183Y-49428817D01*
X140604951Y-49456530D01*
X140604953Y-49456532D01*
X140631613Y-49478411D01*
X140705941Y-49539411D01*
X140859687Y-49621589D01*
X141026510Y-49672195D01*
X141156523Y-49685000D01*
X141156531Y-49685000D01*
X141200000Y-49689281D01*
X141243469Y-49685000D01*
X142015116Y-49685000D01*
X141970000Y-49911810D01*
X141970000Y-50148190D01*
X142016116Y-50380027D01*
X142106574Y-50598413D01*
X142237899Y-50794955D01*
X142405045Y-50962101D01*
X142601587Y-51093426D01*
X142819973Y-51183884D01*
X143051810Y-51230000D01*
X143288190Y-51230000D01*
X143520027Y-51183884D01*
X143738413Y-51093426D01*
X143934955Y-50962101D01*
X144102101Y-50794955D01*
X144233426Y-50598413D01*
X144323884Y-50380027D01*
X144370000Y-50148190D01*
X144370000Y-49911810D01*
X144324884Y-49685000D01*
X151233422Y-49685000D01*
X154961928Y-53413507D01*
X154961928Y-55400000D01*
X154974188Y-55524482D01*
X155010498Y-55644180D01*
X155069463Y-55754494D01*
X155148815Y-55851185D01*
X155245506Y-55930537D01*
X155355820Y-55989502D01*
X155475518Y-56025812D01*
X155600000Y-56038072D01*
X158200000Y-56038072D01*
X158324482Y-56025812D01*
X158444180Y-55989502D01*
X158554494Y-55930537D01*
X158651185Y-55851185D01*
X158730537Y-55754494D01*
X158789502Y-55644180D01*
X158825812Y-55524482D01*
X158838072Y-55400000D01*
X158838072Y-52800000D01*
X158825812Y-52675518D01*
X158789502Y-52555820D01*
X158730537Y-52445506D01*
X158651185Y-52348815D01*
X158554494Y-52269463D01*
X158444180Y-52210498D01*
X158324482Y-52174188D01*
X158200000Y-52161928D01*
X156213507Y-52161928D01*
X152880998Y-48829419D01*
X154965000Y-48829419D01*
X154965000Y-49210581D01*
X155039361Y-49584419D01*
X155185225Y-49936566D01*
X155396987Y-50253491D01*
X155666509Y-50523013D01*
X155983434Y-50734775D01*
X156335581Y-50880639D01*
X156709419Y-50955000D01*
X157090581Y-50955000D01*
X157464419Y-50880639D01*
X157816566Y-50734775D01*
X158133491Y-50523013D01*
X158403013Y-50253491D01*
X158614775Y-49936566D01*
X158760639Y-49584419D01*
X158835000Y-49210581D01*
X158835000Y-48829419D01*
X158760639Y-48455581D01*
X158614775Y-48103434D01*
X158403013Y-47786509D01*
X158133491Y-47516987D01*
X157816566Y-47305225D01*
X157464419Y-47159361D01*
X157090581Y-47085000D01*
X156709419Y-47085000D01*
X156335581Y-47159361D01*
X155983434Y-47305225D01*
X155666509Y-47516987D01*
X155396987Y-47786509D01*
X155185225Y-48103434D01*
X155039361Y-48455581D01*
X154965000Y-48829419D01*
X152880998Y-48829419D01*
X152256534Y-48204956D01*
X152228817Y-48171183D01*
X152094059Y-48060589D01*
X151940313Y-47978411D01*
X151773490Y-47927805D01*
X151643477Y-47915000D01*
X151643469Y-47915000D01*
X151600000Y-47910719D01*
X151556531Y-47915000D01*
X144292829Y-47915000D01*
X144323884Y-47840027D01*
X144370000Y-47608190D01*
X144370000Y-47371810D01*
X144323884Y-47139973D01*
X144233426Y-46921587D01*
X144102101Y-46725045D01*
X143934955Y-46557899D01*
X143738413Y-46426574D01*
X143520027Y-46336116D01*
X143301774Y-46292702D01*
X146486903Y-46292702D01*
X146558486Y-46536671D01*
X146813996Y-46657571D01*
X147088184Y-46726300D01*
X147370512Y-46740217D01*
X147650130Y-46698787D01*
X147916292Y-46603603D01*
X148041514Y-46536671D01*
X148113097Y-46292702D01*
X147300000Y-45479605D01*
X146486903Y-46292702D01*
X143301774Y-46292702D01*
X143288190Y-46290000D01*
X143051810Y-46290000D01*
X142819973Y-46336116D01*
X142601587Y-46426574D01*
X142405045Y-46557899D01*
X142237899Y-46725045D01*
X142106574Y-46921587D01*
X142016116Y-47139973D01*
X141970000Y-47371810D01*
X141970000Y-47608190D01*
X142016116Y-47840027D01*
X142047171Y-47915000D01*
X141566579Y-47915000D01*
X140546534Y-46894956D01*
X140518817Y-46861183D01*
X140384059Y-46750589D01*
X140230313Y-46668411D01*
X140063490Y-46617805D01*
X139933477Y-46605000D01*
X139933469Y-46605000D01*
X139890000Y-46600719D01*
X139846531Y-46605000D01*
X136042056Y-46605000D01*
X135994955Y-46557899D01*
X135798413Y-46426574D01*
X135580027Y-46336116D01*
X135348190Y-46290000D01*
X135111810Y-46290000D01*
X134879973Y-46336116D01*
X134661587Y-46426574D01*
X134465045Y-46557899D01*
X134297899Y-46725045D01*
X134166574Y-46921587D01*
X134076116Y-47139973D01*
X134030000Y-47371810D01*
X125162350Y-47371810D01*
X125110987Y-47350535D01*
X124861955Y-47301000D01*
X124608045Y-47301000D01*
X124359013Y-47350535D01*
X124124430Y-47447703D01*
X123913310Y-47588768D01*
X123733768Y-47768310D01*
X123592703Y-47979430D01*
X123495535Y-48214013D01*
X123446000Y-48463045D01*
X123446000Y-48716955D01*
X123495535Y-48965987D01*
X123592703Y-49200570D01*
X123733768Y-49411690D01*
X123913310Y-49591232D01*
X124124430Y-49732297D01*
X124359013Y-49829465D01*
X124512524Y-49860000D01*
X124359013Y-49890535D01*
X124124430Y-49987703D01*
X123913310Y-50128768D01*
X123733768Y-50308310D01*
X123592703Y-50519430D01*
X123495535Y-50754013D01*
X123446000Y-51003045D01*
X123446000Y-51256955D01*
X123495535Y-51505987D01*
X123592703Y-51740570D01*
X123733768Y-51951690D01*
X123913310Y-52131232D01*
X124124430Y-52272297D01*
X124359013Y-52369465D01*
X124512524Y-52400000D01*
X124359013Y-52430535D01*
X124124430Y-52527703D01*
X123913310Y-52668768D01*
X123733768Y-52848310D01*
X123592703Y-53059430D01*
X123495535Y-53294013D01*
X123446000Y-53543045D01*
X123446000Y-53669421D01*
X118241578Y-48465000D01*
X121874768Y-44831810D01*
X134030000Y-44831810D01*
X134030000Y-45068190D01*
X134076116Y-45300027D01*
X134166574Y-45518413D01*
X134297899Y-45714955D01*
X134465045Y-45882101D01*
X134661587Y-46013426D01*
X134879973Y-46103884D01*
X135111810Y-46150000D01*
X135348190Y-46150000D01*
X135580027Y-46103884D01*
X135798413Y-46013426D01*
X135994955Y-45882101D01*
X136162101Y-45714955D01*
X136293426Y-45518413D01*
X136383884Y-45300027D01*
X136430000Y-45068190D01*
X136430000Y-44831810D01*
X141970000Y-44831810D01*
X141970000Y-45068190D01*
X142016116Y-45300027D01*
X142106574Y-45518413D01*
X142237899Y-45714955D01*
X142405045Y-45882101D01*
X142601587Y-46013426D01*
X142819973Y-46103884D01*
X143051810Y-46150000D01*
X143288190Y-46150000D01*
X143520027Y-46103884D01*
X143738413Y-46013426D01*
X143934955Y-45882101D01*
X144102101Y-45714955D01*
X144233426Y-45518413D01*
X144294688Y-45370512D01*
X145859783Y-45370512D01*
X145901213Y-45650130D01*
X145996397Y-45916292D01*
X146063329Y-46041514D01*
X146307298Y-46113097D01*
X147120395Y-45300000D01*
X147479605Y-45300000D01*
X148292702Y-46113097D01*
X148536671Y-46041514D01*
X148657571Y-45786004D01*
X148726300Y-45511816D01*
X148737272Y-45289224D01*
X155730381Y-45289224D01*
X155862317Y-45584312D01*
X156203045Y-45755159D01*
X156570557Y-45856250D01*
X156950729Y-45883701D01*
X157328951Y-45836457D01*
X157690690Y-45716333D01*
X157937683Y-45584312D01*
X158069619Y-45289224D01*
X156900000Y-44119605D01*
X155730381Y-45289224D01*
X148737272Y-45289224D01*
X148740217Y-45229488D01*
X148698787Y-44949870D01*
X148603603Y-44683708D01*
X148536671Y-44558486D01*
X148292702Y-44486903D01*
X147479605Y-45300000D01*
X147120395Y-45300000D01*
X146307298Y-44486903D01*
X146063329Y-44558486D01*
X145942429Y-44813996D01*
X145873700Y-45088184D01*
X145859783Y-45370512D01*
X144294688Y-45370512D01*
X144323884Y-45300027D01*
X144370000Y-45068190D01*
X144370000Y-44831810D01*
X144323884Y-44599973D01*
X144233426Y-44381587D01*
X144102101Y-44185045D01*
X143934955Y-44017899D01*
X143738413Y-43886574D01*
X143520027Y-43796116D01*
X143288190Y-43750000D01*
X143051810Y-43750000D01*
X142819973Y-43796116D01*
X142601587Y-43886574D01*
X142405045Y-44017899D01*
X142237899Y-44185045D01*
X142106574Y-44381587D01*
X142016116Y-44599973D01*
X141970000Y-44831810D01*
X136430000Y-44831810D01*
X136383884Y-44599973D01*
X136293426Y-44381587D01*
X136162101Y-44185045D01*
X135994955Y-44017899D01*
X135798413Y-43886574D01*
X135580027Y-43796116D01*
X135348190Y-43750000D01*
X135111810Y-43750000D01*
X134879973Y-43796116D01*
X134661587Y-43886574D01*
X134465045Y-44017899D01*
X134297899Y-44185045D01*
X134166574Y-44381587D01*
X134076116Y-44599973D01*
X134030000Y-44831810D01*
X121874768Y-44831810D01*
X123221579Y-43485000D01*
X129465479Y-43485000D01*
X129485363Y-43514759D01*
X129685241Y-43714637D01*
X129920273Y-43871680D01*
X130181426Y-43979853D01*
X130458665Y-44035000D01*
X130741335Y-44035000D01*
X131018574Y-43979853D01*
X131279727Y-43871680D01*
X131514759Y-43714637D01*
X131714637Y-43514759D01*
X131871680Y-43279727D01*
X131979853Y-43018574D01*
X132035000Y-42741335D01*
X132035000Y-42458665D01*
X131979853Y-42181426D01*
X131871680Y-41920273D01*
X131821385Y-41845000D01*
X134026928Y-41845000D01*
X134026928Y-42975000D01*
X134039188Y-43099482D01*
X134075498Y-43219180D01*
X134134463Y-43329494D01*
X134213815Y-43426185D01*
X134310506Y-43505537D01*
X134420820Y-43564502D01*
X134540518Y-43600812D01*
X134665000Y-43613072D01*
X135795000Y-43613072D01*
X135919482Y-43600812D01*
X136039180Y-43564502D01*
X136149494Y-43505537D01*
X136246185Y-43426185D01*
X136325537Y-43329494D01*
X136384502Y-43219180D01*
X136420812Y-43099482D01*
X136433072Y-42975000D01*
X136433072Y-42291810D01*
X141970000Y-42291810D01*
X141970000Y-42528190D01*
X142016116Y-42760027D01*
X142106574Y-42978413D01*
X142237899Y-43174955D01*
X142405045Y-43342101D01*
X142601587Y-43473426D01*
X142819973Y-43563884D01*
X143051810Y-43610000D01*
X143288190Y-43610000D01*
X143520027Y-43563884D01*
X143738413Y-43473426D01*
X143934955Y-43342101D01*
X144102101Y-43174955D01*
X144233426Y-42978413D01*
X144323884Y-42760027D01*
X144344046Y-42658665D01*
X145865000Y-42658665D01*
X145865000Y-42941335D01*
X145920147Y-43218574D01*
X146028320Y-43479727D01*
X146185363Y-43714759D01*
X146385241Y-43914637D01*
X146585869Y-44048692D01*
X146558486Y-44063329D01*
X146486903Y-44307298D01*
X147300000Y-45120395D01*
X148113097Y-44307298D01*
X148041514Y-44063329D01*
X148012659Y-44049676D01*
X148100879Y-43990729D01*
X154956299Y-43990729D01*
X155003543Y-44368951D01*
X155123667Y-44730690D01*
X155255688Y-44977683D01*
X155550776Y-45109619D01*
X156720395Y-43940000D01*
X157079605Y-43940000D01*
X158249224Y-45109619D01*
X158544312Y-44977683D01*
X158715159Y-44636955D01*
X158816250Y-44269443D01*
X158843701Y-43889271D01*
X158796457Y-43511049D01*
X158676333Y-43149310D01*
X158544312Y-42902317D01*
X158249224Y-42770381D01*
X157079605Y-43940000D01*
X156720395Y-43940000D01*
X155550776Y-42770381D01*
X155255688Y-42902317D01*
X155084841Y-43243045D01*
X154983750Y-43610557D01*
X154956299Y-43990729D01*
X148100879Y-43990729D01*
X148214759Y-43914637D01*
X148414637Y-43714759D01*
X148571680Y-43479727D01*
X148679853Y-43218574D01*
X148735000Y-42941335D01*
X148735000Y-42658665D01*
X148721496Y-42590776D01*
X155730381Y-42590776D01*
X156900000Y-43760395D01*
X158069619Y-42590776D01*
X157937683Y-42295688D01*
X157596955Y-42124841D01*
X157229443Y-42023750D01*
X156849271Y-41996299D01*
X156471049Y-42043543D01*
X156109310Y-42163667D01*
X155862317Y-42295688D01*
X155730381Y-42590776D01*
X148721496Y-42590776D01*
X148679853Y-42381426D01*
X148571680Y-42120273D01*
X148414637Y-41885241D01*
X148214759Y-41685363D01*
X147979727Y-41528320D01*
X147718574Y-41420147D01*
X147441335Y-41365000D01*
X147158665Y-41365000D01*
X146881426Y-41420147D01*
X146620273Y-41528320D01*
X146385241Y-41685363D01*
X146185363Y-41885241D01*
X146028320Y-42120273D01*
X145920147Y-42381426D01*
X145865000Y-42658665D01*
X144344046Y-42658665D01*
X144370000Y-42528190D01*
X144370000Y-42291810D01*
X144323884Y-42059973D01*
X144233426Y-41841587D01*
X144102101Y-41645045D01*
X143934955Y-41477899D01*
X143738413Y-41346574D01*
X143520027Y-41256116D01*
X143288190Y-41210000D01*
X143051810Y-41210000D01*
X142819973Y-41256116D01*
X142601587Y-41346574D01*
X142405045Y-41477899D01*
X142237899Y-41645045D01*
X142106574Y-41841587D01*
X142016116Y-42059973D01*
X141970000Y-42291810D01*
X136433072Y-42291810D01*
X136433072Y-41845000D01*
X136420812Y-41720518D01*
X136384502Y-41600820D01*
X136325537Y-41490506D01*
X136246185Y-41393815D01*
X136149494Y-41314463D01*
X136039180Y-41255498D01*
X135919482Y-41219188D01*
X135795000Y-41206928D01*
X134665000Y-41206928D01*
X134540518Y-41219188D01*
X134420820Y-41255498D01*
X134310506Y-41314463D01*
X134213815Y-41393815D01*
X134134463Y-41490506D01*
X134075498Y-41600820D01*
X134039188Y-41720518D01*
X134026928Y-41845000D01*
X131821385Y-41845000D01*
X131714637Y-41685241D01*
X131514759Y-41485363D01*
X131279727Y-41328320D01*
X131018574Y-41220147D01*
X130741335Y-41165000D01*
X130458665Y-41165000D01*
X130181426Y-41220147D01*
X129920273Y-41328320D01*
X129685241Y-41485363D01*
X129485363Y-41685241D01*
X129465479Y-41715000D01*
X122898465Y-41715000D01*
X122854999Y-41710719D01*
X122811533Y-41715000D01*
X122811523Y-41715000D01*
X122681510Y-41727805D01*
X122514687Y-41778411D01*
X122360941Y-41860589D01*
X122360939Y-41860590D01*
X122360940Y-41860590D01*
X122259953Y-41943468D01*
X122259951Y-41943470D01*
X122226183Y-41971183D01*
X122198470Y-42004951D01*
X116905494Y-47297928D01*
X116245000Y-47297928D01*
X116245000Y-43734521D01*
X116274759Y-43714637D01*
X116474637Y-43514759D01*
X116631680Y-43279727D01*
X116739853Y-43018574D01*
X116795000Y-42741335D01*
X116795000Y-42458665D01*
X116739853Y-42181426D01*
X116631680Y-41920273D01*
X116474637Y-41685241D01*
X116274759Y-41485363D01*
X116039727Y-41328320D01*
X115778574Y-41220147D01*
X115501335Y-41165000D01*
X115218665Y-41165000D01*
X114941426Y-41220147D01*
X114712430Y-41315000D01*
X111834521Y-41315000D01*
X111814637Y-41285241D01*
X111614759Y-41085363D01*
X111379727Y-40928320D01*
X111118574Y-40820147D01*
X110841335Y-40765000D01*
X110558665Y-40765000D01*
X110281426Y-40820147D01*
X110020273Y-40928320D01*
X109785241Y-41085363D01*
X109585363Y-41285241D01*
X109428320Y-41520273D01*
X109320147Y-41781426D01*
X109265000Y-42058665D01*
X109265000Y-42341335D01*
X109320147Y-42618574D01*
X109428320Y-42879727D01*
X109585363Y-43114759D01*
X109785241Y-43314637D01*
X110020273Y-43471680D01*
X110281426Y-43579853D01*
X110558665Y-43635000D01*
X110841335Y-43635000D01*
X111118574Y-43579853D01*
X111379727Y-43471680D01*
X111614759Y-43314637D01*
X111814637Y-43114759D01*
X111834521Y-43085000D01*
X114007662Y-43085000D01*
X114088320Y-43279727D01*
X114245363Y-43514759D01*
X114445241Y-43714637D01*
X114475000Y-43734521D01*
X114475001Y-49581521D01*
X114470719Y-49625000D01*
X114487805Y-49798490D01*
X114538412Y-49965313D01*
X114620590Y-50119059D01*
X114703468Y-50220046D01*
X114703471Y-50220049D01*
X114731184Y-50253817D01*
X114764951Y-50281529D01*
X115576000Y-51092579D01*
X115576000Y-51256955D01*
X115625535Y-51505987D01*
X115722703Y-51740570D01*
X115863768Y-51951690D01*
X116043310Y-52131232D01*
X116254430Y-52272297D01*
X116489013Y-52369465D01*
X116642524Y-52400000D01*
X116489013Y-52430535D01*
X116254430Y-52527703D01*
X116043310Y-52668768D01*
X115863768Y-52848310D01*
X115722703Y-53059430D01*
X115625535Y-53294013D01*
X115576000Y-53543045D01*
X115576000Y-53796955D01*
X115625535Y-54045987D01*
X115722703Y-54280570D01*
X115863768Y-54491690D01*
X116043310Y-54671232D01*
X116254430Y-54812297D01*
X116489013Y-54909465D01*
X116642999Y-54940094D01*
X116537921Y-54956741D01*
X116299707Y-55044632D01*
X116210093Y-55092532D01*
X116156218Y-55321613D01*
X116865000Y-56030395D01*
X116879143Y-56016253D01*
X117058748Y-56195858D01*
X117044605Y-56210000D01*
X117753387Y-56918782D01*
X117982468Y-56864907D01*
X118088763Y-56634316D01*
X118115001Y-56525010D01*
X118115000Y-58061545D01*
X118082795Y-58109744D01*
X118004774Y-58298102D01*
X117965000Y-58498061D01*
X117965000Y-58701939D01*
X118004774Y-58901898D01*
X118082795Y-59090256D01*
X118196063Y-59259774D01*
X118340226Y-59403937D01*
X118509744Y-59517205D01*
X118698102Y-59595226D01*
X118898061Y-59635000D01*
X119101939Y-59635000D01*
X119301898Y-59595226D01*
X119490256Y-59517205D01*
X119659774Y-59403937D01*
X119803937Y-59259774D01*
X119917205Y-59090256D01*
X119995226Y-58901898D01*
X120035000Y-58701939D01*
X120035000Y-58498061D01*
X119995226Y-58298102D01*
X119917205Y-58109744D01*
X119885000Y-58061546D01*
X119885000Y-55848469D01*
X119889281Y-55805000D01*
X119885000Y-55761531D01*
X119885000Y-55761523D01*
X119872195Y-55631510D01*
X119867173Y-55614953D01*
X119836274Y-55513097D01*
X119821589Y-55464687D01*
X119739411Y-55310941D01*
X119628817Y-55176183D01*
X119595049Y-55148470D01*
X118154000Y-53707422D01*
X118154000Y-53543045D01*
X118104465Y-53294013D01*
X118007297Y-53059430D01*
X117866232Y-52848310D01*
X117686690Y-52668768D01*
X117475570Y-52527703D01*
X117240987Y-52430535D01*
X117087476Y-52400000D01*
X117240987Y-52369465D01*
X117475570Y-52272297D01*
X117686690Y-52131232D01*
X117866232Y-51951690D01*
X118007297Y-51740570D01*
X118104465Y-51505987D01*
X118154000Y-51256955D01*
X118154000Y-51003045D01*
X118123592Y-50850170D01*
X123446000Y-56172579D01*
X123446000Y-56336955D01*
X123495535Y-56585987D01*
X123592703Y-56820570D01*
X123733768Y-57031690D01*
X123913310Y-57211232D01*
X124124430Y-57352297D01*
X124359013Y-57449465D01*
X124608045Y-57499000D01*
X124861955Y-57499000D01*
X124954001Y-57480691D01*
X124954001Y-57694420D01*
X121904951Y-60743471D01*
X121871184Y-60771183D01*
X121843471Y-60804951D01*
X121843468Y-60804954D01*
X121760590Y-60905941D01*
X121678412Y-61059687D01*
X121627805Y-61226510D01*
X121610719Y-61400000D01*
X121615001Y-61443479D01*
X121615000Y-67316531D01*
X121610719Y-67360000D01*
X121615000Y-67403469D01*
X121615000Y-67403476D01*
X121627805Y-67533489D01*
X121678411Y-67700312D01*
X121760589Y-67854058D01*
X121871183Y-67988817D01*
X121904956Y-68016534D01*
X124311983Y-70423561D01*
X124305000Y-70458665D01*
X124305000Y-70741335D01*
X124360147Y-71018574D01*
X124423782Y-71172203D01*
X112636534Y-59384956D01*
X112608817Y-59351183D01*
X112474059Y-59240589D01*
X112320313Y-59158411D01*
X112153490Y-59107805D01*
X112023477Y-59095000D01*
X112023469Y-59095000D01*
X111980000Y-59090719D01*
X111936531Y-59095000D01*
X102827850Y-59095000D01*
X102814775Y-59063434D01*
X102603013Y-58746509D01*
X102333491Y-58476987D01*
X102016566Y-58265225D01*
X101664419Y-58119361D01*
X101290581Y-58045000D01*
X100909419Y-58045000D01*
X100535581Y-58119361D01*
X100183434Y-58265225D01*
X99866509Y-58476987D01*
X99596987Y-58746509D01*
X99385225Y-59063434D01*
X99239361Y-59415581D01*
X99165000Y-59789419D01*
X94660000Y-59789419D01*
X94660000Y-57789040D01*
X109308091Y-57789040D01*
X109402930Y-58053881D01*
X109547615Y-58295131D01*
X109736586Y-58503519D01*
X109962580Y-58671037D01*
X110216913Y-58791246D01*
X110350961Y-58831904D01*
X110573000Y-58709915D01*
X110573000Y-57567000D01*
X110827000Y-57567000D01*
X110827000Y-58709915D01*
X111049039Y-58831904D01*
X111183087Y-58791246D01*
X111437420Y-58671037D01*
X111663414Y-58503519D01*
X111852385Y-58295131D01*
X111997070Y-58053881D01*
X112091909Y-57789040D01*
X111970624Y-57567000D01*
X110827000Y-57567000D01*
X110573000Y-57567000D01*
X109429376Y-57567000D01*
X109308091Y-57789040D01*
X94660000Y-57789040D01*
X94660000Y-57090960D01*
X109308091Y-57090960D01*
X109429376Y-57313000D01*
X110573000Y-57313000D01*
X110573000Y-56170085D01*
X110827000Y-56170085D01*
X110827000Y-57313000D01*
X111970624Y-57313000D01*
X112087852Y-57098387D01*
X116156218Y-57098387D01*
X116210093Y-57327468D01*
X116440684Y-57433763D01*
X116687581Y-57493028D01*
X116941296Y-57502988D01*
X117192079Y-57463259D01*
X117430293Y-57375368D01*
X117519907Y-57327468D01*
X117573782Y-57098387D01*
X116865000Y-56389605D01*
X116156218Y-57098387D01*
X112087852Y-57098387D01*
X112091909Y-57090960D01*
X111997070Y-56826119D01*
X111852385Y-56584869D01*
X111663414Y-56376481D01*
X111541748Y-56286296D01*
X115572012Y-56286296D01*
X115611741Y-56537079D01*
X115699632Y-56775293D01*
X115747532Y-56864907D01*
X115976613Y-56918782D01*
X116685395Y-56210000D01*
X115976613Y-55501218D01*
X115747532Y-55555093D01*
X115641237Y-55785684D01*
X115581972Y-56032581D01*
X115572012Y-56286296D01*
X111541748Y-56286296D01*
X111437420Y-56208963D01*
X111183087Y-56088754D01*
X111049039Y-56048096D01*
X110827000Y-56170085D01*
X110573000Y-56170085D01*
X110350961Y-56048096D01*
X110216913Y-56088754D01*
X109962580Y-56208963D01*
X109736586Y-56376481D01*
X109547615Y-56584869D01*
X109402930Y-56826119D01*
X109308091Y-57090960D01*
X94660000Y-57090960D01*
X94660000Y-53600000D01*
X99161928Y-53600000D01*
X99161928Y-56200000D01*
X99174188Y-56324482D01*
X99210498Y-56444180D01*
X99269463Y-56554494D01*
X99348815Y-56651185D01*
X99445506Y-56730537D01*
X99555820Y-56789502D01*
X99675518Y-56825812D01*
X99800000Y-56838072D01*
X102400000Y-56838072D01*
X102524482Y-56825812D01*
X102644180Y-56789502D01*
X102754494Y-56730537D01*
X102851185Y-56651185D01*
X102930537Y-56554494D01*
X102989502Y-56444180D01*
X103025812Y-56324482D01*
X103038072Y-56200000D01*
X103038072Y-53600000D01*
X103025812Y-53475518D01*
X102989502Y-53355820D01*
X102930537Y-53245506D01*
X102851185Y-53148815D01*
X102754494Y-53069463D01*
X102644180Y-53010498D01*
X102524482Y-52974188D01*
X102400000Y-52961928D01*
X101985000Y-52961928D01*
X101985000Y-52866578D01*
X108545044Y-46306535D01*
X108601898Y-46295226D01*
X108790256Y-46217205D01*
X108959774Y-46103937D01*
X109103937Y-45959774D01*
X109217205Y-45790256D01*
X109295226Y-45601898D01*
X109335000Y-45401939D01*
X109335000Y-45198061D01*
X109295226Y-44998102D01*
X109217205Y-44809744D01*
X109103937Y-44640226D01*
X108959774Y-44496063D01*
X108790256Y-44382795D01*
X108601898Y-44304774D01*
X108401939Y-44265000D01*
X108198061Y-44265000D01*
X107998102Y-44304774D01*
X107809744Y-44382795D01*
X107640226Y-44496063D01*
X107496063Y-44640226D01*
X107382795Y-44809744D01*
X107304774Y-44998102D01*
X107293465Y-45054956D01*
X100504952Y-51843470D01*
X100471184Y-51871183D01*
X100443471Y-51904951D01*
X100443468Y-51904954D01*
X100360590Y-52005941D01*
X100278412Y-52159687D01*
X100227805Y-52326510D01*
X100210719Y-52500000D01*
X100215001Y-52543479D01*
X100215001Y-52961928D01*
X99800000Y-52961928D01*
X99675518Y-52974188D01*
X99555820Y-53010498D01*
X99445506Y-53069463D01*
X99348815Y-53148815D01*
X99269463Y-53245506D01*
X99210498Y-53355820D01*
X99174188Y-53475518D01*
X99161928Y-53600000D01*
X94660000Y-53600000D01*
X94660000Y-47789419D01*
X99165000Y-47789419D01*
X99165000Y-48170581D01*
X99239361Y-48544419D01*
X99385225Y-48896566D01*
X99596987Y-49213491D01*
X99866509Y-49483013D01*
X100183434Y-49694775D01*
X100535581Y-49840639D01*
X100909419Y-49915000D01*
X101290581Y-49915000D01*
X101664419Y-49840639D01*
X102016566Y-49694775D01*
X102333491Y-49483013D01*
X102603013Y-49213491D01*
X102814775Y-48896566D01*
X102960639Y-48544419D01*
X103035000Y-48170581D01*
X103035000Y-47789419D01*
X102960639Y-47415581D01*
X102814775Y-47063434D01*
X102603013Y-46746509D01*
X102333491Y-46476987D01*
X102016566Y-46265225D01*
X101664419Y-46119361D01*
X101290581Y-46045000D01*
X100909419Y-46045000D01*
X100535581Y-46119361D01*
X100183434Y-46265225D01*
X99866509Y-46476987D01*
X99596987Y-46746509D01*
X99385225Y-47063434D01*
X99239361Y-47415581D01*
X99165000Y-47789419D01*
X94660000Y-47789419D01*
X94660000Y-44200000D01*
X99161928Y-44200000D01*
X99174188Y-44324482D01*
X99210498Y-44444180D01*
X99269463Y-44554494D01*
X99348815Y-44651185D01*
X99445506Y-44730537D01*
X99555820Y-44789502D01*
X99675518Y-44825812D01*
X99800000Y-44838072D01*
X100814250Y-44835000D01*
X100973000Y-44676250D01*
X100973000Y-43027000D01*
X101227000Y-43027000D01*
X101227000Y-44676250D01*
X101385750Y-44835000D01*
X102400000Y-44838072D01*
X102524482Y-44825812D01*
X102644180Y-44789502D01*
X102754494Y-44730537D01*
X102851185Y-44651185D01*
X102930537Y-44554494D01*
X102989502Y-44444180D01*
X103025812Y-44324482D01*
X103038072Y-44200000D01*
X103035000Y-43185750D01*
X102876250Y-43027000D01*
X101227000Y-43027000D01*
X100973000Y-43027000D01*
X99323750Y-43027000D01*
X99165000Y-43185750D01*
X99161928Y-44200000D01*
X94660000Y-44200000D01*
X94660000Y-41600000D01*
X99161928Y-41600000D01*
X99165000Y-42614250D01*
X99323750Y-42773000D01*
X100973000Y-42773000D01*
X100973000Y-41123750D01*
X101227000Y-41123750D01*
X101227000Y-42773000D01*
X102876250Y-42773000D01*
X103035000Y-42614250D01*
X103038072Y-41600000D01*
X103025812Y-41475518D01*
X102989502Y-41355820D01*
X102930537Y-41245506D01*
X102851185Y-41148815D01*
X102754494Y-41069463D01*
X102644180Y-41010498D01*
X102524482Y-40974188D01*
X102400000Y-40961928D01*
X101385750Y-40965000D01*
X101227000Y-41123750D01*
X100973000Y-41123750D01*
X100814250Y-40965000D01*
X99800000Y-40961928D01*
X99675518Y-40974188D01*
X99555820Y-41010498D01*
X99445506Y-41069463D01*
X99348815Y-41148815D01*
X99269463Y-41245506D01*
X99210498Y-41355820D01*
X99174188Y-41475518D01*
X99161928Y-41600000D01*
X94660000Y-41600000D01*
X94660000Y-39660000D01*
X163340000Y-39660000D01*
X163340001Y-77967572D01*
%TA.AperFunction,Conductor*%
D21*
G36*
X163340001Y-77967572D02*
G01*
X163340000Y-77967582D01*
X163340000Y-78340000D01*
X94660000Y-78340000D01*
X94660000Y-75029419D01*
X99165000Y-75029419D01*
X99165000Y-75410581D01*
X99239361Y-75784419D01*
X99385225Y-76136566D01*
X99596987Y-76453491D01*
X99866509Y-76723013D01*
X100183434Y-76934775D01*
X100535581Y-77080639D01*
X100909419Y-77155000D01*
X101290581Y-77155000D01*
X101664419Y-77080639D01*
X102016566Y-76934775D01*
X102333491Y-76723013D01*
X102603013Y-76453491D01*
X102806440Y-76149039D01*
X109068096Y-76149039D01*
X109108754Y-76283087D01*
X109228963Y-76537420D01*
X109396481Y-76763414D01*
X109604869Y-76952385D01*
X109846119Y-77097070D01*
X110110960Y-77191909D01*
X110333000Y-77070624D01*
X110333000Y-75927000D01*
X110587000Y-75927000D01*
X110587000Y-77070624D01*
X110809040Y-77191909D01*
X111073881Y-77097070D01*
X111315131Y-76952385D01*
X111523519Y-76763414D01*
X111691037Y-76537420D01*
X111811246Y-76283087D01*
X111851904Y-76149039D01*
X111729915Y-75927000D01*
X110587000Y-75927000D01*
X110333000Y-75927000D01*
X109190085Y-75927000D01*
X109068096Y-76149039D01*
X102806440Y-76149039D01*
X102814775Y-76136566D01*
X102960639Y-75784419D01*
X103026967Y-75450961D01*
X109068096Y-75450961D01*
X109190085Y-75673000D01*
X110333000Y-75673000D01*
X110333000Y-74529376D01*
X110587000Y-74529376D01*
X110587000Y-75673000D01*
X111729915Y-75673000D01*
X111737790Y-75658665D01*
X124265000Y-75658665D01*
X124265000Y-75941335D01*
X124320147Y-76218574D01*
X124428320Y-76479727D01*
X124585363Y-76714759D01*
X124785241Y-76914637D01*
X125020273Y-77071680D01*
X125281426Y-77179853D01*
X125558665Y-77235000D01*
X125841335Y-77235000D01*
X126118574Y-77179853D01*
X126379727Y-77071680D01*
X126494912Y-76994716D01*
X130064889Y-76994716D01*
X130107933Y-77214740D01*
X130323320Y-77312123D01*
X130553567Y-77365615D01*
X130789826Y-77373160D01*
X131023017Y-77334468D01*
X131244179Y-77251027D01*
X131312067Y-77214740D01*
X131355111Y-76994716D01*
X130710000Y-76349605D01*
X130064889Y-76994716D01*
X126494912Y-76994716D01*
X126614759Y-76914637D01*
X126814637Y-76714759D01*
X126971680Y-76479727D01*
X127066908Y-76249826D01*
X129506840Y-76249826D01*
X129545532Y-76483017D01*
X129628973Y-76704179D01*
X129665260Y-76772067D01*
X129885284Y-76815111D01*
X130530395Y-76170000D01*
X130889605Y-76170000D01*
X131534716Y-76815111D01*
X131754740Y-76772067D01*
X131852123Y-76556680D01*
X131905615Y-76326433D01*
X131913160Y-76090174D01*
X131874468Y-75856983D01*
X131791027Y-75635821D01*
X131754740Y-75567933D01*
X131534716Y-75524889D01*
X130889605Y-76170000D01*
X130530395Y-76170000D01*
X129885284Y-75524889D01*
X129665260Y-75567933D01*
X129567877Y-75783320D01*
X129514385Y-76013567D01*
X129506840Y-76249826D01*
X127066908Y-76249826D01*
X127079853Y-76218574D01*
X127135000Y-75941335D01*
X127135000Y-75658665D01*
X127079853Y-75381426D01*
X127064883Y-75345284D01*
X130064889Y-75345284D01*
X130710000Y-75990395D01*
X131355111Y-75345284D01*
X131312067Y-75125260D01*
X131096680Y-75027877D01*
X130866433Y-74974385D01*
X130630174Y-74966840D01*
X130396983Y-75005532D01*
X130175821Y-75088973D01*
X130107933Y-75125260D01*
X130064889Y-75345284D01*
X127064883Y-75345284D01*
X126971680Y-75120273D01*
X126814637Y-74885241D01*
X126614759Y-74685363D01*
X126379727Y-74528320D01*
X126118574Y-74420147D01*
X125841335Y-74365000D01*
X125558665Y-74365000D01*
X125281426Y-74420147D01*
X125020273Y-74528320D01*
X124785241Y-74685363D01*
X124585363Y-74885241D01*
X124428320Y-75120273D01*
X124320147Y-75381426D01*
X124265000Y-75658665D01*
X111737790Y-75658665D01*
X111851904Y-75450961D01*
X111811246Y-75316913D01*
X111691037Y-75062580D01*
X111523519Y-74836586D01*
X111315131Y-74647615D01*
X111073881Y-74502930D01*
X110809040Y-74408091D01*
X110587000Y-74529376D01*
X110333000Y-74529376D01*
X110110960Y-74408091D01*
X109846119Y-74502930D01*
X109604869Y-74647615D01*
X109396481Y-74836586D01*
X109228963Y-75062580D01*
X109108754Y-75316913D01*
X109068096Y-75450961D01*
X103026967Y-75450961D01*
X103035000Y-75410581D01*
X103035000Y-75029419D01*
X102960639Y-74655581D01*
X102947564Y-74624014D01*
X107112913Y-70458665D01*
X109065000Y-70458665D01*
X109065000Y-70741335D01*
X109120147Y-71018574D01*
X109228320Y-71279727D01*
X109385363Y-71514759D01*
X109585241Y-71714637D01*
X109820273Y-71871680D01*
X110081426Y-71979853D01*
X110358665Y-72035000D01*
X110641335Y-72035000D01*
X110918574Y-71979853D01*
X111179727Y-71871680D01*
X111414759Y-71714637D01*
X111614637Y-71514759D01*
X111771680Y-71279727D01*
X111879853Y-71018574D01*
X111935000Y-70741335D01*
X111935000Y-70458665D01*
X111879853Y-70181426D01*
X111771680Y-69920273D01*
X111614637Y-69685241D01*
X111414759Y-69485363D01*
X111179727Y-69328320D01*
X110918574Y-69220147D01*
X110641335Y-69165000D01*
X110358665Y-69165000D01*
X110081426Y-69220147D01*
X109820273Y-69328320D01*
X109585241Y-69485363D01*
X109385363Y-69685241D01*
X109228320Y-69920273D01*
X109120147Y-70181426D01*
X109065000Y-70458665D01*
X107112913Y-70458665D01*
X110955051Y-66616528D01*
X110988817Y-66588817D01*
X111099411Y-66454059D01*
X111117918Y-66419435D01*
X111274759Y-66314637D01*
X111474637Y-66114759D01*
X111631680Y-65879727D01*
X111739853Y-65618574D01*
X111795000Y-65341335D01*
X111795000Y-65058665D01*
X111739853Y-64781426D01*
X111631680Y-64520273D01*
X111474637Y-64285241D01*
X111274759Y-64085363D01*
X111039727Y-63928320D01*
X110778574Y-63820147D01*
X110501335Y-63765000D01*
X110218665Y-63765000D01*
X109941426Y-63820147D01*
X109680273Y-63928320D01*
X109445241Y-64085363D01*
X109245363Y-64285241D01*
X109088320Y-64520273D01*
X108980147Y-64781426D01*
X108925000Y-65058665D01*
X108925000Y-65341335D01*
X108980147Y-65618574D01*
X109088320Y-65879727D01*
X109128524Y-65939897D01*
X101695986Y-73372436D01*
X101664419Y-73359361D01*
X101290581Y-73285000D01*
X100909419Y-73285000D01*
X100535581Y-73359361D01*
X100183434Y-73505225D01*
X99866509Y-73716987D01*
X99596987Y-73986509D01*
X99385225Y-74303434D01*
X99239361Y-74655581D01*
X99165000Y-75029419D01*
X94660000Y-75029419D01*
X94660000Y-69949419D01*
X99165000Y-69949419D01*
X99165000Y-70330581D01*
X99239361Y-70704419D01*
X99385225Y-71056566D01*
X99596987Y-71373491D01*
X99866509Y-71643013D01*
X100183434Y-71854775D01*
X100535581Y-72000639D01*
X100909419Y-72075000D01*
X101290581Y-72075000D01*
X101664419Y-72000639D01*
X102016566Y-71854775D01*
X102333491Y-71643013D01*
X102603013Y-71373491D01*
X102814775Y-71056566D01*
X102960639Y-70704419D01*
X103035000Y-70330581D01*
X103035000Y-69949419D01*
X102960639Y-69575581D01*
X102814775Y-69223434D01*
X102603013Y-68906509D01*
X102333491Y-68636987D01*
X102016566Y-68425225D01*
X101664419Y-68279361D01*
X101290581Y-68205000D01*
X100909419Y-68205000D01*
X100535581Y-68279361D01*
X100183434Y-68425225D01*
X99866509Y-68636987D01*
X99596987Y-68906509D01*
X99385225Y-69223434D01*
X99239361Y-69575581D01*
X99165000Y-69949419D01*
X94660000Y-69949419D01*
X94660000Y-64869419D01*
X99165000Y-64869419D01*
X99165000Y-65250581D01*
X99239361Y-65624419D01*
X99385225Y-65976566D01*
X99596987Y-66293491D01*
X99866509Y-66563013D01*
X100183434Y-66774775D01*
X100535581Y-66920639D01*
X100909419Y-66995000D01*
X101290581Y-66995000D01*
X101664419Y-66920639D01*
X102016566Y-66774775D01*
X102333491Y-66563013D01*
X102603013Y-66293491D01*
X102814775Y-65976566D01*
X102960639Y-65624419D01*
X103035000Y-65250581D01*
X103035000Y-64869419D01*
X102960639Y-64495581D01*
X102814775Y-64143434D01*
X102603013Y-63826509D01*
X102333491Y-63556987D01*
X102016566Y-63345225D01*
X101664419Y-63199361D01*
X101290581Y-63125000D01*
X100909419Y-63125000D01*
X100535581Y-63199361D01*
X100183434Y-63345225D01*
X99866509Y-63556987D01*
X99596987Y-63826509D01*
X99385225Y-64143434D01*
X99239361Y-64495581D01*
X99165000Y-64869419D01*
X94660000Y-64869419D01*
X94660000Y-59789419D01*
X99165000Y-59789419D01*
X99165000Y-60170581D01*
X99239361Y-60544419D01*
X99385225Y-60896566D01*
X99596987Y-61213491D01*
X99866509Y-61483013D01*
X100183434Y-61694775D01*
X100535581Y-61840639D01*
X100909419Y-61915000D01*
X101290581Y-61915000D01*
X101664419Y-61840639D01*
X102016566Y-61694775D01*
X102333491Y-61483013D01*
X102603013Y-61213491D01*
X102814775Y-60896566D01*
X102827850Y-60865000D01*
X111613422Y-60865000D01*
X124743470Y-73995049D01*
X124771183Y-74028817D01*
X124804951Y-74056530D01*
X124804953Y-74056532D01*
X124876452Y-74115210D01*
X124905941Y-74139411D01*
X125059687Y-74221589D01*
X125226510Y-74272195D01*
X125356523Y-74285000D01*
X125356533Y-74285000D01*
X125399999Y-74289281D01*
X125443466Y-74285000D01*
X142813422Y-74285000D01*
X143498422Y-74970000D01*
X143291810Y-74970000D01*
X143059973Y-75016116D01*
X142841587Y-75106574D01*
X142645045Y-75237899D01*
X142477899Y-75405045D01*
X142346574Y-75601587D01*
X142256116Y-75819973D01*
X142210000Y-76051810D01*
X142210000Y-76288190D01*
X142255116Y-76515000D01*
X142024884Y-76515000D01*
X142070000Y-76288190D01*
X142070000Y-76051810D01*
X142023884Y-75819973D01*
X141933426Y-75601587D01*
X141802101Y-75405045D01*
X141634955Y-75237899D01*
X141438413Y-75106574D01*
X141220027Y-75016116D01*
X140988190Y-74970000D01*
X140751810Y-74970000D01*
X140519973Y-75016116D01*
X140301587Y-75106574D01*
X140105045Y-75237899D01*
X139937899Y-75405045D01*
X139806574Y-75601587D01*
X139716116Y-75819973D01*
X139670000Y-76051810D01*
X139670000Y-76288190D01*
X139715116Y-76515000D01*
X139484884Y-76515000D01*
X139530000Y-76288190D01*
X139530000Y-76051810D01*
X139483884Y-75819973D01*
X139393426Y-75601587D01*
X139262101Y-75405045D01*
X139094955Y-75237899D01*
X138898413Y-75106574D01*
X138680027Y-75016116D01*
X138448190Y-74970000D01*
X138211810Y-74970000D01*
X137979973Y-75016116D01*
X137761587Y-75106574D01*
X137565045Y-75237899D01*
X137397899Y-75405045D01*
X137266574Y-75601587D01*
X137176116Y-75819973D01*
X137130000Y-76051810D01*
X137130000Y-76288190D01*
X137175116Y-76515000D01*
X136941806Y-76515000D01*
X136985615Y-76326433D01*
X136993160Y-76090174D01*
X136954468Y-75856983D01*
X136871027Y-75635821D01*
X136834740Y-75567933D01*
X136614716Y-75524889D01*
X135969605Y-76170000D01*
X135983748Y-76184143D01*
X135804143Y-76363748D01*
X135790000Y-76349605D01*
X135775858Y-76363748D01*
X135596253Y-76184143D01*
X135610395Y-76170000D01*
X134965284Y-75524889D01*
X134745260Y-75567933D01*
X134647877Y-75783320D01*
X134594385Y-76013567D01*
X134586840Y-76249826D01*
X134587921Y-76256343D01*
X134450000Y-76118422D01*
X134450000Y-76051810D01*
X134403884Y-75819973D01*
X134313426Y-75601587D01*
X134182101Y-75405045D01*
X134122340Y-75345284D01*
X135144889Y-75345284D01*
X135790000Y-75990395D01*
X136435111Y-75345284D01*
X136392067Y-75125260D01*
X136176680Y-75027877D01*
X135946433Y-74974385D01*
X135710174Y-74966840D01*
X135476983Y-75005532D01*
X135255821Y-75088973D01*
X135187933Y-75125260D01*
X135144889Y-75345284D01*
X134122340Y-75345284D01*
X134014955Y-75237899D01*
X133818413Y-75106574D01*
X133600027Y-75016116D01*
X133368190Y-74970000D01*
X133131810Y-74970000D01*
X132899973Y-75016116D01*
X132681587Y-75106574D01*
X132485045Y-75237899D01*
X132317899Y-75405045D01*
X132186574Y-75601587D01*
X132096116Y-75819973D01*
X132050000Y-76051810D01*
X132050000Y-76288190D01*
X132096116Y-76520027D01*
X132186574Y-76738413D01*
X132317899Y-76934955D01*
X132485045Y-77102101D01*
X132681587Y-77233426D01*
X132899973Y-77323884D01*
X133131810Y-77370000D01*
X133198422Y-77370000D01*
X133823470Y-77995049D01*
X133851183Y-78028817D01*
X133884951Y-78056530D01*
X133884953Y-78056532D01*
X133985941Y-78139411D01*
X134139686Y-78221589D01*
X134306510Y-78272195D01*
X134436523Y-78285000D01*
X134436531Y-78285000D01*
X134480000Y-78289281D01*
X134523469Y-78285000D01*
X146688731Y-78285000D01*
X146732200Y-78289281D01*
X146775669Y-78285000D01*
X146775677Y-78285000D01*
X146905690Y-78272195D01*
X147072513Y-78221589D01*
X147226259Y-78139411D01*
X147361017Y-78028817D01*
X147388734Y-77995044D01*
X147595045Y-77788733D01*
X147628817Y-77761017D01*
X147739411Y-77626259D01*
X147821589Y-77472513D01*
X147872195Y-77305690D01*
X147881923Y-77206923D01*
X147921587Y-77233426D01*
X148139973Y-77323884D01*
X148371810Y-77370000D01*
X148608190Y-77370000D01*
X148840027Y-77323884D01*
X149058413Y-77233426D01*
X149254955Y-77102101D01*
X149422101Y-76934955D01*
X149553426Y-76738413D01*
X149643884Y-76520027D01*
X149690000Y-76288190D01*
X149690000Y-76051810D01*
X149643884Y-75819973D01*
X149553426Y-75601587D01*
X149422101Y-75405045D01*
X149254955Y-75237899D01*
X149058413Y-75106574D01*
X148840027Y-75016116D01*
X148608190Y-74970000D01*
X148371810Y-74970000D01*
X148139973Y-75016116D01*
X147921587Y-75106574D01*
X147873402Y-75138770D01*
X147872195Y-75126510D01*
X147866148Y-75106574D01*
X147842742Y-75029419D01*
X147821589Y-74959687D01*
X147739411Y-74805941D01*
X147628817Y-74671183D01*
X147595049Y-74643470D01*
X142770001Y-69818423D01*
X142770001Y-69245594D01*
X142841587Y-69293426D01*
X143059973Y-69383884D01*
X143291810Y-69430000D01*
X143528190Y-69430000D01*
X143760027Y-69383884D01*
X143978413Y-69293426D01*
X144174955Y-69162101D01*
X144342101Y-68994955D01*
X144473426Y-68798413D01*
X144563884Y-68580027D01*
X144610000Y-68348190D01*
X144610000Y-68281578D01*
X144750000Y-68141578D01*
X144750000Y-68348190D01*
X144796116Y-68580027D01*
X144886574Y-68798413D01*
X145017899Y-68994955D01*
X145185045Y-69162101D01*
X145381587Y-69293426D01*
X145599973Y-69383884D01*
X145831810Y-69430000D01*
X146068190Y-69430000D01*
X146300027Y-69383884D01*
X146518413Y-69293426D01*
X146714955Y-69162101D01*
X146882101Y-68994955D01*
X147013426Y-68798413D01*
X147103884Y-68580027D01*
X147150000Y-68348190D01*
X147150000Y-68111810D01*
X147103884Y-67879973D01*
X147013426Y-67661587D01*
X146882101Y-67465045D01*
X146714955Y-67297899D01*
X146518413Y-67166574D01*
X146321475Y-67085000D01*
X147663043Y-67085000D01*
X147570506Y-67134463D01*
X147473815Y-67213815D01*
X147394463Y-67310506D01*
X147335498Y-67420820D01*
X147299188Y-67540518D01*
X147286928Y-67665000D01*
X147286928Y-68795000D01*
X147299188Y-68919482D01*
X147335498Y-69039180D01*
X147394463Y-69149494D01*
X147473815Y-69246185D01*
X147570506Y-69325537D01*
X147680820Y-69384502D01*
X147800518Y-69420812D01*
X147925000Y-69433072D01*
X149055000Y-69433072D01*
X149179482Y-69420812D01*
X149299180Y-69384502D01*
X149409494Y-69325537D01*
X149506185Y-69246185D01*
X149585537Y-69149494D01*
X149644502Y-69039180D01*
X149680812Y-68919482D01*
X149693072Y-68795000D01*
X149693072Y-67844650D01*
X154861928Y-73013507D01*
X154861928Y-75000000D01*
X154874188Y-75124482D01*
X154910498Y-75244180D01*
X154969463Y-75354494D01*
X155048815Y-75451185D01*
X155145506Y-75530537D01*
X155255820Y-75589502D01*
X155375518Y-75625812D01*
X155500000Y-75638072D01*
X158100000Y-75638072D01*
X158224482Y-75625812D01*
X158344180Y-75589502D01*
X158454494Y-75530537D01*
X158551185Y-75451185D01*
X158630537Y-75354494D01*
X158689502Y-75244180D01*
X158725812Y-75124482D01*
X158738072Y-75000000D01*
X158738072Y-72400000D01*
X158725812Y-72275518D01*
X158689502Y-72155820D01*
X158630537Y-72045506D01*
X158551185Y-71948815D01*
X158454494Y-71869463D01*
X158344180Y-71810498D01*
X158224482Y-71774188D01*
X158100000Y-71761928D01*
X156113507Y-71761928D01*
X152780998Y-68429419D01*
X154865000Y-68429419D01*
X154865000Y-68810581D01*
X154939361Y-69184419D01*
X155085225Y-69536566D01*
X155296987Y-69853491D01*
X155566509Y-70123013D01*
X155883434Y-70334775D01*
X156235581Y-70480639D01*
X156609419Y-70555000D01*
X156990581Y-70555000D01*
X157364419Y-70480639D01*
X157716566Y-70334775D01*
X158033491Y-70123013D01*
X158303013Y-69853491D01*
X158514775Y-69536566D01*
X158660639Y-69184419D01*
X158735000Y-68810581D01*
X158735000Y-68429419D01*
X158660639Y-68055581D01*
X158514775Y-67703434D01*
X158303013Y-67386509D01*
X158033491Y-67116987D01*
X157716566Y-66905225D01*
X157364419Y-66759361D01*
X156990581Y-66685000D01*
X156609419Y-66685000D01*
X156235581Y-66759361D01*
X155883434Y-66905225D01*
X155566509Y-67116987D01*
X155296987Y-67386509D01*
X155085225Y-67703434D01*
X154939361Y-68055581D01*
X154865000Y-68429419D01*
X152780998Y-68429419D01*
X149956534Y-65604956D01*
X149928817Y-65571183D01*
X149794059Y-65460589D01*
X149640313Y-65378411D01*
X149473490Y-65327805D01*
X149343477Y-65315000D01*
X149343469Y-65315000D01*
X149300000Y-65310719D01*
X149256531Y-65315000D01*
X145483469Y-65315000D01*
X145440000Y-65310719D01*
X145396531Y-65315000D01*
X145396523Y-65315000D01*
X145266510Y-65327805D01*
X145099686Y-65378411D01*
X144945941Y-65460589D01*
X144844953Y-65543468D01*
X144844951Y-65543470D01*
X144811183Y-65571183D01*
X144783470Y-65604951D01*
X143358422Y-67030000D01*
X143291810Y-67030000D01*
X143059973Y-67076116D01*
X142841587Y-67166574D01*
X142770001Y-67214406D01*
X142770001Y-64889224D01*
X155630381Y-64889224D01*
X155762317Y-65184312D01*
X156103045Y-65355159D01*
X156470557Y-65456250D01*
X156850729Y-65483701D01*
X157228951Y-65436457D01*
X157590690Y-65316333D01*
X157837683Y-65184312D01*
X157969619Y-64889224D01*
X156800000Y-63719605D01*
X155630381Y-64889224D01*
X142770001Y-64889224D01*
X142770001Y-62558665D01*
X145565000Y-62558665D01*
X145565000Y-62841335D01*
X145620147Y-63118574D01*
X145728320Y-63379727D01*
X145885363Y-63614759D01*
X146085241Y-63814637D01*
X146320273Y-63971680D01*
X146581426Y-64079853D01*
X146858665Y-64135000D01*
X147141335Y-64135000D01*
X147418574Y-64079853D01*
X147679727Y-63971680D01*
X147914759Y-63814637D01*
X148114637Y-63614759D01*
X148130693Y-63590729D01*
X154856299Y-63590729D01*
X154903543Y-63968951D01*
X155023667Y-64330690D01*
X155155688Y-64577683D01*
X155450776Y-64709619D01*
X156620395Y-63540000D01*
X156979605Y-63540000D01*
X158149224Y-64709619D01*
X158444312Y-64577683D01*
X158615159Y-64236955D01*
X158716250Y-63869443D01*
X158743701Y-63489271D01*
X158696457Y-63111049D01*
X158576333Y-62749310D01*
X158444312Y-62502317D01*
X158149224Y-62370381D01*
X156979605Y-63540000D01*
X156620395Y-63540000D01*
X155450776Y-62370381D01*
X155155688Y-62502317D01*
X154984841Y-62843045D01*
X154883750Y-63210557D01*
X154856299Y-63590729D01*
X148130693Y-63590729D01*
X148271680Y-63379727D01*
X148379853Y-63118574D01*
X148435000Y-62841335D01*
X148435000Y-62558665D01*
X148379853Y-62281426D01*
X148342305Y-62190776D01*
X155630381Y-62190776D01*
X156800000Y-63360395D01*
X157969619Y-62190776D01*
X157837683Y-61895688D01*
X157496955Y-61724841D01*
X157129443Y-61623750D01*
X156749271Y-61596299D01*
X156371049Y-61643543D01*
X156009310Y-61763667D01*
X155762317Y-61895688D01*
X155630381Y-62190776D01*
X148342305Y-62190776D01*
X148271680Y-62020273D01*
X148114637Y-61785241D01*
X147914759Y-61585363D01*
X147714131Y-61451308D01*
X147741514Y-61436671D01*
X147813097Y-61192702D01*
X147000000Y-60379605D01*
X146186903Y-61192702D01*
X146258486Y-61436671D01*
X146287341Y-61450324D01*
X146085241Y-61585363D01*
X145885363Y-61785241D01*
X145728320Y-62020273D01*
X145620147Y-62281426D01*
X145565000Y-62558665D01*
X142770001Y-62558665D01*
X142770001Y-61326101D01*
X142783320Y-61332123D01*
X143013567Y-61385615D01*
X143249826Y-61393160D01*
X143483017Y-61354468D01*
X143704179Y-61271027D01*
X143772067Y-61234740D01*
X143815111Y-61014716D01*
X143170000Y-60369605D01*
X143155858Y-60383748D01*
X142976253Y-60204143D01*
X142990395Y-60190000D01*
X143349605Y-60190000D01*
X143994716Y-60835111D01*
X144214740Y-60792067D01*
X144312123Y-60576680D01*
X144365615Y-60346433D01*
X144368039Y-60270512D01*
X145559783Y-60270512D01*
X145601213Y-60550130D01*
X145696397Y-60816292D01*
X145763329Y-60941514D01*
X146007298Y-61013097D01*
X146820395Y-60200000D01*
X147179605Y-60200000D01*
X147992702Y-61013097D01*
X148236671Y-60941514D01*
X148357571Y-60686004D01*
X148426300Y-60411816D01*
X148440217Y-60129488D01*
X148398787Y-59849870D01*
X148303603Y-59583708D01*
X148236671Y-59458486D01*
X147992702Y-59386903D01*
X147179605Y-60200000D01*
X146820395Y-60200000D01*
X146007298Y-59386903D01*
X145763329Y-59458486D01*
X145642429Y-59713996D01*
X145573700Y-59988184D01*
X145559783Y-60270512D01*
X144368039Y-60270512D01*
X144373160Y-60110174D01*
X144334468Y-59876983D01*
X144251027Y-59655821D01*
X144214740Y-59587933D01*
X143994716Y-59544889D01*
X143349605Y-60190000D01*
X142990395Y-60190000D01*
X142976253Y-60175858D01*
X143155858Y-59996253D01*
X143170000Y-60010395D01*
X143815111Y-59365284D01*
X143784204Y-59207298D01*
X146186903Y-59207298D01*
X147000000Y-60020395D01*
X147813097Y-59207298D01*
X147741514Y-58963329D01*
X147486004Y-58842429D01*
X147211816Y-58773700D01*
X146929488Y-58759783D01*
X146649870Y-58801213D01*
X146383708Y-58896397D01*
X146258486Y-58963329D01*
X146186903Y-59207298D01*
X143784204Y-59207298D01*
X143772067Y-59145260D01*
X143556680Y-59047877D01*
X143326433Y-58994385D01*
X143090174Y-58986840D01*
X142856983Y-59025532D01*
X142770001Y-59058349D01*
X142770001Y-58783185D01*
X142819973Y-58803884D01*
X143051810Y-58850000D01*
X143288190Y-58850000D01*
X143520027Y-58803884D01*
X143738413Y-58713426D01*
X143934955Y-58582101D01*
X144102101Y-58414955D01*
X144233426Y-58218413D01*
X144323884Y-58000027D01*
X144370000Y-57768190D01*
X144370000Y-57531810D01*
X144323884Y-57299973D01*
X144233426Y-57081587D01*
X144102101Y-56885045D01*
X143934955Y-56717899D01*
X143738413Y-56586574D01*
X143520027Y-56496116D01*
X143288190Y-56450000D01*
X143051810Y-56450000D01*
X142819973Y-56496116D01*
X142601587Y-56586574D01*
X142405045Y-56717899D01*
X142357944Y-56765000D01*
X141516579Y-56765000D01*
X140686295Y-55934716D01*
X142524889Y-55934716D01*
X142567933Y-56154740D01*
X142783320Y-56252123D01*
X143013567Y-56305615D01*
X143249826Y-56313160D01*
X143483017Y-56274468D01*
X143704179Y-56191027D01*
X143772067Y-56154740D01*
X143815111Y-55934716D01*
X143170000Y-55289605D01*
X142524889Y-55934716D01*
X140686295Y-55934716D01*
X139941405Y-55189826D01*
X141966840Y-55189826D01*
X142005532Y-55423017D01*
X142088973Y-55644179D01*
X142125260Y-55712067D01*
X142345284Y-55755111D01*
X142990395Y-55110000D01*
X143349605Y-55110000D01*
X143994716Y-55755111D01*
X144214740Y-55712067D01*
X144312123Y-55496680D01*
X144365615Y-55266433D01*
X144373160Y-55030174D01*
X144334468Y-54796983D01*
X144251027Y-54575821D01*
X144214740Y-54507933D01*
X143994716Y-54464889D01*
X143349605Y-55110000D01*
X142990395Y-55110000D01*
X142345284Y-54464889D01*
X142125260Y-54507933D01*
X142027877Y-54723320D01*
X141974385Y-54953567D01*
X141966840Y-55189826D01*
X139941405Y-55189826D01*
X139036863Y-54285284D01*
X142524889Y-54285284D01*
X143170000Y-54930395D01*
X143815111Y-54285284D01*
X143772067Y-54065260D01*
X143556680Y-53967877D01*
X143326433Y-53914385D01*
X143090174Y-53906840D01*
X142856983Y-53945532D01*
X142635821Y-54028973D01*
X142567933Y-54065260D01*
X142524889Y-54285284D01*
X139036863Y-54285284D01*
X137956534Y-53204956D01*
X137928817Y-53171183D01*
X137794059Y-53060589D01*
X137640313Y-52978411D01*
X137473490Y-52927805D01*
X137343477Y-52915000D01*
X137343469Y-52915000D01*
X137300000Y-52910719D01*
X137256531Y-52915000D01*
X136384884Y-52915000D01*
X136430000Y-52688190D01*
X136430000Y-52451810D01*
X141970000Y-52451810D01*
X141970000Y-52688190D01*
X142016116Y-52920027D01*
X142106574Y-53138413D01*
X142237899Y-53334955D01*
X142405045Y-53502101D01*
X142601587Y-53633426D01*
X142819973Y-53723884D01*
X143051810Y-53770000D01*
X143288190Y-53770000D01*
X143520027Y-53723884D01*
X143738413Y-53633426D01*
X143934955Y-53502101D01*
X144102101Y-53334955D01*
X144233426Y-53138413D01*
X144323884Y-52920027D01*
X144370000Y-52688190D01*
X144370000Y-52451810D01*
X144323884Y-52219973D01*
X144233426Y-52001587D01*
X144102101Y-51805045D01*
X143934955Y-51637899D01*
X143738413Y-51506574D01*
X143520027Y-51416116D01*
X143288190Y-51370000D01*
X143051810Y-51370000D01*
X142819973Y-51416116D01*
X142601587Y-51506574D01*
X142405045Y-51637899D01*
X142237899Y-51805045D01*
X142106574Y-52001587D01*
X142016116Y-52219973D01*
X141970000Y-52451810D01*
X136430000Y-52451810D01*
X136383884Y-52219973D01*
X136293426Y-52001587D01*
X136162101Y-51805045D01*
X135994955Y-51637899D01*
X135798413Y-51506574D01*
X135580027Y-51416116D01*
X135348190Y-51370000D01*
X135111810Y-51370000D01*
X134879973Y-51416116D01*
X134661587Y-51506574D01*
X134465045Y-51637899D01*
X134297899Y-51805045D01*
X134264463Y-51855086D01*
X132321187Y-49911810D01*
X134030000Y-49911810D01*
X134030000Y-50148190D01*
X134076116Y-50380027D01*
X134166574Y-50598413D01*
X134297899Y-50794955D01*
X134465045Y-50962101D01*
X134661587Y-51093426D01*
X134879973Y-51183884D01*
X135111810Y-51230000D01*
X135348190Y-51230000D01*
X135580027Y-51183884D01*
X135798413Y-51093426D01*
X135994955Y-50962101D01*
X136162101Y-50794955D01*
X136293426Y-50598413D01*
X136383884Y-50380027D01*
X136430000Y-50148190D01*
X136430000Y-49911810D01*
X136383884Y-49679973D01*
X136293426Y-49461587D01*
X136162101Y-49265045D01*
X135994955Y-49097899D01*
X135798413Y-48966574D01*
X135580027Y-48876116D01*
X135348190Y-48830000D01*
X135111810Y-48830000D01*
X134879973Y-48876116D01*
X134661587Y-48966574D01*
X134465045Y-49097899D01*
X134297899Y-49265045D01*
X134166574Y-49461587D01*
X134076116Y-49679973D01*
X134030000Y-49911810D01*
X132321187Y-49911810D01*
X132114332Y-49704956D01*
X132086615Y-49671183D01*
X131951857Y-49560589D01*
X131798111Y-49478411D01*
X131631288Y-49427805D01*
X131501275Y-49415000D01*
X131501267Y-49415000D01*
X131457798Y-49410719D01*
X131414329Y-49415000D01*
X125732922Y-49415000D01*
X125736232Y-49411690D01*
X125877297Y-49200570D01*
X125974465Y-48965987D01*
X126024000Y-48716955D01*
X126024000Y-48463045D01*
X125974465Y-48214013D01*
X125877297Y-47979430D01*
X125736232Y-47768310D01*
X125556690Y-47588768D01*
X125345570Y-47447703D01*
X125162350Y-47371810D01*
X134030000Y-47371810D01*
X134030000Y-47608190D01*
X134076116Y-47840027D01*
X134166574Y-48058413D01*
X134297899Y-48254955D01*
X134465045Y-48422101D01*
X134661587Y-48553426D01*
X134879973Y-48643884D01*
X135111810Y-48690000D01*
X135348190Y-48690000D01*
X135580027Y-48643884D01*
X135798413Y-48553426D01*
X135994955Y-48422101D01*
X136042056Y-48375000D01*
X139523422Y-48375000D01*
X140543470Y-49395049D01*
X140571183Y-49428817D01*
X140604951Y-49456530D01*
X140604953Y-49456532D01*
X140631613Y-49478411D01*
X140705941Y-49539411D01*
X140859687Y-49621589D01*
X141026510Y-49672195D01*
X141156523Y-49685000D01*
X141156531Y-49685000D01*
X141200000Y-49689281D01*
X141243469Y-49685000D01*
X142015116Y-49685000D01*
X141970000Y-49911810D01*
X141970000Y-50148190D01*
X142016116Y-50380027D01*
X142106574Y-50598413D01*
X142237899Y-50794955D01*
X142405045Y-50962101D01*
X142601587Y-51093426D01*
X142819973Y-51183884D01*
X143051810Y-51230000D01*
X143288190Y-51230000D01*
X143520027Y-51183884D01*
X143738413Y-51093426D01*
X143934955Y-50962101D01*
X144102101Y-50794955D01*
X144233426Y-50598413D01*
X144323884Y-50380027D01*
X144370000Y-50148190D01*
X144370000Y-49911810D01*
X144324884Y-49685000D01*
X151233422Y-49685000D01*
X154961928Y-53413507D01*
X154961928Y-55400000D01*
X154974188Y-55524482D01*
X155010498Y-55644180D01*
X155069463Y-55754494D01*
X155148815Y-55851185D01*
X155245506Y-55930537D01*
X155355820Y-55989502D01*
X155475518Y-56025812D01*
X155600000Y-56038072D01*
X158200000Y-56038072D01*
X158324482Y-56025812D01*
X158444180Y-55989502D01*
X158554494Y-55930537D01*
X158651185Y-55851185D01*
X158730537Y-55754494D01*
X158789502Y-55644180D01*
X158825812Y-55524482D01*
X158838072Y-55400000D01*
X158838072Y-52800000D01*
X158825812Y-52675518D01*
X158789502Y-52555820D01*
X158730537Y-52445506D01*
X158651185Y-52348815D01*
X158554494Y-52269463D01*
X158444180Y-52210498D01*
X158324482Y-52174188D01*
X158200000Y-52161928D01*
X156213507Y-52161928D01*
X152880998Y-48829419D01*
X154965000Y-48829419D01*
X154965000Y-49210581D01*
X155039361Y-49584419D01*
X155185225Y-49936566D01*
X155396987Y-50253491D01*
X155666509Y-50523013D01*
X155983434Y-50734775D01*
X156335581Y-50880639D01*
X156709419Y-50955000D01*
X157090581Y-50955000D01*
X157464419Y-50880639D01*
X157816566Y-50734775D01*
X158133491Y-50523013D01*
X158403013Y-50253491D01*
X158614775Y-49936566D01*
X158760639Y-49584419D01*
X158835000Y-49210581D01*
X158835000Y-48829419D01*
X158760639Y-48455581D01*
X158614775Y-48103434D01*
X158403013Y-47786509D01*
X158133491Y-47516987D01*
X157816566Y-47305225D01*
X157464419Y-47159361D01*
X157090581Y-47085000D01*
X156709419Y-47085000D01*
X156335581Y-47159361D01*
X155983434Y-47305225D01*
X155666509Y-47516987D01*
X155396987Y-47786509D01*
X155185225Y-48103434D01*
X155039361Y-48455581D01*
X154965000Y-48829419D01*
X152880998Y-48829419D01*
X152256534Y-48204956D01*
X152228817Y-48171183D01*
X152094059Y-48060589D01*
X151940313Y-47978411D01*
X151773490Y-47927805D01*
X151643477Y-47915000D01*
X151643469Y-47915000D01*
X151600000Y-47910719D01*
X151556531Y-47915000D01*
X144292829Y-47915000D01*
X144323884Y-47840027D01*
X144370000Y-47608190D01*
X144370000Y-47371810D01*
X144323884Y-47139973D01*
X144233426Y-46921587D01*
X144102101Y-46725045D01*
X143934955Y-46557899D01*
X143738413Y-46426574D01*
X143520027Y-46336116D01*
X143301774Y-46292702D01*
X146486903Y-46292702D01*
X146558486Y-46536671D01*
X146813996Y-46657571D01*
X147088184Y-46726300D01*
X147370512Y-46740217D01*
X147650130Y-46698787D01*
X147916292Y-46603603D01*
X148041514Y-46536671D01*
X148113097Y-46292702D01*
X147300000Y-45479605D01*
X146486903Y-46292702D01*
X143301774Y-46292702D01*
X143288190Y-46290000D01*
X143051810Y-46290000D01*
X142819973Y-46336116D01*
X142601587Y-46426574D01*
X142405045Y-46557899D01*
X142237899Y-46725045D01*
X142106574Y-46921587D01*
X142016116Y-47139973D01*
X141970000Y-47371810D01*
X141970000Y-47608190D01*
X142016116Y-47840027D01*
X142047171Y-47915000D01*
X141566579Y-47915000D01*
X140546534Y-46894956D01*
X140518817Y-46861183D01*
X140384059Y-46750589D01*
X140230313Y-46668411D01*
X140063490Y-46617805D01*
X139933477Y-46605000D01*
X139933469Y-46605000D01*
X139890000Y-46600719D01*
X139846531Y-46605000D01*
X136042056Y-46605000D01*
X135994955Y-46557899D01*
X135798413Y-46426574D01*
X135580027Y-46336116D01*
X135348190Y-46290000D01*
X135111810Y-46290000D01*
X134879973Y-46336116D01*
X134661587Y-46426574D01*
X134465045Y-46557899D01*
X134297899Y-46725045D01*
X134166574Y-46921587D01*
X134076116Y-47139973D01*
X134030000Y-47371810D01*
X125162350Y-47371810D01*
X125110987Y-47350535D01*
X124861955Y-47301000D01*
X124608045Y-47301000D01*
X124359013Y-47350535D01*
X124124430Y-47447703D01*
X123913310Y-47588768D01*
X123733768Y-47768310D01*
X123592703Y-47979430D01*
X123495535Y-48214013D01*
X123446000Y-48463045D01*
X123446000Y-48716955D01*
X123495535Y-48965987D01*
X123592703Y-49200570D01*
X123733768Y-49411690D01*
X123913310Y-49591232D01*
X124124430Y-49732297D01*
X124359013Y-49829465D01*
X124512524Y-49860000D01*
X124359013Y-49890535D01*
X124124430Y-49987703D01*
X123913310Y-50128768D01*
X123733768Y-50308310D01*
X123592703Y-50519430D01*
X123495535Y-50754013D01*
X123446000Y-51003045D01*
X123446000Y-51256955D01*
X123495535Y-51505987D01*
X123592703Y-51740570D01*
X123733768Y-51951690D01*
X123913310Y-52131232D01*
X124124430Y-52272297D01*
X124359013Y-52369465D01*
X124512524Y-52400000D01*
X124359013Y-52430535D01*
X124124430Y-52527703D01*
X123913310Y-52668768D01*
X123733768Y-52848310D01*
X123592703Y-53059430D01*
X123495535Y-53294013D01*
X123446000Y-53543045D01*
X123446000Y-53669421D01*
X118241578Y-48465000D01*
X121874768Y-44831810D01*
X134030000Y-44831810D01*
X134030000Y-45068190D01*
X134076116Y-45300027D01*
X134166574Y-45518413D01*
X134297899Y-45714955D01*
X134465045Y-45882101D01*
X134661587Y-46013426D01*
X134879973Y-46103884D01*
X135111810Y-46150000D01*
X135348190Y-46150000D01*
X135580027Y-46103884D01*
X135798413Y-46013426D01*
X135994955Y-45882101D01*
X136162101Y-45714955D01*
X136293426Y-45518413D01*
X136383884Y-45300027D01*
X136430000Y-45068190D01*
X136430000Y-44831810D01*
X141970000Y-44831810D01*
X141970000Y-45068190D01*
X142016116Y-45300027D01*
X142106574Y-45518413D01*
X142237899Y-45714955D01*
X142405045Y-45882101D01*
X142601587Y-46013426D01*
X142819973Y-46103884D01*
X143051810Y-46150000D01*
X143288190Y-46150000D01*
X143520027Y-46103884D01*
X143738413Y-46013426D01*
X143934955Y-45882101D01*
X144102101Y-45714955D01*
X144233426Y-45518413D01*
X144294688Y-45370512D01*
X145859783Y-45370512D01*
X145901213Y-45650130D01*
X145996397Y-45916292D01*
X146063329Y-46041514D01*
X146307298Y-46113097D01*
X147120395Y-45300000D01*
X147479605Y-45300000D01*
X148292702Y-46113097D01*
X148536671Y-46041514D01*
X148657571Y-45786004D01*
X148726300Y-45511816D01*
X148737272Y-45289224D01*
X155730381Y-45289224D01*
X155862317Y-45584312D01*
X156203045Y-45755159D01*
X156570557Y-45856250D01*
X156950729Y-45883701D01*
X157328951Y-45836457D01*
X157690690Y-45716333D01*
X157937683Y-45584312D01*
X158069619Y-45289224D01*
X156900000Y-44119605D01*
X155730381Y-45289224D01*
X148737272Y-45289224D01*
X148740217Y-45229488D01*
X148698787Y-44949870D01*
X148603603Y-44683708D01*
X148536671Y-44558486D01*
X148292702Y-44486903D01*
X147479605Y-45300000D01*
X147120395Y-45300000D01*
X146307298Y-44486903D01*
X146063329Y-44558486D01*
X145942429Y-44813996D01*
X145873700Y-45088184D01*
X145859783Y-45370512D01*
X144294688Y-45370512D01*
X144323884Y-45300027D01*
X144370000Y-45068190D01*
X144370000Y-44831810D01*
X144323884Y-44599973D01*
X144233426Y-44381587D01*
X144102101Y-44185045D01*
X143934955Y-44017899D01*
X143738413Y-43886574D01*
X143520027Y-43796116D01*
X143288190Y-43750000D01*
X143051810Y-43750000D01*
X142819973Y-43796116D01*
X142601587Y-43886574D01*
X142405045Y-44017899D01*
X142237899Y-44185045D01*
X142106574Y-44381587D01*
X142016116Y-44599973D01*
X141970000Y-44831810D01*
X136430000Y-44831810D01*
X136383884Y-44599973D01*
X136293426Y-44381587D01*
X136162101Y-44185045D01*
X135994955Y-44017899D01*
X135798413Y-43886574D01*
X135580027Y-43796116D01*
X135348190Y-43750000D01*
X135111810Y-43750000D01*
X134879973Y-43796116D01*
X134661587Y-43886574D01*
X134465045Y-44017899D01*
X134297899Y-44185045D01*
X134166574Y-44381587D01*
X134076116Y-44599973D01*
X134030000Y-44831810D01*
X121874768Y-44831810D01*
X123221579Y-43485000D01*
X129465479Y-43485000D01*
X129485363Y-43514759D01*
X129685241Y-43714637D01*
X129920273Y-43871680D01*
X130181426Y-43979853D01*
X130458665Y-44035000D01*
X130741335Y-44035000D01*
X131018574Y-43979853D01*
X131279727Y-43871680D01*
X131514759Y-43714637D01*
X131714637Y-43514759D01*
X131871680Y-43279727D01*
X131979853Y-43018574D01*
X132035000Y-42741335D01*
X132035000Y-42458665D01*
X131979853Y-42181426D01*
X131871680Y-41920273D01*
X131821385Y-41845000D01*
X134026928Y-41845000D01*
X134026928Y-42975000D01*
X134039188Y-43099482D01*
X134075498Y-43219180D01*
X134134463Y-43329494D01*
X134213815Y-43426185D01*
X134310506Y-43505537D01*
X134420820Y-43564502D01*
X134540518Y-43600812D01*
X134665000Y-43613072D01*
X135795000Y-43613072D01*
X135919482Y-43600812D01*
X136039180Y-43564502D01*
X136149494Y-43505537D01*
X136246185Y-43426185D01*
X136325537Y-43329494D01*
X136384502Y-43219180D01*
X136420812Y-43099482D01*
X136433072Y-42975000D01*
X136433072Y-42291810D01*
X141970000Y-42291810D01*
X141970000Y-42528190D01*
X142016116Y-42760027D01*
X142106574Y-42978413D01*
X142237899Y-43174955D01*
X142405045Y-43342101D01*
X142601587Y-43473426D01*
X142819973Y-43563884D01*
X143051810Y-43610000D01*
X143288190Y-43610000D01*
X143520027Y-43563884D01*
X143738413Y-43473426D01*
X143934955Y-43342101D01*
X144102101Y-43174955D01*
X144233426Y-42978413D01*
X144323884Y-42760027D01*
X144344046Y-42658665D01*
X145865000Y-42658665D01*
X145865000Y-42941335D01*
X145920147Y-43218574D01*
X146028320Y-43479727D01*
X146185363Y-43714759D01*
X146385241Y-43914637D01*
X146585869Y-44048692D01*
X146558486Y-44063329D01*
X146486903Y-44307298D01*
X147300000Y-45120395D01*
X148113097Y-44307298D01*
X148041514Y-44063329D01*
X148012659Y-44049676D01*
X148100879Y-43990729D01*
X154956299Y-43990729D01*
X155003543Y-44368951D01*
X155123667Y-44730690D01*
X155255688Y-44977683D01*
X155550776Y-45109619D01*
X156720395Y-43940000D01*
X157079605Y-43940000D01*
X158249224Y-45109619D01*
X158544312Y-44977683D01*
X158715159Y-44636955D01*
X158816250Y-44269443D01*
X158843701Y-43889271D01*
X158796457Y-43511049D01*
X158676333Y-43149310D01*
X158544312Y-42902317D01*
X158249224Y-42770381D01*
X157079605Y-43940000D01*
X156720395Y-43940000D01*
X155550776Y-42770381D01*
X155255688Y-42902317D01*
X155084841Y-43243045D01*
X154983750Y-43610557D01*
X154956299Y-43990729D01*
X148100879Y-43990729D01*
X148214759Y-43914637D01*
X148414637Y-43714759D01*
X148571680Y-43479727D01*
X148679853Y-43218574D01*
X148735000Y-42941335D01*
X148735000Y-42658665D01*
X148721496Y-42590776D01*
X155730381Y-42590776D01*
X156900000Y-43760395D01*
X158069619Y-42590776D01*
X157937683Y-42295688D01*
X157596955Y-42124841D01*
X157229443Y-42023750D01*
X156849271Y-41996299D01*
X156471049Y-42043543D01*
X156109310Y-42163667D01*
X155862317Y-42295688D01*
X155730381Y-42590776D01*
X148721496Y-42590776D01*
X148679853Y-42381426D01*
X148571680Y-42120273D01*
X148414637Y-41885241D01*
X148214759Y-41685363D01*
X147979727Y-41528320D01*
X147718574Y-41420147D01*
X147441335Y-41365000D01*
X147158665Y-41365000D01*
X146881426Y-41420147D01*
X146620273Y-41528320D01*
X146385241Y-41685363D01*
X146185363Y-41885241D01*
X146028320Y-42120273D01*
X145920147Y-42381426D01*
X145865000Y-42658665D01*
X144344046Y-42658665D01*
X144370000Y-42528190D01*
X144370000Y-42291810D01*
X144323884Y-42059973D01*
X144233426Y-41841587D01*
X144102101Y-41645045D01*
X143934955Y-41477899D01*
X143738413Y-41346574D01*
X143520027Y-41256116D01*
X143288190Y-41210000D01*
X143051810Y-41210000D01*
X142819973Y-41256116D01*
X142601587Y-41346574D01*
X142405045Y-41477899D01*
X142237899Y-41645045D01*
X142106574Y-41841587D01*
X142016116Y-42059973D01*
X141970000Y-42291810D01*
X136433072Y-42291810D01*
X136433072Y-41845000D01*
X136420812Y-41720518D01*
X136384502Y-41600820D01*
X136325537Y-41490506D01*
X136246185Y-41393815D01*
X136149494Y-41314463D01*
X136039180Y-41255498D01*
X135919482Y-41219188D01*
X135795000Y-41206928D01*
X134665000Y-41206928D01*
X134540518Y-41219188D01*
X134420820Y-41255498D01*
X134310506Y-41314463D01*
X134213815Y-41393815D01*
X134134463Y-41490506D01*
X134075498Y-41600820D01*
X134039188Y-41720518D01*
X134026928Y-41845000D01*
X131821385Y-41845000D01*
X131714637Y-41685241D01*
X131514759Y-41485363D01*
X131279727Y-41328320D01*
X131018574Y-41220147D01*
X130741335Y-41165000D01*
X130458665Y-41165000D01*
X130181426Y-41220147D01*
X129920273Y-41328320D01*
X129685241Y-41485363D01*
X129485363Y-41685241D01*
X129465479Y-41715000D01*
X122898465Y-41715000D01*
X122854999Y-41710719D01*
X122811533Y-41715000D01*
X122811523Y-41715000D01*
X122681510Y-41727805D01*
X122514687Y-41778411D01*
X122360941Y-41860589D01*
X122360939Y-41860590D01*
X122360940Y-41860590D01*
X122259953Y-41943468D01*
X122259951Y-41943470D01*
X122226183Y-41971183D01*
X122198470Y-42004951D01*
X116905494Y-47297928D01*
X116245000Y-47297928D01*
X116245000Y-43734521D01*
X116274759Y-43714637D01*
X116474637Y-43514759D01*
X116631680Y-43279727D01*
X116739853Y-43018574D01*
X116795000Y-42741335D01*
X116795000Y-42458665D01*
X116739853Y-42181426D01*
X116631680Y-41920273D01*
X116474637Y-41685241D01*
X116274759Y-41485363D01*
X116039727Y-41328320D01*
X115778574Y-41220147D01*
X115501335Y-41165000D01*
X115218665Y-41165000D01*
X114941426Y-41220147D01*
X114712430Y-41315000D01*
X111834521Y-41315000D01*
X111814637Y-41285241D01*
X111614759Y-41085363D01*
X111379727Y-40928320D01*
X111118574Y-40820147D01*
X110841335Y-40765000D01*
X110558665Y-40765000D01*
X110281426Y-40820147D01*
X110020273Y-40928320D01*
X109785241Y-41085363D01*
X109585363Y-41285241D01*
X109428320Y-41520273D01*
X109320147Y-41781426D01*
X109265000Y-42058665D01*
X109265000Y-42341335D01*
X109320147Y-42618574D01*
X109428320Y-42879727D01*
X109585363Y-43114759D01*
X109785241Y-43314637D01*
X110020273Y-43471680D01*
X110281426Y-43579853D01*
X110558665Y-43635000D01*
X110841335Y-43635000D01*
X111118574Y-43579853D01*
X111379727Y-43471680D01*
X111614759Y-43314637D01*
X111814637Y-43114759D01*
X111834521Y-43085000D01*
X114007662Y-43085000D01*
X114088320Y-43279727D01*
X114245363Y-43514759D01*
X114445241Y-43714637D01*
X114475000Y-43734521D01*
X114475001Y-49581521D01*
X114470719Y-49625000D01*
X114487805Y-49798490D01*
X114538412Y-49965313D01*
X114620590Y-50119059D01*
X114703468Y-50220046D01*
X114703471Y-50220049D01*
X114731184Y-50253817D01*
X114764951Y-50281529D01*
X115576000Y-51092579D01*
X115576000Y-51256955D01*
X115625535Y-51505987D01*
X115722703Y-51740570D01*
X115863768Y-51951690D01*
X116043310Y-52131232D01*
X116254430Y-52272297D01*
X116489013Y-52369465D01*
X116642524Y-52400000D01*
X116489013Y-52430535D01*
X116254430Y-52527703D01*
X116043310Y-52668768D01*
X115863768Y-52848310D01*
X115722703Y-53059430D01*
X115625535Y-53294013D01*
X115576000Y-53543045D01*
X115576000Y-53796955D01*
X115625535Y-54045987D01*
X115722703Y-54280570D01*
X115863768Y-54491690D01*
X116043310Y-54671232D01*
X116254430Y-54812297D01*
X116489013Y-54909465D01*
X116642999Y-54940094D01*
X116537921Y-54956741D01*
X116299707Y-55044632D01*
X116210093Y-55092532D01*
X116156218Y-55321613D01*
X116865000Y-56030395D01*
X116879143Y-56016253D01*
X117058748Y-56195858D01*
X117044605Y-56210000D01*
X117753387Y-56918782D01*
X117982468Y-56864907D01*
X118088763Y-56634316D01*
X118115001Y-56525010D01*
X118115000Y-58061545D01*
X118082795Y-58109744D01*
X118004774Y-58298102D01*
X117965000Y-58498061D01*
X117965000Y-58701939D01*
X118004774Y-58901898D01*
X118082795Y-59090256D01*
X118196063Y-59259774D01*
X118340226Y-59403937D01*
X118509744Y-59517205D01*
X118698102Y-59595226D01*
X118898061Y-59635000D01*
X119101939Y-59635000D01*
X119301898Y-59595226D01*
X119490256Y-59517205D01*
X119659774Y-59403937D01*
X119803937Y-59259774D01*
X119917205Y-59090256D01*
X119995226Y-58901898D01*
X120035000Y-58701939D01*
X120035000Y-58498061D01*
X119995226Y-58298102D01*
X119917205Y-58109744D01*
X119885000Y-58061546D01*
X119885000Y-55848469D01*
X119889281Y-55805000D01*
X119885000Y-55761531D01*
X119885000Y-55761523D01*
X119872195Y-55631510D01*
X119867173Y-55614953D01*
X119836274Y-55513097D01*
X119821589Y-55464687D01*
X119739411Y-55310941D01*
X119628817Y-55176183D01*
X119595049Y-55148470D01*
X118154000Y-53707422D01*
X118154000Y-53543045D01*
X118104465Y-53294013D01*
X118007297Y-53059430D01*
X117866232Y-52848310D01*
X117686690Y-52668768D01*
X117475570Y-52527703D01*
X117240987Y-52430535D01*
X117087476Y-52400000D01*
X117240987Y-52369465D01*
X117475570Y-52272297D01*
X117686690Y-52131232D01*
X117866232Y-51951690D01*
X118007297Y-51740570D01*
X118104465Y-51505987D01*
X118154000Y-51256955D01*
X118154000Y-51003045D01*
X118123592Y-50850170D01*
X123446000Y-56172579D01*
X123446000Y-56336955D01*
X123495535Y-56585987D01*
X123592703Y-56820570D01*
X123733768Y-57031690D01*
X123913310Y-57211232D01*
X124124430Y-57352297D01*
X124359013Y-57449465D01*
X124608045Y-57499000D01*
X124861955Y-57499000D01*
X124954001Y-57480691D01*
X124954001Y-57694420D01*
X121904951Y-60743471D01*
X121871184Y-60771183D01*
X121843471Y-60804951D01*
X121843468Y-60804954D01*
X121760590Y-60905941D01*
X121678412Y-61059687D01*
X121627805Y-61226510D01*
X121610719Y-61400000D01*
X121615001Y-61443479D01*
X121615000Y-67316531D01*
X121610719Y-67360000D01*
X121615000Y-67403469D01*
X121615000Y-67403476D01*
X121627805Y-67533489D01*
X121678411Y-67700312D01*
X121760589Y-67854058D01*
X121871183Y-67988817D01*
X121904956Y-68016534D01*
X124311983Y-70423561D01*
X124305000Y-70458665D01*
X124305000Y-70741335D01*
X124360147Y-71018574D01*
X124423782Y-71172203D01*
X112636534Y-59384956D01*
X112608817Y-59351183D01*
X112474059Y-59240589D01*
X112320313Y-59158411D01*
X112153490Y-59107805D01*
X112023477Y-59095000D01*
X112023469Y-59095000D01*
X111980000Y-59090719D01*
X111936531Y-59095000D01*
X102827850Y-59095000D01*
X102814775Y-59063434D01*
X102603013Y-58746509D01*
X102333491Y-58476987D01*
X102016566Y-58265225D01*
X101664419Y-58119361D01*
X101290581Y-58045000D01*
X100909419Y-58045000D01*
X100535581Y-58119361D01*
X100183434Y-58265225D01*
X99866509Y-58476987D01*
X99596987Y-58746509D01*
X99385225Y-59063434D01*
X99239361Y-59415581D01*
X99165000Y-59789419D01*
X94660000Y-59789419D01*
X94660000Y-57789040D01*
X109308091Y-57789040D01*
X109402930Y-58053881D01*
X109547615Y-58295131D01*
X109736586Y-58503519D01*
X109962580Y-58671037D01*
X110216913Y-58791246D01*
X110350961Y-58831904D01*
X110573000Y-58709915D01*
X110573000Y-57567000D01*
X110827000Y-57567000D01*
X110827000Y-58709915D01*
X111049039Y-58831904D01*
X111183087Y-58791246D01*
X111437420Y-58671037D01*
X111663414Y-58503519D01*
X111852385Y-58295131D01*
X111997070Y-58053881D01*
X112091909Y-57789040D01*
X111970624Y-57567000D01*
X110827000Y-57567000D01*
X110573000Y-57567000D01*
X109429376Y-57567000D01*
X109308091Y-57789040D01*
X94660000Y-57789040D01*
X94660000Y-57090960D01*
X109308091Y-57090960D01*
X109429376Y-57313000D01*
X110573000Y-57313000D01*
X110573000Y-56170085D01*
X110827000Y-56170085D01*
X110827000Y-57313000D01*
X111970624Y-57313000D01*
X112087852Y-57098387D01*
X116156218Y-57098387D01*
X116210093Y-57327468D01*
X116440684Y-57433763D01*
X116687581Y-57493028D01*
X116941296Y-57502988D01*
X117192079Y-57463259D01*
X117430293Y-57375368D01*
X117519907Y-57327468D01*
X117573782Y-57098387D01*
X116865000Y-56389605D01*
X116156218Y-57098387D01*
X112087852Y-57098387D01*
X112091909Y-57090960D01*
X111997070Y-56826119D01*
X111852385Y-56584869D01*
X111663414Y-56376481D01*
X111541748Y-56286296D01*
X115572012Y-56286296D01*
X115611741Y-56537079D01*
X115699632Y-56775293D01*
X115747532Y-56864907D01*
X115976613Y-56918782D01*
X116685395Y-56210000D01*
X115976613Y-55501218D01*
X115747532Y-55555093D01*
X115641237Y-55785684D01*
X115581972Y-56032581D01*
X115572012Y-56286296D01*
X111541748Y-56286296D01*
X111437420Y-56208963D01*
X111183087Y-56088754D01*
X111049039Y-56048096D01*
X110827000Y-56170085D01*
X110573000Y-56170085D01*
X110350961Y-56048096D01*
X110216913Y-56088754D01*
X109962580Y-56208963D01*
X109736586Y-56376481D01*
X109547615Y-56584869D01*
X109402930Y-56826119D01*
X109308091Y-57090960D01*
X94660000Y-57090960D01*
X94660000Y-53600000D01*
X99161928Y-53600000D01*
X99161928Y-56200000D01*
X99174188Y-56324482D01*
X99210498Y-56444180D01*
X99269463Y-56554494D01*
X99348815Y-56651185D01*
X99445506Y-56730537D01*
X99555820Y-56789502D01*
X99675518Y-56825812D01*
X99800000Y-56838072D01*
X102400000Y-56838072D01*
X102524482Y-56825812D01*
X102644180Y-56789502D01*
X102754494Y-56730537D01*
X102851185Y-56651185D01*
X102930537Y-56554494D01*
X102989502Y-56444180D01*
X103025812Y-56324482D01*
X103038072Y-56200000D01*
X103038072Y-53600000D01*
X103025812Y-53475518D01*
X102989502Y-53355820D01*
X102930537Y-53245506D01*
X102851185Y-53148815D01*
X102754494Y-53069463D01*
X102644180Y-53010498D01*
X102524482Y-52974188D01*
X102400000Y-52961928D01*
X101985000Y-52961928D01*
X101985000Y-52866578D01*
X108545044Y-46306535D01*
X108601898Y-46295226D01*
X108790256Y-46217205D01*
X108959774Y-46103937D01*
X109103937Y-45959774D01*
X109217205Y-45790256D01*
X109295226Y-45601898D01*
X109335000Y-45401939D01*
X109335000Y-45198061D01*
X109295226Y-44998102D01*
X109217205Y-44809744D01*
X109103937Y-44640226D01*
X108959774Y-44496063D01*
X108790256Y-44382795D01*
X108601898Y-44304774D01*
X108401939Y-44265000D01*
X108198061Y-44265000D01*
X107998102Y-44304774D01*
X107809744Y-44382795D01*
X107640226Y-44496063D01*
X107496063Y-44640226D01*
X107382795Y-44809744D01*
X107304774Y-44998102D01*
X107293465Y-45054956D01*
X100504952Y-51843470D01*
X100471184Y-51871183D01*
X100443471Y-51904951D01*
X100443468Y-51904954D01*
X100360590Y-52005941D01*
X100278412Y-52159687D01*
X100227805Y-52326510D01*
X100210719Y-52500000D01*
X100215001Y-52543479D01*
X100215001Y-52961928D01*
X99800000Y-52961928D01*
X99675518Y-52974188D01*
X99555820Y-53010498D01*
X99445506Y-53069463D01*
X99348815Y-53148815D01*
X99269463Y-53245506D01*
X99210498Y-53355820D01*
X99174188Y-53475518D01*
X99161928Y-53600000D01*
X94660000Y-53600000D01*
X94660000Y-47789419D01*
X99165000Y-47789419D01*
X99165000Y-48170581D01*
X99239361Y-48544419D01*
X99385225Y-48896566D01*
X99596987Y-49213491D01*
X99866509Y-49483013D01*
X100183434Y-49694775D01*
X100535581Y-49840639D01*
X100909419Y-49915000D01*
X101290581Y-49915000D01*
X101664419Y-49840639D01*
X102016566Y-49694775D01*
X102333491Y-49483013D01*
X102603013Y-49213491D01*
X102814775Y-48896566D01*
X102960639Y-48544419D01*
X103035000Y-48170581D01*
X103035000Y-47789419D01*
X102960639Y-47415581D01*
X102814775Y-47063434D01*
X102603013Y-46746509D01*
X102333491Y-46476987D01*
X102016566Y-46265225D01*
X101664419Y-46119361D01*
X101290581Y-46045000D01*
X100909419Y-46045000D01*
X100535581Y-46119361D01*
X100183434Y-46265225D01*
X99866509Y-46476987D01*
X99596987Y-46746509D01*
X99385225Y-47063434D01*
X99239361Y-47415581D01*
X99165000Y-47789419D01*
X94660000Y-47789419D01*
X94660000Y-44200000D01*
X99161928Y-44200000D01*
X99174188Y-44324482D01*
X99210498Y-44444180D01*
X99269463Y-44554494D01*
X99348815Y-44651185D01*
X99445506Y-44730537D01*
X99555820Y-44789502D01*
X99675518Y-44825812D01*
X99800000Y-44838072D01*
X100814250Y-44835000D01*
X100973000Y-44676250D01*
X100973000Y-43027000D01*
X101227000Y-43027000D01*
X101227000Y-44676250D01*
X101385750Y-44835000D01*
X102400000Y-44838072D01*
X102524482Y-44825812D01*
X102644180Y-44789502D01*
X102754494Y-44730537D01*
X102851185Y-44651185D01*
X102930537Y-44554494D01*
X102989502Y-44444180D01*
X103025812Y-44324482D01*
X103038072Y-44200000D01*
X103035000Y-43185750D01*
X102876250Y-43027000D01*
X101227000Y-43027000D01*
X100973000Y-43027000D01*
X99323750Y-43027000D01*
X99165000Y-43185750D01*
X99161928Y-44200000D01*
X94660000Y-44200000D01*
X94660000Y-41600000D01*
X99161928Y-41600000D01*
X99165000Y-42614250D01*
X99323750Y-42773000D01*
X100973000Y-42773000D01*
X100973000Y-41123750D01*
X101227000Y-41123750D01*
X101227000Y-42773000D01*
X102876250Y-42773000D01*
X103035000Y-42614250D01*
X103038072Y-41600000D01*
X103025812Y-41475518D01*
X102989502Y-41355820D01*
X102930537Y-41245506D01*
X102851185Y-41148815D01*
X102754494Y-41069463D01*
X102644180Y-41010498D01*
X102524482Y-40974188D01*
X102400000Y-40961928D01*
X101385750Y-40965000D01*
X101227000Y-41123750D01*
X100973000Y-41123750D01*
X100814250Y-40965000D01*
X99800000Y-40961928D01*
X99675518Y-40974188D01*
X99555820Y-41010498D01*
X99445506Y-41069463D01*
X99348815Y-41148815D01*
X99269463Y-41245506D01*
X99210498Y-41355820D01*
X99174188Y-41475518D01*
X99161928Y-41600000D01*
X94660000Y-41600000D01*
X94660000Y-39660000D01*
X163340000Y-39660000D01*
X163340001Y-77967572D01*
G37*
%TD.AperFunction*%
D20*
X129185363Y-51285241D02*
X129028320Y-51520273D01*
X128920147Y-51781426D01*
X128865000Y-52058665D01*
X128865000Y-52341335D01*
X128920147Y-52618574D01*
X129028320Y-52879727D01*
X129185363Y-53114759D01*
X129385241Y-53314637D01*
X129585869Y-53448692D01*
X129558486Y-53463329D01*
X129486903Y-53707298D01*
X130300000Y-54520395D01*
X131113097Y-53707298D01*
X131041514Y-53463329D01*
X131012659Y-53449676D01*
X131214759Y-53314637D01*
X131414637Y-53114759D01*
X131571680Y-52879727D01*
X131679853Y-52618574D01*
X131735000Y-52341335D01*
X131735000Y-52058665D01*
X131679853Y-51781426D01*
X131674343Y-51768123D01*
X134301268Y-54395049D01*
X134328981Y-54428817D01*
X134362749Y-54456530D01*
X134362751Y-54456532D01*
X134372934Y-54464889D01*
X134379161Y-54469999D01*
X134185260Y-54507933D01*
X134087877Y-54723320D01*
X134034385Y-54953567D01*
X134026840Y-55189826D01*
X134065532Y-55423017D01*
X134148973Y-55644179D01*
X134185260Y-55712067D01*
X134405284Y-55755111D01*
X135050395Y-55110000D01*
X135036253Y-55095858D01*
X135215858Y-54916253D01*
X135230000Y-54930395D01*
X135244143Y-54916253D01*
X135423748Y-55095858D01*
X135409605Y-55110000D01*
X136054716Y-55755111D01*
X136274740Y-55712067D01*
X136372123Y-55496680D01*
X136425615Y-55266433D01*
X136433160Y-55030174D01*
X136394468Y-54796983D01*
X136352219Y-54685000D01*
X136933422Y-54685000D01*
X140493470Y-58245049D01*
X140521183Y-58278817D01*
X140554951Y-58306530D01*
X140554953Y-58306532D01*
X140618259Y-58358486D01*
X140655941Y-58389411D01*
X140809687Y-58471589D01*
X140976510Y-58522195D01*
X141000002Y-58524509D01*
X141000001Y-67032349D01*
X140988190Y-67030000D01*
X140751810Y-67030000D01*
X140519973Y-67076116D01*
X140301587Y-67166574D01*
X140105045Y-67297899D01*
X139937899Y-67465045D01*
X139806574Y-67661587D01*
X139716116Y-67879973D01*
X139670000Y-68111810D01*
X139670000Y-68348190D01*
X139716116Y-68580027D01*
X139806574Y-68798413D01*
X139937899Y-68994955D01*
X140105045Y-69162101D01*
X140301587Y-69293426D01*
X140519973Y-69383884D01*
X140751810Y-69430000D01*
X140988190Y-69430000D01*
X141000001Y-69427651D01*
X141000001Y-70141532D01*
X140995720Y-70185001D01*
X141000001Y-70228470D01*
X141000001Y-70228477D01*
X141012806Y-70358490D01*
X141063412Y-70525313D01*
X141145590Y-70679059D01*
X141256184Y-70813818D01*
X141289957Y-70841535D01*
X142963422Y-72515000D01*
X125766579Y-72515000D01*
X125167797Y-71916218D01*
X125321426Y-71979853D01*
X125598665Y-72035000D01*
X125881335Y-72035000D01*
X126158574Y-71979853D01*
X126419727Y-71871680D01*
X126654759Y-71714637D01*
X126854637Y-71514759D01*
X127011680Y-71279727D01*
X127119853Y-71018574D01*
X127175000Y-70741335D01*
X127175000Y-70458665D01*
X127119853Y-70181426D01*
X127011680Y-69920273D01*
X126854637Y-69685241D01*
X126654759Y-69485363D01*
X126419727Y-69328320D01*
X126158574Y-69220147D01*
X125881335Y-69165000D01*
X125598665Y-69165000D01*
X125563561Y-69171983D01*
X125446294Y-69054716D01*
X130064889Y-69054716D01*
X130107933Y-69274740D01*
X130323320Y-69372123D01*
X130553567Y-69425615D01*
X130789826Y-69433160D01*
X131023017Y-69394468D01*
X131244179Y-69311027D01*
X131312067Y-69274740D01*
X131355111Y-69054716D01*
X132604889Y-69054716D01*
X132647933Y-69274740D01*
X132863320Y-69372123D01*
X133093567Y-69425615D01*
X133329826Y-69433160D01*
X133563017Y-69394468D01*
X133784179Y-69311027D01*
X133852067Y-69274740D01*
X133895111Y-69054716D01*
X135144889Y-69054716D01*
X135187933Y-69274740D01*
X135403320Y-69372123D01*
X135633567Y-69425615D01*
X135869826Y-69433160D01*
X136103017Y-69394468D01*
X136324179Y-69311027D01*
X136392067Y-69274740D01*
X136435111Y-69054716D01*
X135790000Y-68409605D01*
X135144889Y-69054716D01*
X133895111Y-69054716D01*
X133250000Y-68409605D01*
X132604889Y-69054716D01*
X131355111Y-69054716D01*
X130710000Y-68409605D01*
X130064889Y-69054716D01*
X125446294Y-69054716D01*
X124701404Y-68309826D01*
X129506840Y-68309826D01*
X129545532Y-68543017D01*
X129628973Y-68764179D01*
X129665260Y-68832067D01*
X129885284Y-68875111D01*
X130530395Y-68230000D01*
X130889605Y-68230000D01*
X131534716Y-68875111D01*
X131754740Y-68832067D01*
X131852123Y-68616680D01*
X131905615Y-68386433D01*
X131908061Y-68309826D01*
X132046840Y-68309826D01*
X132085532Y-68543017D01*
X132168973Y-68764179D01*
X132205260Y-68832067D01*
X132425284Y-68875111D01*
X133070395Y-68230000D01*
X133429605Y-68230000D01*
X134074716Y-68875111D01*
X134294740Y-68832067D01*
X134392123Y-68616680D01*
X134445615Y-68386433D01*
X134448061Y-68309826D01*
X134586840Y-68309826D01*
X134625532Y-68543017D01*
X134708973Y-68764179D01*
X134745260Y-68832067D01*
X134965284Y-68875111D01*
X135610395Y-68230000D01*
X135969605Y-68230000D01*
X136614716Y-68875111D01*
X136834740Y-68832067D01*
X136932123Y-68616680D01*
X136985615Y-68386433D01*
X136993160Y-68150174D01*
X136986795Y-68111810D01*
X137130000Y-68111810D01*
X137130000Y-68348190D01*
X137176116Y-68580027D01*
X137266574Y-68798413D01*
X137397899Y-68994955D01*
X137565045Y-69162101D01*
X137761587Y-69293426D01*
X137979973Y-69383884D01*
X138211810Y-69430000D01*
X138448190Y-69430000D01*
X138680027Y-69383884D01*
X138898413Y-69293426D01*
X139094955Y-69162101D01*
X139262101Y-68994955D01*
X139393426Y-68798413D01*
X139483884Y-68580027D01*
X139530000Y-68348190D01*
X139530000Y-68111810D01*
X139483884Y-67879973D01*
X139393426Y-67661587D01*
X139262101Y-67465045D01*
X139094955Y-67297899D01*
X138898413Y-67166574D01*
X138680027Y-67076116D01*
X138448190Y-67030000D01*
X138211810Y-67030000D01*
X137979973Y-67076116D01*
X137761587Y-67166574D01*
X137565045Y-67297899D01*
X137397899Y-67465045D01*
X137266574Y-67661587D01*
X137176116Y-67879973D01*
X137130000Y-68111810D01*
X136986795Y-68111810D01*
X136954468Y-67916983D01*
X136871027Y-67695821D01*
X136834740Y-67627933D01*
X136614716Y-67584889D01*
X135969605Y-68230000D01*
X135610395Y-68230000D01*
X134965284Y-67584889D01*
X134745260Y-67627933D01*
X134647877Y-67843320D01*
X134594385Y-68073567D01*
X134586840Y-68309826D01*
X134448061Y-68309826D01*
X134453160Y-68150174D01*
X134414468Y-67916983D01*
X134331027Y-67695821D01*
X134294740Y-67627933D01*
X134074716Y-67584889D01*
X133429605Y-68230000D01*
X133070395Y-68230000D01*
X132425284Y-67584889D01*
X132205260Y-67627933D01*
X132107877Y-67843320D01*
X132054385Y-68073567D01*
X132046840Y-68309826D01*
X131908061Y-68309826D01*
X131913160Y-68150174D01*
X131874468Y-67916983D01*
X131791027Y-67695821D01*
X131754740Y-67627933D01*
X131534716Y-67584889D01*
X130889605Y-68230000D01*
X130530395Y-68230000D01*
X129885284Y-67584889D01*
X129665260Y-67627933D01*
X129567877Y-67843320D01*
X129514385Y-68073567D01*
X129506840Y-68309826D01*
X124701404Y-68309826D01*
X123796862Y-67405284D01*
X130064889Y-67405284D01*
X130710000Y-68050395D01*
X131355111Y-67405284D01*
X132604889Y-67405284D01*
X133250000Y-68050395D01*
X133895111Y-67405284D01*
X135144889Y-67405284D01*
X135790000Y-68050395D01*
X136435111Y-67405284D01*
X136392067Y-67185260D01*
X136176680Y-67087877D01*
X135946433Y-67034385D01*
X135710174Y-67026840D01*
X135476983Y-67065532D01*
X135255821Y-67148973D01*
X135187933Y-67185260D01*
X135144889Y-67405284D01*
X133895111Y-67405284D01*
X133852067Y-67185260D01*
X133636680Y-67087877D01*
X133406433Y-67034385D01*
X133170174Y-67026840D01*
X132936983Y-67065532D01*
X132715821Y-67148973D01*
X132647933Y-67185260D01*
X132604889Y-67405284D01*
X131355111Y-67405284D01*
X131312067Y-67185260D01*
X131096680Y-67087877D01*
X130866433Y-67034385D01*
X130630174Y-67026840D01*
X130396983Y-67065532D01*
X130175821Y-67148973D01*
X130107933Y-67185260D01*
X130064889Y-67405284D01*
X123796862Y-67405284D01*
X123385000Y-66993422D01*
X123385000Y-65058665D01*
X124165000Y-65058665D01*
X124165000Y-65341335D01*
X124220147Y-65618574D01*
X124328320Y-65879727D01*
X124485363Y-66114759D01*
X124685241Y-66314637D01*
X124920273Y-66471680D01*
X125181426Y-66579853D01*
X125458665Y-66635000D01*
X125741335Y-66635000D01*
X126018574Y-66579853D01*
X126279727Y-66471680D01*
X126514759Y-66314637D01*
X126714637Y-66114759D01*
X126732793Y-66087586D01*
X126750000Y-66089281D01*
X126793469Y-66085000D01*
X126793477Y-66085000D01*
X126923490Y-66072195D01*
X127090313Y-66021589D01*
X127244059Y-65939411D01*
X127378817Y-65828817D01*
X127406534Y-65795044D01*
X130173561Y-63028017D01*
X130208665Y-63035000D01*
X130491335Y-63035000D01*
X130768574Y-62979853D01*
X131029727Y-62871680D01*
X131264759Y-62714637D01*
X131464637Y-62514759D01*
X131621680Y-62279727D01*
X131729853Y-62018574D01*
X131785000Y-61741335D01*
X131785000Y-61458665D01*
X131729853Y-61181426D01*
X131660800Y-61014716D01*
X134584889Y-61014716D01*
X134627933Y-61234740D01*
X134843320Y-61332123D01*
X135073567Y-61385615D01*
X135309826Y-61393160D01*
X135543017Y-61354468D01*
X135764179Y-61271027D01*
X135832067Y-61234740D01*
X135875111Y-61014716D01*
X135230000Y-60369605D01*
X134584889Y-61014716D01*
X131660800Y-61014716D01*
X131621680Y-60920273D01*
X131464637Y-60685241D01*
X131264759Y-60485363D01*
X131064131Y-60351308D01*
X131091514Y-60336671D01*
X131111127Y-60269826D01*
X134026840Y-60269826D01*
X134065532Y-60503017D01*
X134148973Y-60724179D01*
X134185260Y-60792067D01*
X134405284Y-60835111D01*
X135050395Y-60190000D01*
X135409605Y-60190000D01*
X136054716Y-60835111D01*
X136274740Y-60792067D01*
X136372123Y-60576680D01*
X136425615Y-60346433D01*
X136433160Y-60110174D01*
X136394468Y-59876983D01*
X136311027Y-59655821D01*
X136274740Y-59587933D01*
X136054716Y-59544889D01*
X135409605Y-60190000D01*
X135050395Y-60190000D01*
X134405284Y-59544889D01*
X134185260Y-59587933D01*
X134087877Y-59803320D01*
X134034385Y-60033567D01*
X134026840Y-60269826D01*
X131111127Y-60269826D01*
X131163097Y-60092702D01*
X130350000Y-59279605D01*
X129536903Y-60092702D01*
X129608486Y-60336671D01*
X129637341Y-60350324D01*
X129435241Y-60485363D01*
X129235363Y-60685241D01*
X129078320Y-60920273D01*
X128970147Y-61181426D01*
X128915000Y-61458665D01*
X128915000Y-61741335D01*
X128921983Y-61776439D01*
X126563909Y-64134513D01*
X126514759Y-64085363D01*
X126279727Y-63928320D01*
X126018574Y-63820147D01*
X125741335Y-63765000D01*
X125458665Y-63765000D01*
X125181426Y-63820147D01*
X124920273Y-63928320D01*
X124685241Y-64085363D01*
X124485363Y-64285241D01*
X124328320Y-64520273D01*
X124220147Y-64781426D01*
X124165000Y-65058665D01*
X123385000Y-65058665D01*
X123385000Y-61766578D01*
X125981066Y-59170512D01*
X128909783Y-59170512D01*
X128951213Y-59450130D01*
X129046397Y-59716292D01*
X129113329Y-59841514D01*
X129357298Y-59913097D01*
X130170395Y-59100000D01*
X130529605Y-59100000D01*
X131342702Y-59913097D01*
X131586671Y-59841514D01*
X131707571Y-59586004D01*
X131762897Y-59365284D01*
X134584889Y-59365284D01*
X135230000Y-60010395D01*
X135875111Y-59365284D01*
X135832067Y-59145260D01*
X135616680Y-59047877D01*
X135386433Y-58994385D01*
X135150174Y-58986840D01*
X134916983Y-59025532D01*
X134695821Y-59108973D01*
X134627933Y-59145260D01*
X134584889Y-59365284D01*
X131762897Y-59365284D01*
X131776300Y-59311816D01*
X131790217Y-59029488D01*
X131748787Y-58749870D01*
X131653603Y-58483708D01*
X131648797Y-58474716D01*
X134584889Y-58474716D01*
X134627933Y-58694740D01*
X134843320Y-58792123D01*
X135073567Y-58845615D01*
X135309826Y-58853160D01*
X135543017Y-58814468D01*
X135764179Y-58731027D01*
X135832067Y-58694740D01*
X135875111Y-58474716D01*
X135230000Y-57829605D01*
X134584889Y-58474716D01*
X131648797Y-58474716D01*
X131586671Y-58358486D01*
X131342702Y-58286903D01*
X130529605Y-59100000D01*
X130170395Y-59100000D01*
X129357298Y-58286903D01*
X129113329Y-58358486D01*
X128992429Y-58613996D01*
X128923700Y-58888184D01*
X128909783Y-59170512D01*
X125981066Y-59170512D01*
X126434051Y-58717528D01*
X126467818Y-58689816D01*
X126530043Y-58613996D01*
X126578411Y-58555059D01*
X126578412Y-58555058D01*
X126660590Y-58401312D01*
X126711196Y-58234489D01*
X126723723Y-58107298D01*
X129536903Y-58107298D01*
X130350000Y-58920395D01*
X131163097Y-58107298D01*
X131091514Y-57863329D01*
X130836004Y-57742429D01*
X130785726Y-57729826D01*
X134026840Y-57729826D01*
X134065532Y-57963017D01*
X134148973Y-58184179D01*
X134185260Y-58252067D01*
X134405284Y-58295111D01*
X135050395Y-57650000D01*
X135409605Y-57650000D01*
X136054716Y-58295111D01*
X136274740Y-58252067D01*
X136372123Y-58036680D01*
X136425615Y-57806433D01*
X136433160Y-57570174D01*
X136394468Y-57336983D01*
X136311027Y-57115821D01*
X136274740Y-57047933D01*
X136054716Y-57004889D01*
X135409605Y-57650000D01*
X135050395Y-57650000D01*
X134405284Y-57004889D01*
X134185260Y-57047933D01*
X134087877Y-57263320D01*
X134034385Y-57493567D01*
X134026840Y-57729826D01*
X130785726Y-57729826D01*
X130561816Y-57673700D01*
X130279488Y-57659783D01*
X129999870Y-57701213D01*
X129733708Y-57796397D01*
X129608486Y-57863329D01*
X129536903Y-58107298D01*
X126723723Y-58107298D01*
X126724001Y-58104476D01*
X126724001Y-58104466D01*
X126728282Y-58061000D01*
X126724001Y-58017534D01*
X126724001Y-56825284D01*
X134584889Y-56825284D01*
X135230000Y-57470395D01*
X135875111Y-56825284D01*
X135832067Y-56605260D01*
X135616680Y-56507877D01*
X135386433Y-56454385D01*
X135150174Y-56446840D01*
X134916983Y-56485532D01*
X134695821Y-56568973D01*
X134627933Y-56605260D01*
X134584889Y-56825284D01*
X126724001Y-56825284D01*
X126724001Y-55692702D01*
X129486903Y-55692702D01*
X129558486Y-55936671D01*
X129813996Y-56057571D01*
X130088184Y-56126300D01*
X130370512Y-56140217D01*
X130650130Y-56098787D01*
X130916292Y-56003603D01*
X131041514Y-55936671D01*
X131042087Y-55934716D01*
X134584889Y-55934716D01*
X134627933Y-56154740D01*
X134843320Y-56252123D01*
X135073567Y-56305615D01*
X135309826Y-56313160D01*
X135543017Y-56274468D01*
X135764179Y-56191027D01*
X135832067Y-56154740D01*
X135875111Y-55934716D01*
X135230000Y-55289605D01*
X134584889Y-55934716D01*
X131042087Y-55934716D01*
X131113097Y-55692702D01*
X130300000Y-54879605D01*
X129486903Y-55692702D01*
X126724001Y-55692702D01*
X126724001Y-54817466D01*
X126728282Y-54774000D01*
X126727939Y-54770512D01*
X128859783Y-54770512D01*
X128901213Y-55050130D01*
X128996397Y-55316292D01*
X129063329Y-55441514D01*
X129307298Y-55513097D01*
X130120395Y-54700000D01*
X130479605Y-54700000D01*
X131292702Y-55513097D01*
X131536671Y-55441514D01*
X131657571Y-55186004D01*
X131726300Y-54911816D01*
X131740217Y-54629488D01*
X131698787Y-54349870D01*
X131603603Y-54083708D01*
X131536671Y-53958486D01*
X131292702Y-53886903D01*
X130479605Y-54700000D01*
X130120395Y-54700000D01*
X129307298Y-53886903D01*
X129063329Y-53958486D01*
X128942429Y-54213996D01*
X128873700Y-54488184D01*
X128859783Y-54770512D01*
X126727939Y-54770512D01*
X126724001Y-54730534D01*
X126724001Y-54730524D01*
X126711196Y-54600511D01*
X126660590Y-54433688D01*
X126578412Y-54279942D01*
X126467818Y-54145184D01*
X126434050Y-54117471D01*
X126024000Y-53707421D01*
X126024000Y-53543045D01*
X125974465Y-53294013D01*
X125877297Y-53059430D01*
X125736232Y-52848310D01*
X125556690Y-52668768D01*
X125345570Y-52527703D01*
X125110987Y-52430535D01*
X124957476Y-52400000D01*
X125110987Y-52369465D01*
X125345570Y-52272297D01*
X125556690Y-52131232D01*
X125736232Y-51951690D01*
X125877297Y-51740570D01*
X125974465Y-51505987D01*
X126024000Y-51256955D01*
X126024000Y-51185000D01*
X129285604Y-51185000D01*
X129185363Y-51285241D01*
%TA.AperFunction,Conductor*%
D21*
G36*
X129185363Y-51285241D02*
G01*
X129028320Y-51520273D01*
X128920147Y-51781426D01*
X128865000Y-52058665D01*
X128865000Y-52341335D01*
X128920147Y-52618574D01*
X129028320Y-52879727D01*
X129185363Y-53114759D01*
X129385241Y-53314637D01*
X129585869Y-53448692D01*
X129558486Y-53463329D01*
X129486903Y-53707298D01*
X130300000Y-54520395D01*
X131113097Y-53707298D01*
X131041514Y-53463329D01*
X131012659Y-53449676D01*
X131214759Y-53314637D01*
X131414637Y-53114759D01*
X131571680Y-52879727D01*
X131679853Y-52618574D01*
X131735000Y-52341335D01*
X131735000Y-52058665D01*
X131679853Y-51781426D01*
X131674343Y-51768123D01*
X134301268Y-54395049D01*
X134328981Y-54428817D01*
X134362749Y-54456530D01*
X134362751Y-54456532D01*
X134372934Y-54464889D01*
X134379161Y-54469999D01*
X134185260Y-54507933D01*
X134087877Y-54723320D01*
X134034385Y-54953567D01*
X134026840Y-55189826D01*
X134065532Y-55423017D01*
X134148973Y-55644179D01*
X134185260Y-55712067D01*
X134405284Y-55755111D01*
X135050395Y-55110000D01*
X135036253Y-55095858D01*
X135215858Y-54916253D01*
X135230000Y-54930395D01*
X135244143Y-54916253D01*
X135423748Y-55095858D01*
X135409605Y-55110000D01*
X136054716Y-55755111D01*
X136274740Y-55712067D01*
X136372123Y-55496680D01*
X136425615Y-55266433D01*
X136433160Y-55030174D01*
X136394468Y-54796983D01*
X136352219Y-54685000D01*
X136933422Y-54685000D01*
X140493470Y-58245049D01*
X140521183Y-58278817D01*
X140554951Y-58306530D01*
X140554953Y-58306532D01*
X140618259Y-58358486D01*
X140655941Y-58389411D01*
X140809687Y-58471589D01*
X140976510Y-58522195D01*
X141000002Y-58524509D01*
X141000001Y-67032349D01*
X140988190Y-67030000D01*
X140751810Y-67030000D01*
X140519973Y-67076116D01*
X140301587Y-67166574D01*
X140105045Y-67297899D01*
X139937899Y-67465045D01*
X139806574Y-67661587D01*
X139716116Y-67879973D01*
X139670000Y-68111810D01*
X139670000Y-68348190D01*
X139716116Y-68580027D01*
X139806574Y-68798413D01*
X139937899Y-68994955D01*
X140105045Y-69162101D01*
X140301587Y-69293426D01*
X140519973Y-69383884D01*
X140751810Y-69430000D01*
X140988190Y-69430000D01*
X141000001Y-69427651D01*
X141000001Y-70141532D01*
X140995720Y-70185001D01*
X141000001Y-70228470D01*
X141000001Y-70228477D01*
X141012806Y-70358490D01*
X141063412Y-70525313D01*
X141145590Y-70679059D01*
X141256184Y-70813818D01*
X141289957Y-70841535D01*
X142963422Y-72515000D01*
X125766579Y-72515000D01*
X125167797Y-71916218D01*
X125321426Y-71979853D01*
X125598665Y-72035000D01*
X125881335Y-72035000D01*
X126158574Y-71979853D01*
X126419727Y-71871680D01*
X126654759Y-71714637D01*
X126854637Y-71514759D01*
X127011680Y-71279727D01*
X127119853Y-71018574D01*
X127175000Y-70741335D01*
X127175000Y-70458665D01*
X127119853Y-70181426D01*
X127011680Y-69920273D01*
X126854637Y-69685241D01*
X126654759Y-69485363D01*
X126419727Y-69328320D01*
X126158574Y-69220147D01*
X125881335Y-69165000D01*
X125598665Y-69165000D01*
X125563561Y-69171983D01*
X125446294Y-69054716D01*
X130064889Y-69054716D01*
X130107933Y-69274740D01*
X130323320Y-69372123D01*
X130553567Y-69425615D01*
X130789826Y-69433160D01*
X131023017Y-69394468D01*
X131244179Y-69311027D01*
X131312067Y-69274740D01*
X131355111Y-69054716D01*
X132604889Y-69054716D01*
X132647933Y-69274740D01*
X132863320Y-69372123D01*
X133093567Y-69425615D01*
X133329826Y-69433160D01*
X133563017Y-69394468D01*
X133784179Y-69311027D01*
X133852067Y-69274740D01*
X133895111Y-69054716D01*
X135144889Y-69054716D01*
X135187933Y-69274740D01*
X135403320Y-69372123D01*
X135633567Y-69425615D01*
X135869826Y-69433160D01*
X136103017Y-69394468D01*
X136324179Y-69311027D01*
X136392067Y-69274740D01*
X136435111Y-69054716D01*
X135790000Y-68409605D01*
X135144889Y-69054716D01*
X133895111Y-69054716D01*
X133250000Y-68409605D01*
X132604889Y-69054716D01*
X131355111Y-69054716D01*
X130710000Y-68409605D01*
X130064889Y-69054716D01*
X125446294Y-69054716D01*
X124701404Y-68309826D01*
X129506840Y-68309826D01*
X129545532Y-68543017D01*
X129628973Y-68764179D01*
X129665260Y-68832067D01*
X129885284Y-68875111D01*
X130530395Y-68230000D01*
X130889605Y-68230000D01*
X131534716Y-68875111D01*
X131754740Y-68832067D01*
X131852123Y-68616680D01*
X131905615Y-68386433D01*
X131908061Y-68309826D01*
X132046840Y-68309826D01*
X132085532Y-68543017D01*
X132168973Y-68764179D01*
X132205260Y-68832067D01*
X132425284Y-68875111D01*
X133070395Y-68230000D01*
X133429605Y-68230000D01*
X134074716Y-68875111D01*
X134294740Y-68832067D01*
X134392123Y-68616680D01*
X134445615Y-68386433D01*
X134448061Y-68309826D01*
X134586840Y-68309826D01*
X134625532Y-68543017D01*
X134708973Y-68764179D01*
X134745260Y-68832067D01*
X134965284Y-68875111D01*
X135610395Y-68230000D01*
X135969605Y-68230000D01*
X136614716Y-68875111D01*
X136834740Y-68832067D01*
X136932123Y-68616680D01*
X136985615Y-68386433D01*
X136993160Y-68150174D01*
X136986795Y-68111810D01*
X137130000Y-68111810D01*
X137130000Y-68348190D01*
X137176116Y-68580027D01*
X137266574Y-68798413D01*
X137397899Y-68994955D01*
X137565045Y-69162101D01*
X137761587Y-69293426D01*
X137979973Y-69383884D01*
X138211810Y-69430000D01*
X138448190Y-69430000D01*
X138680027Y-69383884D01*
X138898413Y-69293426D01*
X139094955Y-69162101D01*
X139262101Y-68994955D01*
X139393426Y-68798413D01*
X139483884Y-68580027D01*
X139530000Y-68348190D01*
X139530000Y-68111810D01*
X139483884Y-67879973D01*
X139393426Y-67661587D01*
X139262101Y-67465045D01*
X139094955Y-67297899D01*
X138898413Y-67166574D01*
X138680027Y-67076116D01*
X138448190Y-67030000D01*
X138211810Y-67030000D01*
X137979973Y-67076116D01*
X137761587Y-67166574D01*
X137565045Y-67297899D01*
X137397899Y-67465045D01*
X137266574Y-67661587D01*
X137176116Y-67879973D01*
X137130000Y-68111810D01*
X136986795Y-68111810D01*
X136954468Y-67916983D01*
X136871027Y-67695821D01*
X136834740Y-67627933D01*
X136614716Y-67584889D01*
X135969605Y-68230000D01*
X135610395Y-68230000D01*
X134965284Y-67584889D01*
X134745260Y-67627933D01*
X134647877Y-67843320D01*
X134594385Y-68073567D01*
X134586840Y-68309826D01*
X134448061Y-68309826D01*
X134453160Y-68150174D01*
X134414468Y-67916983D01*
X134331027Y-67695821D01*
X134294740Y-67627933D01*
X134074716Y-67584889D01*
X133429605Y-68230000D01*
X133070395Y-68230000D01*
X132425284Y-67584889D01*
X132205260Y-67627933D01*
X132107877Y-67843320D01*
X132054385Y-68073567D01*
X132046840Y-68309826D01*
X131908061Y-68309826D01*
X131913160Y-68150174D01*
X131874468Y-67916983D01*
X131791027Y-67695821D01*
X131754740Y-67627933D01*
X131534716Y-67584889D01*
X130889605Y-68230000D01*
X130530395Y-68230000D01*
X129885284Y-67584889D01*
X129665260Y-67627933D01*
X129567877Y-67843320D01*
X129514385Y-68073567D01*
X129506840Y-68309826D01*
X124701404Y-68309826D01*
X123796862Y-67405284D01*
X130064889Y-67405284D01*
X130710000Y-68050395D01*
X131355111Y-67405284D01*
X132604889Y-67405284D01*
X133250000Y-68050395D01*
X133895111Y-67405284D01*
X135144889Y-67405284D01*
X135790000Y-68050395D01*
X136435111Y-67405284D01*
X136392067Y-67185260D01*
X136176680Y-67087877D01*
X135946433Y-67034385D01*
X135710174Y-67026840D01*
X135476983Y-67065532D01*
X135255821Y-67148973D01*
X135187933Y-67185260D01*
X135144889Y-67405284D01*
X133895111Y-67405284D01*
X133852067Y-67185260D01*
X133636680Y-67087877D01*
X133406433Y-67034385D01*
X133170174Y-67026840D01*
X132936983Y-67065532D01*
X132715821Y-67148973D01*
X132647933Y-67185260D01*
X132604889Y-67405284D01*
X131355111Y-67405284D01*
X131312067Y-67185260D01*
X131096680Y-67087877D01*
X130866433Y-67034385D01*
X130630174Y-67026840D01*
X130396983Y-67065532D01*
X130175821Y-67148973D01*
X130107933Y-67185260D01*
X130064889Y-67405284D01*
X123796862Y-67405284D01*
X123385000Y-66993422D01*
X123385000Y-65058665D01*
X124165000Y-65058665D01*
X124165000Y-65341335D01*
X124220147Y-65618574D01*
X124328320Y-65879727D01*
X124485363Y-66114759D01*
X124685241Y-66314637D01*
X124920273Y-66471680D01*
X125181426Y-66579853D01*
X125458665Y-66635000D01*
X125741335Y-66635000D01*
X126018574Y-66579853D01*
X126279727Y-66471680D01*
X126514759Y-66314637D01*
X126714637Y-66114759D01*
X126732793Y-66087586D01*
X126750000Y-66089281D01*
X126793469Y-66085000D01*
X126793477Y-66085000D01*
X126923490Y-66072195D01*
X127090313Y-66021589D01*
X127244059Y-65939411D01*
X127378817Y-65828817D01*
X127406534Y-65795044D01*
X130173561Y-63028017D01*
X130208665Y-63035000D01*
X130491335Y-63035000D01*
X130768574Y-62979853D01*
X131029727Y-62871680D01*
X131264759Y-62714637D01*
X131464637Y-62514759D01*
X131621680Y-62279727D01*
X131729853Y-62018574D01*
X131785000Y-61741335D01*
X131785000Y-61458665D01*
X131729853Y-61181426D01*
X131660800Y-61014716D01*
X134584889Y-61014716D01*
X134627933Y-61234740D01*
X134843320Y-61332123D01*
X135073567Y-61385615D01*
X135309826Y-61393160D01*
X135543017Y-61354468D01*
X135764179Y-61271027D01*
X135832067Y-61234740D01*
X135875111Y-61014716D01*
X135230000Y-60369605D01*
X134584889Y-61014716D01*
X131660800Y-61014716D01*
X131621680Y-60920273D01*
X131464637Y-60685241D01*
X131264759Y-60485363D01*
X131064131Y-60351308D01*
X131091514Y-60336671D01*
X131111127Y-60269826D01*
X134026840Y-60269826D01*
X134065532Y-60503017D01*
X134148973Y-60724179D01*
X134185260Y-60792067D01*
X134405284Y-60835111D01*
X135050395Y-60190000D01*
X135409605Y-60190000D01*
X136054716Y-60835111D01*
X136274740Y-60792067D01*
X136372123Y-60576680D01*
X136425615Y-60346433D01*
X136433160Y-60110174D01*
X136394468Y-59876983D01*
X136311027Y-59655821D01*
X136274740Y-59587933D01*
X136054716Y-59544889D01*
X135409605Y-60190000D01*
X135050395Y-60190000D01*
X134405284Y-59544889D01*
X134185260Y-59587933D01*
X134087877Y-59803320D01*
X134034385Y-60033567D01*
X134026840Y-60269826D01*
X131111127Y-60269826D01*
X131163097Y-60092702D01*
X130350000Y-59279605D01*
X129536903Y-60092702D01*
X129608486Y-60336671D01*
X129637341Y-60350324D01*
X129435241Y-60485363D01*
X129235363Y-60685241D01*
X129078320Y-60920273D01*
X128970147Y-61181426D01*
X128915000Y-61458665D01*
X128915000Y-61741335D01*
X128921983Y-61776439D01*
X126563909Y-64134513D01*
X126514759Y-64085363D01*
X126279727Y-63928320D01*
X126018574Y-63820147D01*
X125741335Y-63765000D01*
X125458665Y-63765000D01*
X125181426Y-63820147D01*
X124920273Y-63928320D01*
X124685241Y-64085363D01*
X124485363Y-64285241D01*
X124328320Y-64520273D01*
X124220147Y-64781426D01*
X124165000Y-65058665D01*
X123385000Y-65058665D01*
X123385000Y-61766578D01*
X125981066Y-59170512D01*
X128909783Y-59170512D01*
X128951213Y-59450130D01*
X129046397Y-59716292D01*
X129113329Y-59841514D01*
X129357298Y-59913097D01*
X130170395Y-59100000D01*
X130529605Y-59100000D01*
X131342702Y-59913097D01*
X131586671Y-59841514D01*
X131707571Y-59586004D01*
X131762897Y-59365284D01*
X134584889Y-59365284D01*
X135230000Y-60010395D01*
X135875111Y-59365284D01*
X135832067Y-59145260D01*
X135616680Y-59047877D01*
X135386433Y-58994385D01*
X135150174Y-58986840D01*
X134916983Y-59025532D01*
X134695821Y-59108973D01*
X134627933Y-59145260D01*
X134584889Y-59365284D01*
X131762897Y-59365284D01*
X131776300Y-59311816D01*
X131790217Y-59029488D01*
X131748787Y-58749870D01*
X131653603Y-58483708D01*
X131648797Y-58474716D01*
X134584889Y-58474716D01*
X134627933Y-58694740D01*
X134843320Y-58792123D01*
X135073567Y-58845615D01*
X135309826Y-58853160D01*
X135543017Y-58814468D01*
X135764179Y-58731027D01*
X135832067Y-58694740D01*
X135875111Y-58474716D01*
X135230000Y-57829605D01*
X134584889Y-58474716D01*
X131648797Y-58474716D01*
X131586671Y-58358486D01*
X131342702Y-58286903D01*
X130529605Y-59100000D01*
X130170395Y-59100000D01*
X129357298Y-58286903D01*
X129113329Y-58358486D01*
X128992429Y-58613996D01*
X128923700Y-58888184D01*
X128909783Y-59170512D01*
X125981066Y-59170512D01*
X126434051Y-58717528D01*
X126467818Y-58689816D01*
X126530043Y-58613996D01*
X126578411Y-58555059D01*
X126578412Y-58555058D01*
X126660590Y-58401312D01*
X126711196Y-58234489D01*
X126723723Y-58107298D01*
X129536903Y-58107298D01*
X130350000Y-58920395D01*
X131163097Y-58107298D01*
X131091514Y-57863329D01*
X130836004Y-57742429D01*
X130785726Y-57729826D01*
X134026840Y-57729826D01*
X134065532Y-57963017D01*
X134148973Y-58184179D01*
X134185260Y-58252067D01*
X134405284Y-58295111D01*
X135050395Y-57650000D01*
X135409605Y-57650000D01*
X136054716Y-58295111D01*
X136274740Y-58252067D01*
X136372123Y-58036680D01*
X136425615Y-57806433D01*
X136433160Y-57570174D01*
X136394468Y-57336983D01*
X136311027Y-57115821D01*
X136274740Y-57047933D01*
X136054716Y-57004889D01*
X135409605Y-57650000D01*
X135050395Y-57650000D01*
X134405284Y-57004889D01*
X134185260Y-57047933D01*
X134087877Y-57263320D01*
X134034385Y-57493567D01*
X134026840Y-57729826D01*
X130785726Y-57729826D01*
X130561816Y-57673700D01*
X130279488Y-57659783D01*
X129999870Y-57701213D01*
X129733708Y-57796397D01*
X129608486Y-57863329D01*
X129536903Y-58107298D01*
X126723723Y-58107298D01*
X126724001Y-58104476D01*
X126724001Y-58104466D01*
X126728282Y-58061000D01*
X126724001Y-58017534D01*
X126724001Y-56825284D01*
X134584889Y-56825284D01*
X135230000Y-57470395D01*
X135875111Y-56825284D01*
X135832067Y-56605260D01*
X135616680Y-56507877D01*
X135386433Y-56454385D01*
X135150174Y-56446840D01*
X134916983Y-56485532D01*
X134695821Y-56568973D01*
X134627933Y-56605260D01*
X134584889Y-56825284D01*
X126724001Y-56825284D01*
X126724001Y-55692702D01*
X129486903Y-55692702D01*
X129558486Y-55936671D01*
X129813996Y-56057571D01*
X130088184Y-56126300D01*
X130370512Y-56140217D01*
X130650130Y-56098787D01*
X130916292Y-56003603D01*
X131041514Y-55936671D01*
X131042087Y-55934716D01*
X134584889Y-55934716D01*
X134627933Y-56154740D01*
X134843320Y-56252123D01*
X135073567Y-56305615D01*
X135309826Y-56313160D01*
X135543017Y-56274468D01*
X135764179Y-56191027D01*
X135832067Y-56154740D01*
X135875111Y-55934716D01*
X135230000Y-55289605D01*
X134584889Y-55934716D01*
X131042087Y-55934716D01*
X131113097Y-55692702D01*
X130300000Y-54879605D01*
X129486903Y-55692702D01*
X126724001Y-55692702D01*
X126724001Y-54817466D01*
X126728282Y-54774000D01*
X126727939Y-54770512D01*
X128859783Y-54770512D01*
X128901213Y-55050130D01*
X128996397Y-55316292D01*
X129063329Y-55441514D01*
X129307298Y-55513097D01*
X130120395Y-54700000D01*
X130479605Y-54700000D01*
X131292702Y-55513097D01*
X131536671Y-55441514D01*
X131657571Y-55186004D01*
X131726300Y-54911816D01*
X131740217Y-54629488D01*
X131698787Y-54349870D01*
X131603603Y-54083708D01*
X131536671Y-53958486D01*
X131292702Y-53886903D01*
X130479605Y-54700000D01*
X130120395Y-54700000D01*
X129307298Y-53886903D01*
X129063329Y-53958486D01*
X128942429Y-54213996D01*
X128873700Y-54488184D01*
X128859783Y-54770512D01*
X126727939Y-54770512D01*
X126724001Y-54730534D01*
X126724001Y-54730524D01*
X126711196Y-54600511D01*
X126660590Y-54433688D01*
X126578412Y-54279942D01*
X126467818Y-54145184D01*
X126434050Y-54117471D01*
X126024000Y-53707421D01*
X126024000Y-53543045D01*
X125974465Y-53294013D01*
X125877297Y-53059430D01*
X125736232Y-52848310D01*
X125556690Y-52668768D01*
X125345570Y-52527703D01*
X125110987Y-52430535D01*
X124957476Y-52400000D01*
X125110987Y-52369465D01*
X125345570Y-52272297D01*
X125556690Y-52131232D01*
X125736232Y-51951690D01*
X125877297Y-51740570D01*
X125974465Y-51505987D01*
X126024000Y-51256955D01*
X126024000Y-51185000D01*
X129285604Y-51185000D01*
X129185363Y-51285241D01*
G37*
%TD.AperFunction*%
%TD*%
M02*
