M48
; DRILL file {KiCad (5.1.10)-1} date 03/23/23 11:32:44
; FORMAT={-:-/ absolute / inch / decimal}
; #@! TF.CreationDate,2023-03-23T11:32:44+01:00
; #@! TF.GenerationSoftware,Kicad,Pcbnew,(5.1.10)-1
; #@! TF.FileFunction,Plated,1,2,PTH
FMAT,2
INCH
T1C0.0157
T2C0.0307
T3C0.0315
T4C0.0512
%
G90
G05
T1
X4.2638Y-1.7835
X4.685Y-2.3071
T2
X5.1461Y-2.6862
X5.1461Y-2.9988
X5.2461Y-2.6862
X5.2461Y-2.9988
X5.324Y-1.6697
X5.324Y-1.7697
X5.324Y-1.8697
X5.324Y-1.9697
X5.324Y-2.0697
X5.324Y-2.1697
X5.324Y-2.2697
X5.324Y-2.3697
X5.3461Y-2.6862
X5.3461Y-2.9988
X5.4461Y-2.6862
X5.4461Y-2.9988
X5.5461Y-2.6862
X5.5461Y-2.9988
X5.6366Y-1.6697
X5.6366Y-1.7697
X5.6366Y-1.8697
X5.6366Y-1.9697
X5.6366Y-2.0697
X5.6366Y-2.1697
X5.6366Y-2.2697
X5.6366Y-2.3697
X5.6461Y-2.6862
X5.6461Y-2.9988
X5.7461Y-2.6862
X5.7461Y-2.9988
X5.8461Y-2.6862
X5.8461Y-2.9988
T3
X4.3449Y-2.5669
X4.3488Y-2.9843
X4.3504Y-2.7795
X4.3583Y-1.6614
X4.3583Y-2.2614
X4.5417Y-1.6772
X4.601Y-1.913
X4.601Y-2.013
X4.601Y-2.113
X4.601Y-2.213
X4.9108Y-1.913
X4.9108Y-2.013
X4.9108Y-2.113
X4.9108Y-2.213
X4.9449Y-2.5669
X4.9488Y-2.9843
X4.9504Y-2.7795
X5.1299Y-2.0551
X5.1299Y-2.1535
X5.1319Y-2.3268
X5.1319Y-2.4252
X5.1417Y-1.6772
X5.7874Y-2.3701
X5.7874Y-2.4685
X5.7992Y-1.685
X5.7992Y-1.7835
T4
X3.9803Y-1.689
X3.9803Y-1.889
X3.9803Y-2.1614
X3.9803Y-2.3614
X3.9803Y-2.5614
X3.9803Y-2.7614
X3.9803Y-2.9614
X6.1732Y-2.5016
X6.1732Y-2.7016
X6.1732Y-2.9016
X6.1772Y-1.7299
X6.1772Y-1.9299
X6.1772Y-2.1299
T0
M30
